  0
SECTION
  2
HEADER
  9
$INSBASE
 10
0.0000
 20
0.0000
  9
$EXTMIN
 10
-120.45495128834897
 20
-120.45495128834884
  9
$EXTMAX
 10
120.45495128834897
 20
120.45495128834887
  9
$LIMMIN
 10
-120.45495128834897
 20
-120.45495128834884
  9
$LIMMAX
 10
120.45495128834897
 20
120.45495128834887
  9
$TEXTSTYLE
  7
STANDARD
  9
$CLAYER
  8
default
  0
ENDSEC
  0
SECTION
  2
TABLES
  0
TABLE
  2
LTYPE
 70
4948253
  0
LTYPE
  2
CONTINUOUS
 70
    64
  3
Solid line
 72
    65
 73
     0
 40
0.0
  0
ENDTAB
  0
TABLE
  2
LAYER
 70
     5
  0
LAYER
  2
default
 70
    64
 62
     7
  6
CONTINUOUS
  0
LAYER
  2
layer10
 70
    64
 62
     7
  6
CONTINUOUS
  0
LAYER
  2
layer1000
 70
    64
 62
     7
  6
CONTINUOUS
  0
ENDTAB
  0
TABLE
  2
STYLE
 70
     1
  0
STYLE
  2
STANDARD
 70
     0
 40
0.0
 41
1.0
 50
0.0
 71
     0
 42
0.2
  3
txt
  4

  0
ENDTAB
  0
TABLE
  2
VIEW
 70
     0
  0
ENDTAB
  0
ENDSEC
  0
SECTION
  2
BLOCKS
  0
ENDSEC
  0
SECTION
  2
ENTITIES
  0
LINE
  8
default
 10
76.440284661047372
 20
5.6644521121924294
 30
0.0
 11
76.510655107869965
 21
4.4562382008168333
 31
0.0
  0
LINE
  8
default
 10
76.668871491120001
 20
6.7714991690286075
 30
0.0
 11
76.440284661047372
 21
5.6644521121924294
 31
0.0
  0
LINE
  8
default
 10
91.502655903032178
 20
8.5053199044655337
 30
0.0
 11
85.233225597532297
 21
7.772528597729055
 31
0.0
  0
LINE
  8
default
 10
94.340120956634848
 20
5.4946863320399659
 30
0.0
 11
94.285717618404021
 21
6.2114366752032222
 31
0.0
  0
LINE
  8
default
 10
94.369295110352851
 20
4.7764665562121618
 30
0.0
 11
94.340120956634848
 21
5.4946863320399659
 31
0.0
  0
LINE
  8
default
 10
76.936587081297205
 20
2.1749999999999998
 30
0.0
 11
85.559244512573585
 21
2.1750000000000003
 31
0.0
  0
LINE
  8
default
 10
76.581025554692559
 20
3.2480242894412372
 30
0.0
 11
76.936587081297205
 21
2.1749999999999998
 31
0.0
  0
LINE
  8
default
 10
76.510655107869965
 20
4.4562382008168333
 30
0.0
 11
76.581025554692559
 21
3.2480242894412372
 31
0.0
  0
LINE
  8
default
 10
85.559244512573585
 20
2.1750000000000003
 30
0.0
 11
91.871355051430527
 21
2.1750000000000003
 31
0.0
  0
LINE
  8
default
 10
85.233225597532297
 20
7.772528597729055
 30
0.0
 11
76.668871491120001
 21
6.7714991690286075
 31
0.0
  0
LINE
  8
default
 10
76.440284661047372
 20
5.6644521121924294
 30
0.0
 11
75.4419765027761
 21
5.6063072832819536
 31
0.0
  0
LINE
  8
default
 10
75.582717396421288
 20
3.1898794605307614
 30
0.0
 11
76.581025554692559
 21
3.2480242894412372
 31
0.0
  0
LINE
  8
default
 10
75.265820049438091
 20
14.500326516285016
 30
0.0
 11
75.475979750331973
 21
13.308451625389278
 31
0.0
  0
LINE
  8
default
 10
75.364340938238996
 20
15.626425428193812
 30
0.0
 11
75.265820049438091
 21
14.500326516285016
 31
0.0
  0
LINE
  8
default
 10
89.896540304877064
 20
19.070619947962413
 30
0.0
 11
83.75457352250946
 21
17.614947079821388
 31
0.0
  0
LINE
  8
default
 10
93.064332659653672
 20
16.409752789524919
 30
0.0
 11
92.927087541295521
 21
17.115340881206009
 31
0.0
  0
LINE
  8
default
 10
93.176689774939263
 20
15.699776271406186
 30
0.0
 11
93.064332659653672
 21
16.409752789524919
 31
0.0
  0
LINE
  8
default
 10
76.163867314675258
 20
11.092086025206061
 30
0.0
 11
84.728221421087568
 21
12.093115453906508
 31
0.0
  0
LINE
  8
default
 10
75.686139451225841
 20
12.116576734493542
 30
0.0
 11
76.163867314675258
 21
11.092086025206061
 31
0.0
  0
LINE
  8
default
 10
75.475979750331973
 20
13.308451625389278
 30
0.0
 11
75.686139451225841
 21
12.116576734493542
 31
0.0
  0
LINE
  8
default
 10
84.728221421087568
 20
12.093115453906508
 30
0.0
 11
90.997651726587449
 21
12.825906760642988
 31
0.0
  0
LINE
  8
default
 10
83.75457352250946
 20
17.614947079821388
 30
0.0
 11
75.364340938238996
 21
15.626425428193812
 31
0.0
  0
LINE
  8
default
 10
75.265820049438091
 20
14.500326516285016
 30
0.0
 11
74.281012296425885
 21
14.326678338618084
 31
0.0
  0
LINE
  8
default
 10
74.701331698213636
 20
11.942928556826612
 30
0.0
 11
75.686139451225841
 21
12.116576734493542
 31
0.0
  0
LINE
  8
default
 10
73.073514338961616
 20
23.140108879321325
 30
0.0
 11
73.420621244497767
 21
21.980691072162642
 31
0.0
  0
LINE
  8
default
 10
73.040636960480768
 20
24.270031090323712
 30
0.0
 11
73.073514338961616
 21
23.140108879321325
 31
0.0
  0
LINE
  8
default
 10
87.074728215164768
 20
29.378022572004312
 30
0.0
 11
81.143284520215929
 21
27.219153620817
 31
0.0
  0
LINE
  8
default
 10
90.530008913813688
 20
27.10290549119803
 30
0.0
 11
90.311778020112243
 21
27.787789462881967
 31
0.0
  0
LINE
  8
default
 10
90.724029553429475
 20
26.410773445242643
 30
0.0
 11
90.530008913813688
 21
27.10290549119803
 31
0.0
  0
LINE
  8
default
 10
74.361161900509373
 20
19.859170615216044
 30
0.0
 11
82.751394484779865
 21
21.84769226684362
 31
0.0
  0
LINE
  8
default
 10
73.767728150033918
 20
20.82127326500396
 30
0.0
 11
74.361161900509373
 21
19.859170615216044
 31
0.0
  0
LINE
  8
default
 10
73.420621244497767
 20
21.980691072162642
 30
0.0
 11
73.767728150033918
 21
20.82127326500396
 31
0.0
  0
LINE
  8
default
 10
82.751394484779865
 20
21.84769226684362
 30
0.0
 11
88.893361267147455
 21
23.303365134984645
 31
0.0
  0
LINE
  8
default
 10
81.143284520215929
 20
27.219153620817
 30
0.0
 11
73.040636960480768
 21
24.270031090323712
 31
0.0
  0
LINE
  8
default
 10
73.073514338961616
 20
23.140108879321325
 30
0.0
 11
72.115524826646123
 21
22.853305646610231
 31
0.0
  0
LINE
  8
default
 10
72.809738637718425
 20
20.534470032292869
 30
0.0
 11
73.767728150033918
 21
20.82127326500396
 31
0.0
  0
LINE
  8
default
 10
69.89301470348704
 20
31.466960966248713
 30
0.0
 11
70.372374788224391
 21
30.355679379706345
 31
0.0
  0
LINE
  8
default
 10
69.729183667867758
 20
32.58542621680423
 30
0.0
 11
69.89301470348704
 21
31.466960966248713
 31
0.0
  0
LINE
  8
default
 10
83.07537980163552
 20
39.288137838284179
 30
0.0
 11
77.43467179478354
 21
36.455267803110488
 31
0.0
  0
LINE
  8
default
 10
86.771422100185902
 20
37.429537890700317
 30
0.0
 11
86.475156629606857
 21
38.084455861577496
 31
0.0
  0
LINE
  8
default
 10
87.04448246782033
 20
36.76461021548846
 30
0.0
 11
86.771422100185902
 21
37.429537890700317
 31
0.0
  0
LINE
  8
default
 10
71.552849337014109
 20
28.357693990742412
 30
0.0
 11
79.655496896749298
 21
31.306816521235703
 31
0.0
  0
LINE
  8
default
 10
70.851734872961728
 20
29.244397793163969
 30
0.0
 11
71.552849337014109
 21
28.357693990742412
 31
0.0
  0
LINE
  8
default
 10
70.372374788224391
 20
30.355679379706345
 30
0.0
 11
70.851734872961728
 21
29.244397793163969
 31
0.0
  0
LINE
  8
default
 10
79.655496896749298
 20
31.306816521235703
 30
0.0
 11
85.586940591698124
 21
33.465685472423019
 31
0.0
  0
LINE
  8
default
 10
77.43467179478354
 20
36.455267803110488
 30
0.0
 11
69.729183667867758
 21
32.58542621680423
 31
0.0
  0
LINE
  8
default
 10
69.89301470348704
 20
31.466960966248713
 30
0.0
 11
68.97479859660676
 21
31.070881200209559
 31
0.0
  0
LINE
  8
default
 10
69.933518766081463
 20
28.848318027124812
 30
0.0
 11
70.851734872961728
 21
29.244397793163969
 31
0.0
  0
LINE
  8
default
 10
65.767331944488248
 20
39.368276387172074
 30
0.0
 11
66.372462685615233
 21
38.320159198318336
 31
0.0
  0
LINE
  8
default
 10
65.474762785437818
 20
40.460159353476065
 30
0.0
 11
65.767331944488248
 21
39.368276387172074
 31
0.0
  0
LINE
  8
default
 10
77.952579390764512
 20
48.66694843846863
 30
0.0
 11
72.678887971258391
 21
45.198387026791387
 31
0.0
  0
LINE
  8
default
 10
81.839400657629454
 20
47.25
 30
0.0
 11
81.469107092423755
 21
47.866095328015533
 31
0.0
  0
LINE
  8
default
 10
82.187808080240956
 20
46.621268701666196
 30
0.0
 11
81.839400657629454
 21
47.25
 31
0.0
  0
LINE
  8
default
 10
67.776907233995743
 20
36.472728202211073
 30
0.0
 11
75.482395360911553
 21
40.342569788517338
 31
0.0
  0
LINE
  8
default
 10
66.977593426742203
 20
37.272042009464613
 30
0.0
 11
67.776907233995743
 21
36.472728202211073
 31
0.0
  0
LINE
  8
default
 10
66.372462685615233
 20
38.320159198318336
 30
0.0
 11
66.977593426742203
 21
37.272042009464613
 31
0.0
  0
LINE
  8
default
 10
75.482395360911553
 20
40.342569788517338
 30
0.0
 11
81.12310336776352
 21
43.175439823691036
 31
0.0
  0
LINE
  8
default
 10
72.678887971258391
 20
45.198387026791387
 30
0.0
 11
65.474762785437818
 21
40.460159353476065
 31
0.0
  0
LINE
  8
default
 10
65.767331944488248
 20
39.368276387172074
 30
0.0
 11
64.901306540703814
 21
38.868276387172074
 31
0.0
  0
LINE
  8
default
 10
66.111568022957769
 20
36.772042009464613
 30
0.0
 11
66.977593426742203
 21
37.272042009464613
 31
0.0
  0
LINE
  8
default
 10
60.752258843738453
 20
46.737203405602685
 30
0.0
 11
61.474976886073335
 21
45.7664246013887
 31
0.0
  0
LINE
  8
default
 10
60.33490805723531
 20
47.787738243643531
 30
0.0
 11
60.752258843738453
 21
46.737203405602685
 31
0.0
  0
LINE
  8
default
 10
71.775604070027228
 20
57.387622048388607
 30
0.0
 11
66.940246867383138
 21
53.330275603039546
 31
0.0
  0
LINE
  8
default
 10
75.800641715351645
 20
56.431486915913297
 30
0.0
 11
75.361327640756073
 21
57.000427968657377
 31
0.0
  0
LINE
  8
default
 10
76.219684580236702
 20
55.84745450668909
 30
0.0
 11
75.800641715351645
 21
56.431486915913297
 31
0.0
  0
LINE
  8
default
 10
63.084398730829804
 20
44.09453133312234
 30
0.0
 11
70.288523916650405
 21
48.832759006437662
 31
0.0
  0
LINE
  8
default
 10
62.197694928408232
 20
44.795645797174707
 30
0.0
 11
63.084398730829804
 21
44.09453133312234
 31
0.0
  0
LINE
  8
default
 10
61.474976886073335
 20
45.7664246013887
 30
0.0
 11
62.197694928408232
 21
44.795645797174707
 31
0.0
  0
LINE
  8
default
 10
70.288523916650405
 20
48.832759006437662
 30
0.0
 11
75.562215336156513
 21
52.301320418114905
 31
0.0
  0
LINE
  8
default
 10
66.940246867383138
 20
53.330275603039546
 30
0.0
 11
60.33490805723531
 21
47.787738243643531
 31
0.0
  0
LINE
  8
default
 10
60.752258843738453
 20
46.737203405602685
 30
0.0
 11
59.950135650983398
 21
46.140044813899898
 31
0.0
  0
LINE
  8
default
 10
61.395571735653192
 20
44.198487205471913
 30
0.0
 11
62.197694928408232
 21
44.795645797174707
 31
0.0
  0
LINE
  8
default
 10
54.915615661648154
 20
53.474089924891842
 30
0.0
 11
55.746147483479547
 21
52.593777623289185
 31
0.0
  0
LINE
  8
default
 10
54.379127201121229
 20
54.46906995316062
 30
0.0
 11
54.915615661648154
 21
53.474089924891842
 31
0.0
  0
LINE
  8
default
 10
64.627986834135015
 20
65.332226517645012
 30
0.0
 11
60.296353759541319
 21
60.740963688985019
 31
0.0
  0
LINE
  8
default
 10
68.736809128653107
 20
64.849834778595323
 30
0.0
 11
68.23441551389034
 21
65.363927604338798
 31
0.0
  0
LINE
  8
default
 10
69.220820599925432
 20
64.318399294917299
 30
0.0
 11
68.736809128653107
 21
64.849834778595323
 31
0.0
  0
LINE
  8
default
 10
57.538781955098855
 20
51.120031571211086
 30
0.0
 11
64.144120765246683
 21
56.662568930607101
 31
0.0
  0
LINE
  8
default
 10
56.576679305310932
 20
51.713465321686535
 30
0.0
 11
57.538781955098855
 21
51.120031571211086
 31
0.0
  0
LINE
  8
default
 10
55.746147483479547
 20
52.593777623289185
 30
0.0
 11
56.576679305310932
 21
51.713465321686535
 31
0.0
  0
LINE
  8
default
 10
64.144120765246683
 20
56.662568930607101
 30
0.0
 11
68.979477967890787
 21
60.71991537595617
 31
0.0
  0
LINE
  8
default
 10
60.296353759541319
 20
60.740963688985019
 30
0.0
 11
54.379127201121229
 21
54.46906995316062
 31
0.0
  0
LINE
  8
default
 10
54.915615661648154
 20
53.474089924891842
 30
0.0
 11
54.188242020075101
 21
52.787848287023103
 31
0.0
  0
LINE
  8
default
 10
55.84930566373788
 20
51.027223683817802
 30
0.0
 11
56.576679305310932
 21
51.713465321686535
 31
0.0
  0
LINE
  8
default
 10
48.336332984587827
 20
59.487831111886429
 30
0.0
 11
49.2634470677894
 21
58.709890026612719
 31
0.0
  0
LINE
  8
default
 10
47.687961936128431
 20
60.413800932373015
 30
0.0
 11
48.336332984587827
 21
59.487831111886429
 31
0.0
  0
LINE
  8
default
 10
56.606386944581118
 20
72.393324699632103
 30
0.0
 11
52.837055904524988
 21
67.330234441181418
 31
0.0
  0
LINE
  8
default
 10
60.743429115377978
 20
72.391199874743435
 30
0.0
 11
60.18474997223953
 21
72.843492249936062
 31
0.0
  0
LINE
  8
default
 10
61.285863768202489
 20
71.919548069859317
 30
0.0
 11
60.743429115377978
 21
72.391199874743435
 31
0.0
  0
LINE
  8
default
 10
51.215051860278464
 20
57.454221077889621
 30
0.0
 11
57.132278418698576
 21
63.726114813714027
 31
0.0
  0
LINE
  8
default
 10
50.19056115099098
 20
57.931948941339016
 30
0.0
 11
51.215051860278464
 21
57.454221077889621
 31
0.0
  0
LINE
  8
default
 10
49.2634470677894
 20
58.709890026612719
 30
0.0
 11
50.19056115099098
 21
57.931948941339016
 31
0.0
  0
LINE
  8
default
 10
57.132278418698576
 20
63.726114813714027
 30
0.0
 11
61.463911493292258
 21
68.317377642374026
 31
0.0
  0
LINE
  8
default
 10
52.837055904524988
 20
67.330234441181418
 30
0.0
 11
47.687961936128431
 21
60.413800932373015
 31
0.0
  0
LINE
  8
default
 10
48.336332984587827
 20
59.487831111886429
 30
0.0
 11
47.693545374901284
 21
58.72178666876745
 31
0.0
  0
LINE
  8
default
 10
49.547773541304437
 20
57.16590449822003
 30
0.0
 11
50.19056115099098
 21
57.931948941339016
 31
0.0
  0
LINE
  8
default
 10
41.103384324111296
 20
64.697101433508422
 30
0.0
 11
42.11454304115702
 21
64.032051883196587
 31
0.0
  0
LINE
  8
default
 10
40.351898793879755
 20
65.541538892877043
 30
0.0
 11
41.103384324111296
 21
64.697101433508422
 31
0.0
  0
LINE
  8
default
 10
47.819282778946416
 20
78.47542735463864
 30
0.0
 11
44.663227509517938
 21
73.008979276493037
 31
0.0
  0
LINE
  8
default
 10
51.928598427691178
 20
78.953598178522498
 30
0.0
 11
51.321188933182938
 21
79.337973624690093
 31
0.0
  0
LINE
  8
default
 10
52.522120763926345
 20
78.548108333982285
 30
0.0
 11
51.928598427691178
 21
78.953598178522498
 31
0.0
  0
LINE
  8
default
 10
44.198726047643987
 20
63.01144080628012
 30
0.0
 11
49.347820016040558
 21
69.927874315088545
 31
0.0
  0
LINE
  8
default
 10
43.125701758202752
 20
63.367002332884759
 30
0.0
 11
44.198726047643987
 21
63.01144080628012
 31
0.0
  0
LINE
  8
default
 10
42.11454304115702
 20
64.032051883196587
 30
0.0
 11
43.125701758202752
 21
63.367002332884759
 31
0.0
  0
LINE
  8
default
 10
49.347820016040558
 20
69.927874315088545
 30
0.0
 11
53.117151056096681
 21
74.99096457353923
 31
0.0
  0
LINE
  8
default
 10
44.663227509517938
 20
73.008979276493037
 30
0.0
 11
40.351898793879755
 21
65.541538892877043
 31
0.0
  0
LINE
  8
default
 10
41.103384324111296
 20
64.697101433508422
 30
0.0
 11
40.553875346040485
 21
63.861613622095476
 31
0.0
  0
LINE
  8
default
 10
42.57619278013194
 20
62.53151452147182
 30
0.0
 11
43.125701758202752
 21
63.367002332884759
 31
0.0
  0
LINE
  8
layer10
 10
52.937876339303457
 20
28.361449362284361
 30
0.0
 11
53.248700105789993
 21
28.109678548484979
 31
0.0
  0
LINE
  8
layer10
 10
72.418981053568515
 20
11.29462884011458
 30
0.0
 11
73.175890832262837
 21
4.493624132426687
 31
0.0
  0
LINE
  8
layer10
 10
72.391250941517953
 20
4.0645564778490151
 30
0.0
 11
68.033526366508141
 21
7.5943633044995522
 31
0.0
  0
LINE
  8
layer10
 10
66.821856003715283
 20
8.5758301789237308
 30
0.0
 11
47.879085571412489
 21
23.91969123225007
 31
0.0
  0
LINE
  8
layer10
 10
48.11591341026169
 20
26.717955080824009
 30
0.0
 11
51.28902636512214
 21
28.500997873922831
 31
0.0
  0
LINE
  8
layer10
 10
54.314707239585331
 20
27.246200557617659
 30
0.0
 11
54.677948344807326
 21
26.951971101154431
 31
0.0
  0
LINE
  8
layer10
 10
50.226168630166143
 20
22.198693418954679
 30
0.0
 11
54.314707239585331
 21
27.246200557617659
 31
0.0
  0
LINE
  8
layer10
 10
53.248700105789993
 20
28.109678548484979
 30
0.0
 11
54.314707239585331
 21
27.246200557617659
 31
0.0
  0
LINE
  8
layer10
 10
69.691277370111891
 20
14.79100260030409
 30
0.0
 11
70.998514395434341
 21
13.732125633698841
 31
0.0
  0
LINE
  8
layer10
 10
70.998514395434341
 20
13.732125633698841
 30
0.0
 11
71.155698838769155
 21
13.6048044289534
 31
0.0
  0
LINE
  8
layer10
 10
70.998514395434341
 20
13.732125633698841
 30
0.0
 11
68.019401595764464
 21
10.05426061645934
 31
0.0
  0
LINE
  8
layer10
 10
66.909975786015139
 20
8.6846184950358971
 30
0.0
 11
50.226168630166143
 21
22.198693418954679
 31
0.0
  0
LINE
  8
layer10
 10
68.019401595764464
 20
10.05426061645934
 30
0.0
 11
66.909975786015139
 21
8.6846184950358971
 31
0.0
  0
LINE
  8
layer10
 10
68.033526366508141
 20
7.5943633044995522
 30
0.0
 11
68.019401595764464
 21
10.05426061645934
 31
0.0
  0
LINE
  8
layer10
 10
66.909975786015139
 20
8.6846184950358971
 30
0.0
 11
66.821856003715283
 21
8.5758301789237308
 31
0.0
  0
LINE
  8
layer10
 10
51.030673805535933
 20
31.664821051093799
 30
0.0
 11
50.968045768097461
 21
32.059887735870731
 31
0.0
  0
LINE
  8
layer10
 10
45.990926028639862
 20
57.069362888517048
 30
0.0
 11
40.479538069871708
 21
61.125368339083089
 31
0.0
  0
LINE
  8
layer10
 10
39.715634635692808
 20
60.660384088164243
 30
0.0
 11
40.593674730518998
 21
55.12158049018467
 31
0.0
  0
LINE
  8
layer10
 10
40.837814795346837
 20
53.581509737781289
 30
0.0
 11
44.65460304351469
 21
29.504658798687149
 31
0.0
  0
LINE
  8
layer10
 10
47.196384542295952
 20
28.310625799166932
 30
0.0
 11
50.327101374584473
 21
30.16710083060423
 31
0.0
  0
LINE
  8
layer10
 10
50.968045768097461
 20
32.059887735870731
 30
0.0
 11
50.753255459295268
 21
33.414815989786653
 31
0.0
  0
LINE
  8
layer10
 10
47.655022684360972
 20
52.958915324552422
 30
0.0
 11
47.391626844459822
 21
54.620454280551861
 31
0.0
  0
LINE
  8
layer10
 10
47.391626844459822
 20
54.620454280551861
 30
0.0
 11
47.359955668377253
 21
54.820240603932248
 31
0.0
  0
LINE
  8
layer10
 10
47.391626844459822
 20
54.620454280551861
 30
0.0
 11
42.716945908005378
 21
53.879399423918137
 31
0.0
  0
LINE
  8
layer10
 10
40.976088131884822
 20
53.603429549772812
 30
0.0
 11
44.337716755521747
 21
32.397791260402897
 31
0.0
  0
LINE
  8
layer10
 10
42.716945908005378
 20
53.879399423918137
 30
0.0
 11
40.976088131884822
 21
53.603429549772812
 31
0.0
  0
LINE
  8
layer10
 10
40.593674730518998
 20
55.12158049018467
 30
0.0
 11
42.716945908005378
 21
53.879399423918137
 31
0.0
  0
LINE
  8
layer10
 10
40.976088131884822
 20
53.603429549772812
 30
0.0
 11
40.837814795346837
 21
53.581509737781289
 31
0.0
  0
LINE
  8
layer10
 10
50.753255459295268
 20
33.414815989786653
 30
0.0
 11
50.680078688272232
 21
33.876425618812057
 31
0.0
  0
LINE
  8
layer10
 10
44.337716755521747
 20
32.397791260402897
 30
0.0
 11
50.753255459295268
 21
33.414815989786653
 31
0.0
  0
LINE
  8
layer10
 10
58.864829819476149
 20
23.560549142412111
 30
0.0
 11
69.691277370111891
 21
14.79100260030409
 31
0.0
  0
LINE
  8
layer10
 10
49.836454460084973
 20
39.198128962182182
 30
0.0
 11
47.655022684360972
 21
52.958915324552422
 31
0.0
  0
LINE
  8
layer10
 10
50.680078688272232
 20
33.876425618812057
 30
0.0
 11
50.119605592331311
 21
37.411970768987338
 31
0.0
  0
LINE
  8
layer10
 10
50.119605592331311
 20
37.411970768987338
 30
0.0
 11
50.020697456062109
 21
38.035897562319519
 31
0.0
  0
LINE
  8
layer10
 10
49.861568953338569
 20
39.039703115402162
 30
0.0
 11
49.836454460084973
 21
39.198128962182182
 31
0.0
  0
LINE
  8
layer10
 10
49.965645450677663
 20
38.383173554787433
 30
0.0
 11
49.861568953338569
 21
39.039703115402162
 31
0.0
  0
LINE
  8
layer10
 10
49.973408904025533
 20
38.334200571014449
 30
0.0
 11
49.969266999879778
 21
38.360328299929741
 31
0.0
  0
LINE
  8
layer10
 10
54.677948344807326
 20
26.951971101154431
 30
0.0
 11
56.133977287443408
 21
25.77257097757894
 31
0.0
  0
LINE
  8
layer10
 10
56.133977287443408
 20
25.77257097757894
 30
0.0
 11
58.864829819476149
 21
23.560549142412111
 31
0.0
  0
LINE
  8
layer10
 10
49.995576964759458
 20
38.194361245658421
 30
0.0
 11
49.992444875773892
 21
38.21411891485441
 31
0.0
  0
LINE
  8
layer10
 10
49.978989740192517
 20
38.298995851310721
 30
0.0
 11
49.973408904025533
 21
38.334200571014449
 31
0.0
  0
LINE
  8
layer10
 10
50.005770803866653
 20
38.1300570378774
 30
0.0
 11
50.002278662560613
 21
38.152085969056579
 31
0.0
  0
LINE
  8
layer10
 10
49.969266999879778
 20
38.360328299929741
 30
0.0
 11
49.965645450677663
 21
38.383173554787433
 31
0.0
  0
LINE
  8
layer10
 10
49.988678666548509
 20
38.237876706009338
 30
0.0
 11
49.978989740192517
 21
38.298995851310721
 31
0.0
  0
LINE
  8
layer10
 10
49.992444875773892
 20
38.21411891485441
 30
0.0
 11
49.988678666548509
 21
38.237876706009338
 31
0.0
  0
LINE
  8
layer10
 10
50.020697456062109
 20
38.035897562319519
 30
0.0
 11
50.013961166341097
 21
38.078391049742663
 31
0.0
  0
LINE
  8
layer10
 10
50.002278662560613
 20
38.152085969056579
 30
0.0
 11
49.995576964759458
 21
38.194361245658421
 31
0.0
  0
LINE
  8
layer10
 10
50.013961166341097
 20
38.078391049742663
 30
0.0
 11
50.005770803866653
 21
38.1300570378774
 31
0.0
  0
LINE
  8
default
 10
33.314582902844627
 20
69.031454445077202
 30
0.0
 11
34.396112066712952
 21
68.488290084013428
 31
0.0
  0
LINE
  8
default
 10
32.470145443476014
 20
69.782939975308736
 30
0.0
 11
33.314582902844627
 21
69.031454445077202
 31
0.0
  0
LINE
  8
default
 10
38.385504846935511
 20
83.496284478004753
 30
0.0
 11
35.885405581491753
 21
77.70040291281758
 31
0.0
  0
LINE
  8
default
 10
42.411522528943685
 20
84.448284510562459
 30
0.0
 11
41.763596854477676
 21
84.759545009185516
 31
0.0
  0
LINE
  8
default
 10
43.048106177169927
 20
84.114440180902264
 30
0.0
 11
42.411522528943685
 21
84.448284510562459
 31
0.0
  0
LINE
  8
default
 10
36.584688287417457
 20
67.71653889287704
 30
0.0
 11
40.896017003055647
 21
75.183979276493062
 31
0.0
  0
LINE
  8
default
 10
35.477641230581277
 20
67.945125722949655
 30
0.0
 11
36.584688287417457
 21
67.71653889287704
 31
0.0
  0
LINE
  8
default
 10
34.396112066712952
 20
68.488290084013428
 30
0.0
 11
35.477641230581277
 21
67.945125722949655
 31
0.0
  0
LINE
  8
default
 10
40.896017003055647
 20
75.183979276493062
 30
0.0
 11
44.052072272484118
 21
80.650427354638651
 31
0.0
  0
LINE
  8
default
 10
35.885405581491753
 20
77.70040291281758
 30
0.0
 11
32.470145443476014
 21
69.782939975308736
 31
0.0
  0
LINE
  8
default
 10
33.314582902844627
 20
69.031454445077202
 30
0.0
 11
32.865783722644167
 21
68.13782180475377
 31
0.0
  0
LINE
  8
default
 10
35.02884205038081
 20
67.051493082626237
 30
0.0
 11
35.477641230581277
 21
67.945125722949655
 31
0.0
  0
LINE
  8
default
 10
25.075258898447117
 20
72.43227545762403
 30
0.0
 11
26.212532682542577
 21
72.018341652001993
 31
0.0
  0
LINE
  8
default
 10
24.149289077960539
 20
73.080646506083426
 30
0.0
 11
25.075258898447117
 21
72.43227545762403
 31
0.0
  0
LINE
  8
default
 10
28.43262881158482
 20
87.387997590336425
 30
0.0
 11
26.622295103810902
 21
81.341061893535397
 31
0.0
  0
LINE
  8
default
 10
32.320903544275708
 20
88.800952664268351
 30
0.0
 11
31.641223773093024
 21
89.034888951065327
 31
0.0
  0
LINE
  8
default
 10
32.991939802699747
 20
88.543268521342242
 30
0.0
 11
32.320903544275708
 21
88.800952664268351
 31
0.0
  0
LINE
  8
default
 10
28.475905378546827
 20
71.505886957579079
 30
0.0
 11
31.891165516562573
 21
79.423349895087938
 31
0.0
  0
LINE
  8
default
 10
27.349806466638022
 20
71.604407846379956
 30
0.0
 11
28.475905378546827
 21
71.505886957579079
 31
0.0
  0
LINE
  8
default
 10
26.212532682542577
 20
72.018341652001993
 30
0.0
 11
27.349806466638022
 21
71.604407846379956
 31
0.0
  0
LINE
  8
default
 10
31.891165516562573
 20
79.423349895087938
 30
0.0
 11
34.391264782006324
 21
85.219231460275111
 31
0.0
  0
LINE
  8
default
 10
26.622295103810902
 20
81.341061893535397
 30
0.0
 11
24.149289077960539
 21
73.080646506083426
 31
0.0
  0
LINE
  8
default
 10
25.075258898447117
 20
72.43227545762403
 30
0.0
 11
24.733238755121455
 21
71.49258283683811
 31
0.0
  0
LINE
  8
default
 10
27.007786323312356
 20
70.664715225594051
 30
0.0
 11
27.349806466638022
 21
71.604407846379956
 31
0.0
  0
LINE
  8
default
 10
16.49683503365069
 20
74.853574201007859
 30
0.0
 11
17.674473761018234
 21
74.574468695451827
 31
0.0
  0
LINE
  8
default
 10
15.50185500538192
 20
75.390062661534813
 30
0.0
 11
16.49683503365069
 21
74.853574201007859
 31
0.0
  0
LINE
  8
default
 10
18.095250247274006
 20
90.097937947960475
 30
0.0
 11
16.999163754969263
 21
83.88172255142409
 31
0.0
  0
LINE
  8
default
 10
21.793199785160599
 20
91.952740269793352
 30
0.0
 11
21.090957420186804
 21
92.106188757799288
 31
0.0
  0
LINE
  8
default
 10
22.489614039539155
 20
91.774701049581424
 30
0.0
 11
21.793199785160599
 21
91.952740269793352
 31
0.0
  0
LINE
  8
default
 10
19.982034699388162
 20
74.328240568376657
 30
0.0
 11
22.455040725238536
 21
82.588655955828671
 31
0.0
  0
LINE
  8
default
 10
18.852112488385774
 20
74.295363189895795
 30
0.0
 11
19.982034699388162
 21
74.328240568376657
 31
0.0
  0
LINE
  8
default
 10
17.674473761018234
 20
74.574468695451827
 30
0.0
 11
18.852112488385774
 21
74.295363189895795
 31
0.0
  0
LINE
  8
default
 10
22.455040725238536
 20
82.588655955828671
 30
0.0
 11
24.26537443301245
 21
88.635591652629685
 31
0.0
  0
LINE
  8
default
 10
16.999163754969263
 20
83.88172255142409
 30
0.0
 11
15.50185500538192
 21
75.390062661534813
 31
0.0
  0
LINE
  8
default
 10
16.49683503365069
 20
74.853574201007859
 30
0.0
 11
16.266219162908254
 21
73.880529330428033
 31
0.0
  0
LINE
  8
default
 10
18.621496617643334
 20
73.322318319315968
 30
0.0
 11
18.852112488385774
 21
74.295363189895795
 31
0.0
  0
LINE
  8
default
 10
7.6953197750788185
 20
76.262606763423435
 30
0.0
 11
8.8973979021510594
 21
76.122103981095051
 31
0.0
  0
LINE
  8
default
 10
6.6447849370379721
 20
76.67995754992657
 30
0.0
 11
7.6953197750788185
 21
76.262606763423435
 31
0.0
  0
LINE
  8
default
 10
7.5131644654790293
 20
91.589458256399098
 30
0.0
 11
7.1461478781331742
 21
85.288026809548143
 31
0.0
  0
LINE
  8
default
 10
10.970780384834271
 20
93.861024806613614
 30
0.0
 11
10.255472049370155
 21
93.9319103682666
 31
0.0
  0
LINE
  8
default
 10
11.683154827064282
 20
93.765038184145823
 30
0.0
 11
10.970780384834271
 21
93.861024806613614
 31
0.0
  0
LINE
  8
default
 10
11.217941279778817
 20
76.14543223438595
 30
0.0
 11
12.715250029366175
 21
84.637092124275256
 31
0.0
  0
LINE
  8
default
 10
10.0994760292233
 20
75.981601198766654
 30
0.0
 11
11.217941279778817
 21
76.14543223438595
 31
0.0
  0
LINE
  8
default
 10
8.8973979021510594
 20
76.122103981095051
 30
0.0
 11
10.0994760292233
 21
75.981601198766654
 31
0.0
  0
LINE
  8
default
 10
12.715250029366175
 20
84.637092124275256
 30
0.0
 11
13.811336521670903
 21
90.85330752081164
 31
0.0
  0
LINE
  8
default
 10
7.1461478781331742
 20
85.288026809548143
 30
0.0
 11
6.6447849370379721
 21
76.67995754992657
 31
0.0
  0
LINE
  8
default
 10
7.6953197750788185
 20
76.262606763423435
 30
0.0
 11
7.5792268609535824
 21
75.269368405681476
 31
0.0
  0
LINE
  8
default
 10
9.983383115098075
 20
74.988362841024724
 30
0.0
 11
10.0994760292233
 21
75.981601198766654
 31
0.0
  0
LINE
  8
default
 10
-1.2102614822539408
 20
76.640318396636687
 30
0.0
 11
1.4210854715202004e-014
 21
76.640318396636687
 31
0.0
  0
LINE
  8
default
 10
-2.3021444485579252
 20
76.932887555687159
 30
0.0
 11
-1.2102614822539408
 21
76.640318396636687
 31
0.0
  0
LINE
  8
default
 10
-3.1705239769989859
 20
91.842388262159659
 30
0.0
 11
-2.8035073896531415
 21
85.540956815308732
 31
0.0
  0
LINE
  8
default
 10
7.1054273576010019e-015
 20
94.5
 30
0.0
 11
-0.71870098781719349
 21
94.487364029681729
 31
0.0
  0
LINE
  8
default
 10
0.7187009878172077
 20
94.487364029681714
 30
0.0
 11
7.1054273576010019e-015
 21
94.5
 31
0.0
  0
LINE
  8
default
 10
2.3021444485579536
 20
76.932887555687145
 30
0.0
 11
2.8035073896531628
 21
85.540956815308732
 31
0.0
  0
LINE
  8
default
 10
1.2102614822539621
 20
76.640318396636687
 30
0.0
 11
2.3021444485579536
 21
76.932887555687145
 31
0.0
  0
LINE
  8
default
 10
1.4210854715202004e-014
 20
76.640318396636687
 30
0.0
 11
1.2102614822539621
 21
76.640318396636687
 31
0.0
  0
LINE
  8
default
 10
2.8035073896531628
 20
85.540956815308732
 30
0.0
 11
3.1705239769990072
 21
91.842388262159673
 31
0.0
  0
LINE
  8
default
 10
-2.8035073896531415
 20
85.540956815308732
 30
0.0
 11
-2.3021444485579252
 21
76.932887555687159
 31
0.0
  0
LINE
  8
default
 10
-1.2102614822539408
 20
76.640318396636687
 30
0.0
 11
-1.2102614822539408
 21
75.640318396636687
 31
0.0
  0
LINE
  8
default
 10
1.2102614822539621
 20
75.640318396636687
 30
0.0
 11
1.2102614822539621
 21
76.640318396636687
 31
0.0
  0
LINE
  8
default
 10
-10.099476029223272
 20
75.981601198766668
 30
0.0
 11
-8.8973979021510345
 21
76.122103981095051
 31
0.0
  0
LINE
  8
default
 10
-11.217941279778785
 20
76.14543223438595
 30
0.0
 11
-10.099476029223272
 21
75.981601198766668
 31
0.0
  0
LINE
  8
default
 10
-13.811336521670874
 20
90.853307520811626
 30
0.0
 11
-12.715250029366139
 21
84.637092124275256
 31
0.0
  0
LINE
  8
default
 10
-10.970780384834249
 20
93.861024806613614
 30
0.0
 11
-11.683154827064271
 21
93.765038184145851
 31
0.0
  0
LINE
  8
default
 10
-10.255472049370127
 20
93.931910368266585
 30
0.0
 11
-10.970780384834249
 21
93.861024806613614
 31
0.0
  0
LINE
  8
default
 10
-6.6447849370379473
 20
76.67995754992657
 30
0.0
 11
-7.1461478781331493
 21
85.288026809548171
 31
0.0
  0
LINE
  8
default
 10
-7.6953197750787901
 20
76.262606763423435
 30
0.0
 11
-6.6447849370379473
 21
76.67995754992657
 31
0.0
  0
LINE
  8
default
 10
-8.8973979021510345
 20
76.122103981095051
 30
0.0
 11
-7.6953197750787901
 21
76.262606763423435
 31
0.0
  0
LINE
  8
default
 10
-7.1461478781331493
 20
85.288026809548171
 30
0.0
 11
-7.5131644654790009
 21
91.589458256399112
 31
0.0
  0
LINE
  8
default
 10
-12.715250029366139
 20
84.637092124275256
 30
0.0
 11
-11.217941279778785
 21
76.14543223438595
 31
0.0
  0
LINE
  8
default
 10
-10.099476029223272
 20
75.981601198766668
 30
0.0
 11
-9.983383115098043
 21
74.988362841024724
 31
0.0
  0
LINE
  8
default
 10
-7.579226860953554
 20
75.26936840568149
 30
0.0
 11
-7.6953197750787901
 21
76.262606763423435
 31
0.0
  0
LINE
  8
default
 10
-18.852112488385753
 20
74.295363189895809
 30
0.0
 11
-17.674473761018206
 21
74.574468695451841
 31
0.0
  0
LINE
  8
default
 10
-19.982034699388134
 20
74.328240568376671
 30
0.0
 11
-18.852112488385753
 21
74.295363189895809
 31
0.0
  0
LINE
  8
default
 10
-24.265374433012411
 20
88.635591652629671
 30
0.0
 11
-22.455040725238504
 21
82.588655955828642
 31
0.0
  0
LINE
  8
default
 10
-21.793199785160581
 20
91.952740269793367
 30
0.0
 11
-22.489614039539141
 21
91.774701049581452
 31
0.0
  0
LINE
  8
default
 10
-21.090957420186783
 20
92.106188757799259
 30
0.0
 11
-21.793199785160581
 21
91.952740269793367
 31
0.0
  0
LINE
  8
default
 10
-15.501855005381898
 20
75.390062661534813
 30
0.0
 11
-16.999163754969253
 21
83.881722551424104
 31
0.0
  0
LINE
  8
default
 10
-16.496835033650669
 20
74.853574201007859
 30
0.0
 11
-15.501855005381898
 21
75.390062661534813
 31
0.0
  0
LINE
  8
default
 10
-17.674473761018206
 20
74.574468695451841
 30
0.0
 11
-16.496835033650669
 21
74.853574201007859
 31
0.0
  0
LINE
  8
default
 10
-16.999163754969253
 20
83.881722551424104
 30
0.0
 11
-18.095250247273981
 21
90.097937947960503
 31
0.0
  0
LINE
  8
default
 10
-22.455040725238504
 20
82.588655955828642
 30
0.0
 11
-19.982034699388134
 21
74.328240568376671
 31
0.0
  0
LINE
  8
default
 10
-18.852112488385753
 20
74.295363189895809
 30
0.0
 11
-18.621496617643313
 21
73.322318319315983
 31
0.0
  0
LINE
  8
default
 10
-16.266219162908236
 20
73.880529330428033
 30
0.0
 11
-16.496835033650669
 21
74.853574201007859
 31
0.0
  0
LINE
  8
default
 10
-27.349806466638015
 20
71.604407846379971
 30
0.0
 11
-26.212532682542559
 21
72.018341652001993
 31
0.0
  0
LINE
  8
default
 10
-28.475905378546816
 20
71.505886957579079
 30
0.0
 11
-27.349806466638015
 21
71.604407846379971
 31
0.0
  0
LINE
  8
default
 10
-34.391264782006296
 20
85.219231460275097
 30
0.0
 11
-31.891165516562552
 21
79.423349895087924
 31
0.0
  0
LINE
  8
default
 10
-32.320903544275687
 20
88.800952664268365
 30
0.0
 11
-32.991939802699733
 21
88.543268521342256
 31
0.0
  0
LINE
  8
default
 10
-31.641223773093003
 20
89.034888951065312
 30
0.0
 11
-32.320903544275687
 21
88.800952664268365
 31
0.0
  0
LINE
  8
default
 10
-24.149289077960525
 20
73.08064650608344
 30
0.0
 11
-26.622295103810892
 21
81.341061893535425
 31
0.0
  0
LINE
  8
default
 10
-25.075258898447107
 20
72.43227545762403
 30
0.0
 11
-24.149289077960525
 21
73.08064650608344
 31
0.0
  0
LINE
  8
default
 10
-26.212532682542559
 20
72.018341652001993
 30
0.0
 11
-25.075258898447107
 21
72.43227545762403
 31
0.0
  0
LINE
  8
default
 10
-26.622295103810892
 20
81.341061893535425
 30
0.0
 11
-28.432628811584806
 21
87.387997590336454
 31
0.0
  0
LINE
  8
default
 10
-31.891165516562552
 20
79.423349895087924
 30
0.0
 11
-28.475905378546816
 21
71.505886957579079
 31
0.0
  0
LINE
  8
default
 10
-27.349806466638015
 20
71.604407846379971
 30
0.0
 11
-27.007786323312352
 21
70.664715225594051
 31
0.0
  0
LINE
  8
default
 10
-24.733238755121434
 20
71.492582836838125
 30
0.0
 11
-25.075258898447107
 21
72.43227545762403
 31
0.0
  0
LINE
  8
default
 10
-35.477641230581263
 20
67.945125722949669
 30
0.0
 11
-34.396112066712931
 21
68.488290084013428
 31
0.0
  0
LINE
  8
default
 10
-36.58468828741745
 20
67.716538892877054
 30
0.0
 11
-35.477641230581263
 21
67.945125722949669
 31
0.0
  0
LINE
  8
default
 10
-44.052072272484097
 20
80.650427354638651
 30
0.0
 11
-40.896017003055618
 21
75.183979276493034
 31
0.0
  0
LINE
  8
default
 10
-42.411522528943664
 20
84.448284510562473
 30
0.0
 11
-43.048106177169899
 21
84.114440180902278
 31
0.0
  0
LINE
  8
default
 10
-41.763596854477655
 20
84.759545009185501
 30
0.0
 11
-42.411522528943664
 21
84.448284510562473
 31
0.0
  0
LINE
  8
default
 10
-32.470145443476
 20
69.782939975308736
 30
0.0
 11
-35.885405581491746
 21
77.700402912817594
 31
0.0
  0
LINE
  8
default
 10
-33.314582902844606
 20
69.031454445077202
 30
0.0
 11
-32.470145443476
 21
69.782939975308736
 31
0.0
  0
LINE
  8
default
 10
-34.396112066712931
 20
68.488290084013428
 30
0.0
 11
-33.314582902844606
 21
69.031454445077202
 31
0.0
  0
LINE
  8
default
 10
-35.885405581491746
 20
77.700402912817594
 30
0.0
 11
-38.38550484693549
 21
83.496284478004767
 31
0.0
  0
LINE
  8
default
 10
-40.896017003055618
 20
75.183979276493034
 30
0.0
 11
-36.58468828741745
 21
67.716538892877054
 31
0.0
  0
LINE
  8
default
 10
-35.477641230581263
 20
67.945125722949669
 30
0.0
 11
-35.028842050380788
 21
67.051493082626251
 31
0.0
  0
LINE
  8
default
 10
-32.865783722644146
 20
68.13782180475377
 30
0.0
 11
-33.314582902844606
 21
69.031454445077202
 31
0.0
  0
LINE
  8
layer10
 10
1.9072025337675136
 20
60.026270413378143
 30
0.0
 11
2.2806543376925283
 21
60.169566284355753
 31
0.0
  0
LINE
  8
layer10
 10
26.428055024928668
 20
68.363991728631575
 30
0.0
 11
32.696352762391108
 21
65.618992471509756
 31
0.0
  0
LINE
  8
layer10
 10
32.675616305825137
 20
64.724940566013217
 30
0.0
 11
27.439851635989129
 21
62.715943794684236
 31
0.0
  0
LINE
  8
layer10
 10
25.984041208368449
 20
62.157339916705006
 30
0.0
 11
3.2244825278977842
 21
53.424350030937227
 31
0.0
  0
LINE
  8
layer10
 10
0.91952886796574873
 20
55.028580879990969
 30
0.0
 11
0.96192499053763214
 21
58.66809870452704
 31
0.0
  0
LINE
  8
layer10
 10
3.5614517802900423
 20
60.661016547404294
 30
0.0
 11
3.9978825167398853
 21
60.82847784399366
 31
0.0
  0
LINE
  8
layer10
 10
5.8884518834458923
 20
54.59648467796228
 30
0.0
 11
3.5614517802900423
 21
60.661016547404294
 31
0.0
  0
LINE
  8
layer10
 10
2.2806543376925283
 20
60.169566284355753
 30
0.0
 11
3.5614517802900423
 21
60.661016547404294
 31
0.0
  0
LINE
  8
layer10
 10
22.036254685750922
 20
67.749917924856504
 30
0.0
 11
23.606887550974498
 21
68.352579914250725
 31
0.0
  0
LINE
  8
layer10
 10
23.606887550974498
 20
68.352579914250725
 30
0.0
 11
23.795743170391898
 21
68.425045032885663
 31
0.0
  0
LINE
  8
layer10
 10
23.606887550974498
 20
68.352579914250725
 30
0.0
 11
25.302455687759061
 21
63.933660040377482
 31
0.0
  0
LINE
  8
layer10
 10
25.933887654130309
 20
62.288048044808718
 30
0.0
 11
5.8884518834458923
 21
54.59648467796228
 31
0.0
  0
LINE
  8
layer10
 10
25.302455687759061
 20
63.933660040377482
 30
0.0
 11
25.933887654130309
 21
62.288048044808718
 31
0.0
  0
LINE
  8
layer10
 10
27.439851635989129
 20
62.715943794684236
 30
0.0
 11
25.302455687759061
 21
63.933660040377482
 31
0.0
  0
LINE
  8
layer10
 10
25.933887654130309
 20
62.288048044808718
 30
0.0
 11
25.984041208368449
 21
62.157339916705006
 31
0.0
  0
LINE
  8
layer10
 10
-1.9072025337675242
 20
60.026270413378136
 30
0.0
 11
-2.2806543376924822
 21
60.169566284355724
 31
0.0
  0
LINE
  8
layer10
 10
-26.4280550249287
 20
68.363991728631618
 30
0.0
 11
-32.696352762391115
 21
65.618992471509756
 31
0.0
  0
LINE
  8
layer10
 10
-32.675616305825159
 20
64.724940566013231
 30
0.0
 11
-27.439851635989111
 21
62.715943794684222
 31
0.0
  0
LINE
  8
layer10
 10
-25.984041208368446
 20
62.15733991670502
 30
0.0
 11
-3.2244825278977771
 21
53.424350030937212
 31
0.0
  0
LINE
  8
layer10
 10
-0.9195288679657061
 20
55.028580879990962
 30
0.0
 11
-0.96192499053765701
 21
58.668098704527011
 31
0.0
  0
LINE
  8
layer10
 10
-2.2806543376924822
 20
60.169566284355724
 30
0.0
 11
-3.56145178029006
 21
60.66101654740428
 31
0.0
  0
LINE
  8
layer10
 10
-22.036254685750915
 20
67.749917924856504
 30
0.0
 11
-23.606887550974481
 21
68.352579914250697
 31
0.0
  0
LINE
  8
layer10
 10
-23.606887550974481
 20
68.352579914250697
 30
0.0
 11
-23.795743170391869
 21
68.425045032885663
 31
0.0
  0
LINE
  8
layer10
 10
-23.606887550974481
 20
68.352579914250697
 30
0.0
 11
-25.302455687759057
 21
63.933660040377461
 31
0.0
  0
LINE
  8
layer10
 10
-25.933887654130292
 20
62.288048044808711
 30
0.0
 11
-5.8884518802534984
 21
54.596484686282238
 31
0.0
  0
LINE
  8
layer10
 10
-25.302455687759057
 20
63.933660040377461
 30
0.0
 11
-25.933887654130292
 21
62.288048044808711
 31
0.0
  0
LINE
  8
layer10
 10
-27.439851635989111
 20
62.715943794684222
 30
0.0
 11
-25.302455687759057
 21
63.933660040377461
 31
0.0
  0
LINE
  8
layer10
 10
-25.933887654130292
 20
62.288048044808711
 30
0.0
 11
-25.984041208368446
 21
62.15733991670502
 31
0.0
  0
LINE
  8
layer10
 10
-3.56145178029006
 20
60.66101654740428
 30
0.0
 11
-3.9978058311690887
 21
60.828448419244111
 31
0.0
  0
LINE
  8
layer10
 10
-5.8884518802534984
 20
54.596484686282238
 30
0.0
 11
-3.56145178029006
 21
60.66101654740428
 31
0.0
  0
LINE
  8
layer10
 10
9.0283808252975248
 20
62.758712584320151
 30
0.0
 11
22.036254685750922
 21
67.749917924856504
 31
0.0
  0
LINE
  8
layer10
 10
-9.0283482320258308
 20
62.758700078070973
 30
0.0
 11
-22.036254685750915
 21
67.749917924856504
 31
0.0
  0
LINE
  8
layer10
 10
-3.9978058311690887
 20
60.828448419244111
 30
0.0
 11
-7.3399142954182111
 21
62.110837055109201
 31
0.0
  0
LINE
  8
layer10
 10
-7.3399142954182111
 20
62.110837055109201
 30
0.0
 11
-7.9297048166802426
 21
62.337143493125197
 31
0.0
  0
LINE
  8
layer10
 10
-8.8785901774714695
 20
62.701236943841749
 30
0.0
 11
-9.0283482320258308
 21
62.758700078070973
 31
0.0
  0
LINE
  8
layer10
 10
-8.2579806509741367
 20
62.463105054166945
 30
0.0
 11
-8.8785901774714695
 21
62.701236943841749
 31
0.0
  0
LINE
  8
layer10
 10
-8.2116870762536749
 20
62.445341910100794
 30
0.0
 11
-8.2363853053103853
 21
62.454818780348184
 31
0.0
  0
LINE
  8
layer10
 10
3.9978825167398853
 20
60.82847784399366
 30
0.0
 11
5.747287456300807
 21
61.499735835174157
 31
0.0
  0
LINE
  8
layer10
 10
5.747287456300807
 20
61.499735835174157
 30
0.0
 11
9.0283808252975248
 21
62.758712584320151
 31
0.0
  0
LINE
  8
layer10
 10
-8.0794986376803131
 20
62.394620351171
 30
0.0
 11
-8.098175325616392
 21
62.401786717140581
 31
0.0
  0
LINE
  8
layer10
 10
-8.1784084765736367
 20
62.432572696143907
 30
0.0
 11
-8.2116870762536749
 21
62.445341910100794
 31
0.0
  0
LINE
  8
layer10
 10
-8.0187126406181193
 20
62.371296370909413
 30
0.0
 11
-8.039536325290527
 21
62.379286553414367
 31
0.0
  0
LINE
  8
layer10
 10
-8.2363853053103853
 20
62.454818780348184
 30
0.0
 11
-8.2579806509741367
 21
62.463105054166945
 31
0.0
  0
LINE
  8
layer10
 10
-8.1206332809070574
 20
62.410403979852894
 30
0.0
 11
-8.1784084765736367
 21
62.432572696143907
 31
0.0
  0
LINE
  8
layer10
 10
-8.098175325616392
 20
62.401786717140581
 30
0.0
 11
-8.1206332809070574
 21
62.410403979852894
 31
0.0
  0
LINE
  8
layer10
 10
-7.9297048166802426
 20
62.337143493125197
 30
0.0
 11
-7.9698734011445858
 21
62.352556438811121
 31
0.0
  0
LINE
  8
layer10
 10
-8.039536325290527
 20
62.379286553414367
 30
0.0
 11
-8.0794986376803131
 21
62.394620351171
 31
0.0
  0
LINE
  8
layer10
 10
-7.9698734011445858
 20
62.352556438811121
 30
0.0
 11
-8.0187126406181193
 21
62.371296370909413
 31
0.0
  0
LINE
  8
default
 10
-43.125701758202737
 20
63.367002332884773
 30
0.0
 11
-42.114543041157006
 21
64.032051883196587
 31
0.0
  0
LINE
  8
default
 10
-44.19872604764398
 20
63.011440806280135
 30
0.0
 11
-43.125701758202737
 21
63.367002332884773
 31
0.0
  0
LINE
  8
default
 10
-53.117151056096652
 20
74.99096457353923
 30
0.0
 11
-49.347820016040529
 21
69.92787431508853
 31
0.0
  0
LINE
  8
default
 10
-51.928598427691149
 20
78.953598178522498
 30
0.0
 11
-52.522120763926331
 21
78.548108333982299
 31
0.0
  0
LINE
  8
default
 10
-51.32118893318291
 20
79.337973624690093
 30
0.0
 11
-51.928598427691149
 21
78.953598178522498
 31
0.0
  0
LINE
  8
default
 10
-40.351898793879741
 20
65.541538892877043
 30
0.0
 11
-44.663227509517924
 21
73.008979276493051
 31
0.0
  0
LINE
  8
default
 10
-41.103384324111275
 20
64.697101433508422
 30
0.0
 11
-40.351898793879741
 21
65.541538892877043
 31
0.0
  0
LINE
  8
default
 10
-42.114543041157006
 20
64.032051883196587
 30
0.0
 11
-41.103384324111275
 21
64.697101433508422
 31
0.0
  0
LINE
  8
default
 10
-44.663227509517924
 20
73.008979276493051
 30
0.0
 11
-47.819282778946395
 21
78.475427354638654
 31
0.0
  0
LINE
  8
default
 10
-49.347820016040529
 20
69.92787431508853
 30
0.0
 11
-44.19872604764398
 21
63.011440806280135
 31
0.0
  0
LINE
  8
default
 10
-43.125701758202737
 20
63.367002332884773
 30
0.0
 11
-42.576192780131933
 21
62.531514521471834
 31
0.0
  0
LINE
  8
default
 10
-40.553875346040471
 20
63.86161362209549
 30
0.0
 11
-41.103384324111275
 21
64.697101433508422
 31
0.0
  0
LINE
  8
default
 10
-50.190561150990966
 20
57.931948941339016
 30
0.0
 11
-49.263447067789393
 21
58.709890026612726
 31
0.0
  0
LINE
  8
default
 10
-51.21505186027845
 20
57.454221077889628
 30
0.0
 11
-50.190561150990966
 21
57.931948941339016
 31
0.0
  0
LINE
  8
default
 10
-61.46391149329223
 20
68.317377642374026
 30
0.0
 11
-57.132278418698547
 21
63.72611481371402
 31
0.0
  0
LINE
  8
default
 10
-60.74342911537795
 20
72.39119987474345
 30
0.0
 11
-61.285863768202482
 21
71.919548069859331
 31
0.0
  0
LINE
  8
default
 10
-60.184749972239501
 20
72.843492249936077
 30
0.0
 11
-60.74342911537795
 21
72.39119987474345
 31
0.0
  0
LINE
  8
default
 10
-47.687961936128424
 20
60.413800932373029
 30
0.0
 11
-52.837055904524981
 21
67.330234441181432
 31
0.0
  0
LINE
  8
default
 10
-48.336332984587813
 20
59.487831111886429
 30
0.0
 11
-47.687961936128424
 21
60.413800932373029
 31
0.0
  0
LINE
  8
default
 10
-49.263447067789393
 20
58.709890026612726
 30
0.0
 11
-48.336332984587813
 21
59.487831111886429
 31
0.0
  0
LINE
  8
default
 10
-52.837055904524981
 20
67.330234441181432
 30
0.0
 11
-56.606386944581111
 21
72.393324699632132
 31
0.0
  0
LINE
  8
default
 10
-57.132278418698547
 20
63.72611481371402
 30
0.0
 11
-51.21505186027845
 21
57.454221077889628
 31
0.0
  0
LINE
  8
default
 10
-50.190561150990966
 20
57.931948941339016
 30
0.0
 11
-49.547773541304423
 21
57.165904498220044
 31
0.0
  0
LINE
  8
default
 10
-47.693545374901277
 20
58.721786668767457
 30
0.0
 11
-48.336332984587813
 21
59.487831111886429
 31
0.0
  0
LINE
  8
default
 10
-56.576679305310918
 20
51.713465321686549
 30
0.0
 11
-55.746147483479533
 21
52.593777623289206
 31
0.0
  0
LINE
  8
default
 10
-57.538781955098841
 20
51.120031571211108
 30
0.0
 11
-56.576679305310918
 21
51.713465321686549
 31
0.0
  0
LINE
  8
default
 10
-68.979477967890745
 20
60.719915375956184
 30
0.0
 11
-64.144120765246655
 21
56.662568930607094
 31
0.0
  0
LINE
  8
default
 10
-68.736809128653078
 20
64.849834778595323
 30
0.0
 11
-69.220820599925432
 21
64.318399294917327
 31
0.0
  0
LINE
  8
default
 10
-68.234415513890312
 20
65.363927604338798
 30
0.0
 11
-68.736809128653078
 21
64.849834778595323
 31
0.0
  0
LINE
  8
default
 10
-54.379127201121207
 20
54.469069953160627
 30
0.0
 11
-60.296353759541319
 21
60.740963688985047
 31
0.0
  0
LINE
  8
default
 10
-54.915615661648133
 20
53.47408992489185
 30
0.0
 11
-54.379127201121207
 21
54.469069953160627
 31
0.0
  0
LINE
  8
default
 10
-55.746147483479533
 20
52.593777623289206
 30
0.0
 11
-54.915615661648133
 21
53.47408992489185
 31
0.0
  0
LINE
  8
default
 10
-60.296353759541319
 20
60.740963688985047
 30
0.0
 11
-64.627986834134987
 21
65.33222651764504
 31
0.0
  0
LINE
  8
default
 10
-64.144120765246655
 20
56.662568930607094
 30
0.0
 11
-57.538781955098841
 21
51.120031571211108
 31
0.0
  0
LINE
  8
default
 10
-56.576679305310918
 20
51.713465321686549
 30
0.0
 11
-55.849305663737866
 21
51.027223683817809
 31
0.0
  0
LINE
  8
default
 10
-54.188242020075087
 20
52.787848287023117
 30
0.0
 11
-54.915615661648133
 21
53.47408992489185
 31
0.0
  0
LINE
  8
default
 10
-62.197694928408218
 20
44.795645797174728
 30
0.0
 11
-61.474976886073328
 21
45.766424601388721
 31
0.0
  0
LINE
  8
default
 10
-63.084398730829783
 20
44.094531333122362
 30
0.0
 11
-62.197694928408218
 21
44.795645797174728
 31
0.0
  0
LINE
  8
default
 10
-75.56221533615647
 20
52.301320418114926
 30
0.0
 11
-70.288523916650362
 21
48.832759006437669
 31
0.0
  0
LINE
  8
default
 10
-75.800641715351617
 20
56.431486915913318
 30
0.0
 11
-76.219684580236702
 21
55.847454506689118
 31
0.0
  0
LINE
  8
default
 10
-75.361327640756031
 20
57.00042796865737
 30
0.0
 11
-75.800641715351617
 21
56.431486915913318
 31
0.0
  0
LINE
  8
default
 10
-60.334908057235289
 20
47.78773824364356
 30
0.0
 11
-66.940246867383124
 21
53.330275603039574
 31
0.0
  0
LINE
  8
default
 10
-60.752258843738424
 20
46.737203405602699
 30
0.0
 11
-60.334908057235289
 21
47.78773824364356
 31
0.0
  0
LINE
  8
default
 10
-61.474976886073328
 20
45.766424601388721
 30
0.0
 11
-60.752258843738424
 21
46.737203405602699
 31
0.0
  0
LINE
  8
default
 10
-66.940246867383124
 20
53.330275603039574
 30
0.0
 11
-71.775604070027214
 21
57.387622048388629
 31
0.0
  0
LINE
  8
default
 10
-70.288523916650362
 20
48.832759006437669
 30
0.0
 11
-63.084398730829783
 21
44.094531333122362
 31
0.0
  0
LINE
  8
default
 10
-62.197694928408218
 20
44.795645797174728
 30
0.0
 11
-61.395571735653178
 21
44.198487205471935
 31
0.0
  0
LINE
  8
default
 10
-59.950135650983384
 20
46.14004481389992
 30
0.0
 11
-60.752258843738424
 21
46.737203405602699
 31
0.0
  0
LINE
  8
default
 10
-66.977593426742189
 20
37.27204200946462
 30
0.0
 11
-66.372462685615204
 21
38.320159198318365
 31
0.0
  0
LINE
  8
default
 10
-67.776907233995729
 20
36.472728202211108
 30
0.0
 11
-66.977593426742189
 21
37.27204200946462
 31
0.0
  0
LINE
  8
default
 10
-81.123103367763491
 20
43.17543982369105
 30
0.0
 11
-75.482395360911525
 21
40.342569788517352
 31
0.0
  0
LINE
  8
default
 10
-81.839400657629426
 20
47.250000000000014
 30
0.0
 11
-82.187808080240941
 21
46.621268701666196
 31
0.0
  0
LINE
  8
default
 10
-81.469107092423741
 20
47.866095328015547
 30
0.0
 11
-81.839400657629426
 21
47.250000000000014
 31
0.0
  0
LINE
  8
default
 10
-65.47476278543779
 20
40.46015935347608
 30
0.0
 11
-72.678887971258391
 21
45.198387026791409
 31
0.0
  0
LINE
  8
default
 10
-65.767331944488234
 20
39.368276387172088
 30
0.0
 11
-65.47476278543779
 21
40.46015935347608
 31
0.0
  0
LINE
  8
default
 10
-66.372462685615204
 20
38.320159198318365
 30
0.0
 11
-65.767331944488234
 21
39.368276387172088
 31
0.0
  0
LINE
  8
default
 10
-72.678887971258391
 20
45.198387026791409
 30
0.0
 11
-77.952579390764498
 21
48.666948438468651
 31
0.0
  0
LINE
  8
default
 10
-75.482395360911525
 20
40.342569788517352
 30
0.0
 11
-67.776907233995729
 21
36.472728202211108
 31
0.0
  0
LINE
  8
default
 10
-66.977593426742189
 20
37.27204200946462
 30
0.0
 11
-66.111568022957755
 21
36.772042009464627
 31
0.0
  0
LINE
  8
default
 10
-64.9013065407038
 20
38.868276387172088
 30
0.0
 11
-65.767331944488234
 21
39.368276387172088
 31
0.0
  0
LINE
  8
default
 10
-70.851734872961728
 20
29.244397793164001
 30
0.0
 11
-70.372374788224363
 21
30.355679379706359
 31
0.0
  0
LINE
  8
default
 10
-71.552849337014095
 20
28.357693990742437
 30
0.0
 11
-70.851734872961728
 21
29.244397793164001
 31
0.0
  0
LINE
  8
default
 10
-85.586940591698095
 20
33.46568547242304
 30
0.0
 11
-79.65549689674927
 21
31.306816521235731
 31
0.0
  0
LINE
  8
default
 10
-86.771422100185902
 20
37.429537890700345
 30
0.0
 11
-87.04448246782033
 21
36.764610215488482
 31
0.0
  0
LINE
  8
default
 10
-86.475156629606829
 20
38.08445586157751
 30
0.0
 11
-86.771422100185902
 21
37.429537890700345
 31
0.0
  0
LINE
  8
default
 10
-69.729183667867744
 20
32.585426216804251
 30
0.0
 11
-77.434671794783554
 21
36.455267803110523
 31
0.0
  0
LINE
  8
default
 10
-69.893014703487026
 20
31.466960966248735
 30
0.0
 11
-69.729183667867744
 21
32.585426216804251
 31
0.0
  0
LINE
  8
default
 10
-70.372374788224363
 20
30.355679379706359
 30
0.0
 11
-69.893014703487026
 21
31.466960966248735
 31
0.0
  0
LINE
  8
default
 10
-77.434671794783554
 20
36.455267803110523
 30
0.0
 11
-83.075379801635506
 21
39.288137838284207
 31
0.0
  0
LINE
  8
default
 10
-79.65549689674927
 20
31.306816521235731
 30
0.0
 11
-71.552849337014095
 21
28.357693990742437
 31
0.0
  0
LINE
  8
default
 10
-70.851734872961728
 20
29.244397793164001
 30
0.0
 11
-69.933518766081448
 21
28.848318027124833
 31
0.0
  0
LINE
  8
default
 10
-68.974798596606746
 20
31.070881200209584
 30
0.0
 11
-69.893014703487026
 21
31.466960966248735
 31
0.0
  0
LINE
  8
default
 10
-73.767728150033918
 20
20.821273265003978
 30
0.0
 11
-73.420621244497752
 21
21.980691072162667
 31
0.0
  0
LINE
  8
default
 10
-74.361161900509359
 20
19.859170615216065
 30
0.0
 11
-73.767728150033918
 21
20.821273265003978
 31
0.0
  0
LINE
  8
default
 10
-88.893361267147426
 20
23.303365134984674
 30
0.0
 11
-82.751394484779823
 21
21.847692266843637
 31
0.0
  0
LINE
  8
default
 10
-90.530008913813688
 20
27.102905491198051
 30
0.0
 11
-90.724029553429489
 21
26.410773445242668
 31
0.0
  0
LINE
  8
default
 10
-90.311778020112214
 20
27.787789462881982
 30
0.0
 11
-90.530008913813688
 21
27.102905491198051
 31
0.0
  0
LINE
  8
default
 10
-73.040636960480754
 20
24.27003109032373
 30
0.0
 11
-81.143284520215929
 21
27.219153620817021
 31
0.0
  0
LINE
  8
default
 10
-73.073514338961601
 20
23.140108879321339
 30
0.0
 11
-73.040636960480754
 21
24.27003109032373
 31
0.0
  0
LINE
  8
default
 10
-73.420621244497752
 20
21.980691072162667
 30
0.0
 11
-73.073514338961601
 21
23.140108879321339
 31
0.0
  0
LINE
  8
default
 10
-81.143284520215929
 20
27.219153620817021
 30
0.0
 11
-87.074728215164768
 21
29.378022572004344
 31
0.0
  0
LINE
  8
default
 10
-82.751394484779823
 20
21.847692266843637
 30
0.0
 11
-74.361161900509359
 21
19.859170615216065
 31
0.0
  0
LINE
  8
default
 10
-73.767728150033918
 20
20.821273265003978
 30
0.0
 11
-72.809738637718411
 21
20.534470032292887
 31
0.0
  0
LINE
  8
default
 10
-72.115524826646109
 20
22.853305646610245
 30
0.0
 11
-73.073514338961601
 21
23.140108879321339
 31
0.0
  0
LINE
  8
default
 10
-75.686139451225841
 20
12.116576734493552
 30
0.0
 11
-75.475979750331959
 21
13.308451625389292
 31
0.0
  0
LINE
  8
default
 10
-76.163867314675244
 20
11.092086025206076
 30
0.0
 11
-75.686139451225841
 21
12.116576734493552
 31
0.0
  0
LINE
  8
default
 10
-90.997651726587407
 20
12.825906760643008
 30
0.0
 11
-84.72822142108754
 21
12.09311545390652
 31
0.0
  0
LINE
  8
default
 10
-93.064332659653672
 20
16.409752789524937
 30
0.0
 11
-93.176689774939263
 21
15.699776271406208
 31
0.0
  0
LINE
  8
default
 10
-92.927087541295492
 20
17.115340881206016
 30
0.0
 11
-93.064332659653672
 21
16.409752789524937
 31
0.0
  0
LINE
  8
default
 10
-75.364340938238996
 20
15.62642542819383
 30
0.0
 11
-83.754573522509475
 21
17.614947079821409
 31
0.0
  0
LINE
  8
default
 10
-75.265820049438091
 20
14.500326516285035
 30
0.0
 11
-75.364340938238996
 21
15.62642542819383
 31
0.0
  0
LINE
  8
default
 10
-75.475979750331959
 20
13.308451625389292
 30
0.0
 11
-75.265820049438091
 21
14.500326516285035
 31
0.0
  0
LINE
  8
default
 10
-83.754573522509475
 20
17.614947079821409
 30
0.0
 11
-89.896540304877064
 21
19.070619947962435
 31
0.0
  0
LINE
  8
default
 10
-84.72822142108754
 20
12.09311545390652
 30
0.0
 11
-76.163867314675244
 21
11.092086025206076
 31
0.0
  0
LINE
  8
default
 10
-75.686139451225841
 20
12.116576734493552
 30
0.0
 11
-74.701331698213636
 21
11.942928556826622
 31
0.0
  0
LINE
  8
default
 10
-74.281012296425871
 20
14.326678338618102
 30
0.0
 11
-75.265820049438091
 21
14.500326516285035
 31
0.0
  0
LINE
  8
default
 10
-76.581025554692559
 20
3.2480242894412541
 30
0.0
 11
-76.510655107869951
 21
4.4562382008168555
 31
0.0
  0
LINE
  8
default
 10
-76.936587081297205
 20
2.1750000000000114
 30
0.0
 11
-76.581025554692559
 21
3.2480242894412541
 31
0.0
  0
LINE
  8
default
 10
-91.871355051430513
 20
2.1750000000000185
 30
0.0
 11
-85.559244512573557
 21
2.1750000000000185
 31
0.0
  0
LINE
  8
default
 10
-94.340120956634848
 20
5.4946863320399899
 30
0.0
 11
-94.369295110352851
 21
4.776466556212192
 31
0.0
  0
LINE
  8
default
 10
-94.285717618404007
 20
6.2114366752032382
 30
0.0
 11
-94.340120956634848
 21
5.4946863320399899
 31
0.0
  0
LINE
  8
default
 10
-76.668871491119987
 20
6.7714991690286297
 30
0.0
 11
-85.233225597532311
 21
7.772528597729071
 31
0.0
  0
LINE
  8
default
 10
-76.440284661047357
 20
5.6644521121924534
 30
0.0
 11
-76.668871491119987
 21
6.7714991690286297
 31
0.0
  0
LINE
  8
default
 10
-76.510655107869951
 20
4.4562382008168555
 30
0.0
 11
-76.440284661047357
 21
5.6644521121924534
 31
0.0
  0
LINE
  8
default
 10
-85.233225597532311
 20
7.772528597729071
 30
0.0
 11
-91.502655903032178
 21
8.5053199044655514
 31
0.0
  0
LINE
  8
default
 10
-85.559244512573557
 20
2.1750000000000185
 30
0.0
 11
-76.936587081297205
 21
2.1750000000000114
 31
0.0
  0
LINE
  8
default
 10
-76.581025554692559
 20
3.2480242894412541
 30
0.0
 11
-75.582717396421273
 21
3.1898794605307828
 31
0.0
  0
LINE
  8
default
 10
-75.441976502776086
 20
5.6063072832819714
 30
0.0
 11
-76.440284661047357
 21
5.6644521121924534
 31
0.0
  0
LINE
  8
layer10
 10
-51.03067380553594
 20
31.664821051093789
 30
0.0
 11
-50.968045768097468
 21
32.059887735870781
 31
0.0
  0
LINE
  8
layer10
 10
-45.990926028639841
 20
57.069362888517006
 30
0.0
 11
-40.479538069871722
 21
61.125368339083089
 31
0.0
  0
LINE
  8
layer10
 10
-39.715634635692808
 20
60.660384088164207
 30
0.0
 11
-40.593674730519005
 21
55.121580490184691
 31
0.0
  0
LINE
  8
layer10
 10
-40.83781479534683
 20
53.581509737781289
 30
0.0
 11
-44.654603043514697
 21
29.504658798687167
 31
0.0
  0
LINE
  8
layer10
 10
-47.196384542295945
 20
28.310625799166971
 30
0.0
 11
-50.327101374584508
 21
30.16710083060422
 31
0.0
  0
LINE
  8
layer10
 10
-50.753255459295289
 20
33.414815989786632
 30
0.0
 11
-50.680065828067441
 21
33.87650674283924
 31
0.0
  0
LINE
  8
layer10
 10
-44.337716746720247
 20
32.397791259007604
 30
0.0
 11
-50.753255459295289
 21
33.414815989786632
 31
0.0
  0
LINE
  8
layer10
 10
-50.968045768097468
 20
32.059887735870781
 30
0.0
 11
-50.753255459295289
 21
33.414815989786632
 31
0.0
  0
LINE
  8
layer10
 10
-47.655022684360965
 20
52.958915324552422
 30
0.0
 11
-47.391626844459836
 21
54.620454280551897
 31
0.0
  0
LINE
  8
layer10
 10
-47.391626844459836
 20
54.620454280551897
 30
0.0
 11
-47.359955668377253
 21
54.820240603932277
 31
0.0
  0
LINE
  8
layer10
 10
-47.391626844459836
 20
54.620454280551897
 30
0.0
 11
-42.7169459080054
 21
53.879399423918152
 31
0.0
  0
LINE
  8
layer10
 10
-40.976088131884822
 20
53.603429549772834
 30
0.0
 11
-44.337716746720247
 21
32.397791259007604
 31
0.0
  0
LINE
  8
layer10
 10
-42.7169459080054
 20
53.879399423918152
 30
0.0
 11
-40.976088131884822
 21
53.603429549772834
 31
0.0
  0
LINE
  8
layer10
 10
-40.593674730519005
 20
55.121580490184691
 30
0.0
 11
-42.7169459080054
 21
53.879399423918152
 31
0.0
  0
LINE
  8
layer10
 10
-40.976088131884822
 20
53.603429549772834
 30
0.0
 11
-40.83781479534683
 21
53.581509737781289
 31
0.0
  0
LINE
  8
layer10
 10
-52.937876339303457
 20
28.361449362284347
 30
0.0
 11
-53.248700105789943
 21
28.109678548485
 31
0.0
  0
LINE
  8
layer10
 10
-72.418981053568558
 20
11.294628840114576
 30
0.0
 11
-73.175890832262823
 21
4.4936241324266781
 31
0.0
  0
LINE
  8
layer10
 10
-72.391250941517967
 20
4.0645564778489991
 30
0.0
 11
-68.033526366508099
 21
7.5943633044995558
 31
0.0
  0
LINE
  8
layer10
 10
-66.821856003715283
 20
8.5758301789237343
 30
0.0
 11
-47.87908557141246
 21
23.919691232250067
 31
0.0
  0
LINE
  8
layer10
 10
-48.115913410261655
 20
26.717955080824034
 30
0.0
 11
-51.289026365122126
 21
28.500997873922792
 31
0.0
  0
LINE
  8
layer10
 10
-53.248700105789943
 20
28.109678548485
 30
0.0
 11
-54.314707239585331
 21
27.24620055761763
 31
0.0
  0
LINE
  8
layer10
 10
-69.691277370111891
 20
14.7910026003041
 30
0.0
 11
-70.998514395434299
 21
13.732125633698843
 31
0.0
  0
LINE
  8
layer10
 10
-70.998514395434299
 20
13.732125633698843
 30
0.0
 11
-71.155698838769126
 21
13.604804428953411
 31
0.0
  0
LINE
  8
layer10
 10
-70.998514395434299
 20
13.732125633698843
 30
0.0
 11
-68.019401595764435
 21
10.054260616459324
 31
0.0
  0
LINE
  8
layer10
 10
-66.90997578601511
 20
8.6846184950359024
 30
0.0
 11
-50.226168635775238
 21
22.198693425879355
 31
0.0
  0
LINE
  8
layer10
 10
-68.019401595764435
 20
10.054260616459324
 30
0.0
 11
-66.90997578601511
 21
8.6846184950359024
 31
0.0
  0
LINE
  8
layer10
 10
-68.033526366508099
 20
7.5943633044995558
 30
0.0
 11
-68.019401595764435
 21
10.054260616459324
 31
0.0
  0
LINE
  8
layer10
 10
-66.90997578601511
 20
8.6846184950359024
 30
0.0
 11
-66.821856003715283
 21
8.5758301789237343
 31
0.0
  0
LINE
  8
layer10
 10
-54.314707239585331
 20
27.24620055761763
 30
0.0
 11
-54.677884519441321
 21
26.952022800432065
 31
0.0
  0
LINE
  8
layer10
 10
-50.226168635775238
 20
22.198693425879355
 30
0.0
 11
-54.314707239585331
 21
27.24620055761763
 31
0.0
  0
LINE
  8
layer10
 10
-49.836448994178625
 20
39.198163441908051
 30
0.0
 11
-47.655022684360965
 21
52.958915324552422
 31
0.0
  0
LINE
  8
layer10
 10
-58.8648026921108
 20
23.560571115888798
 30
0.0
 11
-69.691277370111891
 21
14.7910026003041
 31
0.0
  0
LINE
  8
layer10
 10
-54.677884519441321
 20
26.952022800432065
 30
0.0
 11
-57.459519887749522
 21
24.698866286121874
 31
0.0
  0
LINE
  8
layer10
 10
-57.459519887749522
 20
24.698866286121874
 30
0.0
 11
-57.950402272742352
 21
24.301245930805685
 31
0.0
  0
LINE
  8
layer10
 10
-58.740159130810042
 20
23.661533828439595
 30
0.0
 11
-58.8648026921108
 21
23.560571115888798
 31
0.0
  0
LINE
  8
layer10
 10
-58.223626101651796
 20
24.079931499379519
 30
0.0
 11
-58.740159130810042
 21
23.661533828439595
 31
0.0
  0
LINE
  8
layer10
 10
-58.1850959802792
 20
24.111141339086359
 30
0.0
 11
-58.205652305190156
 21
24.094490480418447
 31
0.0
  0
LINE
  8
layer10
 10
-50.680065828067441
 20
33.87650674283924
 30
0.0
 11
-50.386689831142597
 21
35.727164857595227
 31
0.0
  0
LINE
  8
layer10
 10
-50.386689831142597
 20
35.727164857595227
 30
0.0
 11
-49.836448994178625
 21
39.198163441908051
 31
0.0
  0
LINE
  8
layer10
 10
-58.075075602439767
 20
24.20025910551259
 30
0.0
 11
-58.09062020139028
 21
24.187667802286178
 31
0.0
  0
LINE
  8
layer10
 10
-58.157398216766154
 20
24.133576844833193
 30
0.0
 11
-58.1850959802792
 21
24.111141339086359
 31
0.0
  0
LINE
  8
layer10
 10
-58.024483444484773
 20
24.241239333032023
 30
0.0
 11
-58.04181498785114
 21
24.227200584357799
 31
0.0
  0
LINE
  8
layer10
 10
-58.205652305190156
 20
24.094490480418447
 30
0.0
 11
-58.223626101651796
 21
24.079931499379519
 31
0.0
  0
LINE
  8
layer10
 10
-58.109311947455566
 20
24.172527273843567
 30
0.0
 11
-58.157398216766154
 21
24.133576844833193
 31
0.0
  0
LINE
  8
layer10
 10
-58.09062020139028
 20
24.187667802286178
 30
0.0
 11
-58.109311947455566
 21
24.172527273843567
 31
0.0
  0
LINE
  8
layer10
 10
-57.950402272742352
 20
24.301245930805685
 30
0.0
 11
-57.983834567485687
 21
24.274165389068465
 31
0.0
  0
LINE
  8
layer10
 10
-58.04181498785114
 20
24.227200584357799
 30
0.0
 11
-58.075075602439767
 21
24.20025910551259
 31
0.0
  0
LINE
  8
layer10
 10
-57.983834567485687
 20
24.274165389068465
 30
0.0
 11
-58.024483444484773
 21
24.241239333032023
 31
0.0
  0
LINE
  8
default
 10
-76.440284661047372
 20
-5.6644521121924196
 30
0.0
 11
-76.510655107869965
 21
-4.4562382008168235
 31
0.0
  0
LINE
  8
default
 10
-76.668871491120001
 20
-6.7714991690285977
 30
0.0
 11
-76.440284661047372
 21
-5.6644521121924196
 31
0.0
  0
LINE
  8
default
 10
-91.502655903032178
 20
-8.505319904465523
 30
0.0
 11
-85.233225597532297
 21
-7.7725285977290444
 31
0.0
  0
LINE
  8
default
 10
-94.340120956634848
 20
-5.4946863320399544
 30
0.0
 11
-94.285717618404021
 21
-6.2114366752032106
 31
0.0
  0
LINE
  8
default
 10
-94.369295110352851
 20
-4.7764665562121502
 30
0.0
 11
-94.340120956634848
 21
-5.4946863320399544
 31
0.0
  0
LINE
  8
default
 10
-76.936587081297205
 20
-2.1749999999999905
 30
0.0
 11
-85.559244512573585
 21
-2.1749999999999896
 31
0.0
  0
LINE
  8
default
 10
-76.581025554692559
 20
-3.2480242894412279
 30
0.0
 11
-76.936587081297205
 21
-2.1749999999999905
 31
0.0
  0
LINE
  8
default
 10
-76.510655107869965
 20
-4.4562382008168235
 30
0.0
 11
-76.581025554692559
 21
-3.2480242894412279
 31
0.0
  0
LINE
  8
default
 10
-85.559244512573585
 20
-2.1749999999999896
 30
0.0
 11
-91.871355051430527
 21
-2.1749999999999892
 31
0.0
  0
LINE
  8
default
 10
-85.233225597532297
 20
-7.7725285977290444
 30
0.0
 11
-76.668871491120001
 21
-6.7714991690285977
 31
0.0
  0
LINE
  8
default
 10
-76.440284661047372
 20
-5.6644521121924196
 30
0.0
 11
-75.4419765027761
 21
-5.6063072832819447
 31
0.0
  0
LINE
  8
default
 10
-75.582717396421288
 20
-3.1898794605307521
 30
0.0
 11
-76.581025554692559
 21
-3.2480242894412279
 31
0.0
  0
LINE
  8
default
 10
-75.265820049438091
 20
-14.500326516285007
 30
0.0
 11
-75.475979750331973
 21
-13.308451625389269
 31
0.0
  0
LINE
  8
default
 10
-75.364340938238996
 20
-15.626425428193803
 30
0.0
 11
-75.265820049438091
 21
-14.500326516285007
 31
0.0
  0
LINE
  8
default
 10
-89.896540304877064
 20
-19.070619947962403
 30
0.0
 11
-83.75457352250946
 21
-17.614947079821377
 31
0.0
  0
LINE
  8
default
 10
-93.064332659653672
 20
-16.409752789524909
 30
0.0
 11
-92.927087541295521
 21
-17.115340881205999
 31
0.0
  0
LINE
  8
default
 10
-93.176689774939263
 20
-15.699776271406176
 30
0.0
 11
-93.064332659653672
 21
-16.409752789524909
 31
0.0
  0
LINE
  8
default
 10
-76.163867314675258
 20
-11.092086025206052
 30
0.0
 11
-84.728221421087568
 21
-12.093115453906497
 31
0.0
  0
LINE
  8
default
 10
-75.686139451225841
 20
-12.116576734493533
 30
0.0
 11
-76.163867314675258
 21
-11.092086025206052
 31
0.0
  0
LINE
  8
default
 10
-75.475979750331973
 20
-13.308451625389269
 30
0.0
 11
-75.686139451225841
 21
-12.116576734493533
 31
0.0
  0
LINE
  8
default
 10
-84.728221421087568
 20
-12.093115453906497
 30
0.0
 11
-90.997651726587449
 21
-12.825906760642978
 31
0.0
  0
LINE
  8
default
 10
-83.75457352250946
 20
-17.614947079821377
 30
0.0
 11
-75.364340938238996
 21
-15.626425428193803
 31
0.0
  0
LINE
  8
default
 10
-75.265820049438091
 20
-14.500326516285007
 30
0.0
 11
-74.281012296425885
 21
-14.326678338618075
 31
0.0
  0
LINE
  8
default
 10
-74.701331698213636
 20
-11.942928556826603
 30
0.0
 11
-75.686139451225841
 21
-12.116576734493533
 31
0.0
  0
LINE
  8
default
 10
-73.073514338961616
 20
-23.140108879321314
 30
0.0
 11
-73.420621244497767
 21
-21.980691072162632
 31
0.0
  0
LINE
  8
default
 10
-73.040636960480768
 20
-24.270031090323702
 30
0.0
 11
-73.073514338961616
 21
-23.140108879321314
 31
0.0
  0
LINE
  8
default
 10
-87.074728215164768
 20
-29.378022572004301
 30
0.0
 11
-81.143284520215929
 21
-27.219153620816989
 31
0.0
  0
LINE
  8
default
 10
-90.530008913813688
 20
-27.102905491198019
 30
0.0
 11
-90.311778020112243
 21
-27.787789462881957
 31
0.0
  0
LINE
  8
default
 10
-90.724029553429475
 20
-26.410773445242633
 30
0.0
 11
-90.530008913813688
 21
-27.102905491198019
 31
0.0
  0
LINE
  8
default
 10
-74.361161900509373
 20
-19.859170615216033
 30
0.0
 11
-82.751394484779865
 21
-21.847692266843609
 31
0.0
  0
LINE
  8
default
 10
-73.767728150033918
 20
-20.821273265003949
 30
0.0
 11
-74.361161900509373
 21
-19.859170615216033
 31
0.0
  0
LINE
  8
default
 10
-73.420621244497767
 20
-21.980691072162632
 30
0.0
 11
-73.767728150033918
 21
-20.821273265003949
 31
0.0
  0
LINE
  8
default
 10
-82.751394484779865
 20
-21.847692266843609
 30
0.0
 11
-88.893361267147455
 21
-23.303365134984634
 31
0.0
  0
LINE
  8
default
 10
-81.143284520215929
 20
-27.219153620816989
 30
0.0
 11
-73.040636960480768
 21
-24.270031090323702
 31
0.0
  0
LINE
  8
default
 10
-73.073514338961616
 20
-23.140108879321314
 30
0.0
 11
-72.115524826646123
 21
-22.853305646610224
 31
0.0
  0
LINE
  8
default
 10
-72.809738637718425
 20
-20.534470032292859
 30
0.0
 11
-73.767728150033918
 21
-20.821273265003949
 31
0.0
  0
LINE
  8
default
 10
-69.89301470348704
 20
-31.466960966248706
 30
0.0
 11
-70.372374788224391
 21
-30.355679379706338
 31
0.0
  0
LINE
  8
default
 10
-69.729183667867758
 20
-32.585426216804223
 30
0.0
 11
-69.89301470348704
 21
-31.466960966248706
 31
0.0
  0
LINE
  8
default
 10
-83.07537980163552
 20
-39.288137838284172
 30
0.0
 11
-77.43467179478354
 21
-36.45526780311048
 31
0.0
  0
LINE
  8
default
 10
-86.771422100185902
 20
-37.42953789070031
 30
0.0
 11
-86.475156629606857
 21
-38.084455861577489
 31
0.0
  0
LINE
  8
default
 10
-87.04448246782033
 20
-36.764610215488446
 30
0.0
 11
-86.771422100185902
 21
-37.42953789070031
 31
0.0
  0
LINE
  8
default
 10
-71.552849337014109
 20
-28.357693990742405
 30
0.0
 11
-79.655496896749298
 21
-31.306816521235692
 31
0.0
  0
LINE
  8
default
 10
-70.851734872961728
 20
-29.244397793163962
 30
0.0
 11
-71.552849337014109
 21
-28.357693990742405
 31
0.0
  0
LINE
  8
default
 10
-70.372374788224391
 20
-30.355679379706338
 30
0.0
 11
-70.851734872961728
 21
-29.244397793163962
 31
0.0
  0
LINE
  8
default
 10
-79.655496896749298
 20
-31.306816521235692
 30
0.0
 11
-85.586940591698124
 21
-33.465685472423012
 31
0.0
  0
LINE
  8
default
 10
-77.43467179478354
 20
-36.45526780311048
 30
0.0
 11
-69.729183667867758
 21
-32.585426216804223
 31
0.0
  0
LINE
  8
default
 10
-69.89301470348704
 20
-31.466960966248706
 30
0.0
 11
-68.97479859660676
 21
-31.070881200209552
 31
0.0
  0
LINE
  8
default
 10
-69.933518766081463
 20
-28.848318027124805
 30
0.0
 11
-70.851734872961728
 21
-29.244397793163962
 31
0.0
  0
LINE
  8
default
 10
-65.767331944488248
 20
-39.368276387172067
 30
0.0
 11
-66.372462685615233
 21
-38.320159198318329
 31
0.0
  0
LINE
  8
default
 10
-65.474762785437818
 20
-40.460159353476058
 30
0.0
 11
-65.767331944488248
 21
-39.368276387172067
 31
0.0
  0
LINE
  8
default
 10
-77.952579390764512
 20
-48.666948438468623
 30
0.0
 11
-72.678887971258391
 21
-45.19838702679138
 31
0.0
  0
LINE
  8
default
 10
-81.839400657629454
 20
-47.249999999999993
 30
0.0
 11
-81.469107092423755
 21
-47.866095328015525
 31
0.0
  0
LINE
  8
default
 10
-82.187808080240956
 20
-46.621268701666189
 30
0.0
 11
-81.839400657629454
 21
-47.249999999999993
 31
0.0
  0
LINE
  8
default
 10
-67.776907233995743
 20
-36.472728202211066
 30
0.0
 11
-75.482395360911553
 21
-40.342569788517331
 31
0.0
  0
LINE
  8
default
 10
-66.977593426742203
 20
-37.272042009464606
 30
0.0
 11
-67.776907233995743
 21
-36.472728202211066
 31
0.0
  0
LINE
  8
default
 10
-66.372462685615233
 20
-38.320159198318329
 30
0.0
 11
-66.977593426742203
 21
-37.272042009464606
 31
0.0
  0
LINE
  8
default
 10
-75.482395360911553
 20
-40.342569788517331
 30
0.0
 11
-81.12310336776352
 21
-43.175439823691029
 31
0.0
  0
LINE
  8
default
 10
-72.678887971258391
 20
-45.19838702679138
 30
0.0
 11
-65.474762785437818
 21
-40.460159353476058
 31
0.0
  0
LINE
  8
default
 10
-65.767331944488248
 20
-39.368276387172067
 30
0.0
 11
-64.901306540703814
 21
-38.868276387172067
 31
0.0
  0
LINE
  8
default
 10
-66.111568022957769
 20
-36.772042009464606
 30
0.0
 11
-66.977593426742203
 21
-37.272042009464606
 31
0.0
  0
LINE
  8
default
 10
-60.75225884373846
 20
-46.737203405602678
 30
0.0
 11
-61.474976886073343
 21
-45.766424601388692
 31
0.0
  0
LINE
  8
default
 10
-60.334908057235317
 20
-47.787738243643524
 30
0.0
 11
-60.75225884373846
 21
-46.737203405602678
 31
0.0
  0
LINE
  8
default
 10
-71.775604070027228
 20
-57.3876220483886
 30
0.0
 11
-66.940246867383138
 21
-53.330275603039539
 31
0.0
  0
LINE
  8
default
 10
-75.800641715351645
 20
-56.43148691591329
 30
0.0
 11
-75.361327640756073
 21
-57.00042796865737
 31
0.0
  0
LINE
  8
default
 10
-76.219684580236702
 20
-55.847454506689083
 30
0.0
 11
-75.800641715351645
 21
-56.43148691591329
 31
0.0
  0
LINE
  8
default
 10
-63.084398730829811
 20
-44.094531333122333
 30
0.0
 11
-70.288523916650405
 21
-48.832759006437655
 31
0.0
  0
LINE
  8
default
 10
-62.197694928408239
 20
-44.7956457971747
 30
0.0
 11
-63.084398730829811
 21
-44.094531333122333
 31
0.0
  0
LINE
  8
default
 10
-61.474976886073343
 20
-45.766424601388692
 30
0.0
 11
-62.197694928408239
 21
-44.7956457971747
 31
0.0
  0
LINE
  8
default
 10
-70.288523916650405
 20
-48.832759006437655
 30
0.0
 11
-75.562215336156513
 21
-52.301320418114898
 31
0.0
  0
LINE
  8
default
 10
-66.940246867383138
 20
-53.330275603039539
 30
0.0
 11
-60.334908057235317
 21
-47.787738243643524
 31
0.0
  0
LINE
  8
default
 10
-60.75225884373846
 20
-46.737203405602678
 30
0.0
 11
-59.950135650983405
 21
-46.140044813899891
 31
0.0
  0
LINE
  8
default
 10
-61.395571735653199
 20
-44.198487205471906
 30
0.0
 11
-62.197694928408239
 21
-44.7956457971747
 31
0.0
  0
LINE
  8
default
 10
-54.915615661648161
 20
-53.474089924891835
 30
0.0
 11
-55.746147483479554
 21
-52.593777623289178
 31
0.0
  0
LINE
  8
default
 10
-54.379127201121236
 20
-54.469069953160613
 30
0.0
 11
-54.915615661648161
 21
-53.474089924891835
 31
0.0
  0
LINE
  8
default
 10
-64.627986834135029
 20
-65.332226517644997
 30
0.0
 11
-60.296353759541326
 21
-60.740963688985012
 31
0.0
  0
LINE
  8
default
 10
-68.736809128653121
 20
-64.849834778595309
 30
0.0
 11
-68.234415513890355
 21
-65.363927604338784
 31
0.0
  0
LINE
  8
default
 10
-69.220820599925446
 20
-64.318399294917285
 30
0.0
 11
-68.736809128653121
 21
-64.849834778595309
 31
0.0
  0
LINE
  8
default
 10
-57.538781955098862
 20
-51.120031571211079
 30
0.0
 11
-64.144120765246683
 21
-56.662568930607094
 31
0.0
  0
LINE
  8
default
 10
-56.57667930531094
 20
-51.713465321686527
 30
0.0
 11
-57.538781955098862
 21
-51.120031571211079
 31
0.0
  0
LINE
  8
default
 10
-55.746147483479554
 20
-52.593777623289178
 30
0.0
 11
-56.57667930531094
 21
-51.713465321686527
 31
0.0
  0
LINE
  8
default
 10
-64.144120765246683
 20
-56.662568930607094
 30
0.0
 11
-68.979477967890801
 21
-60.719915375956163
 31
0.0
  0
LINE
  8
default
 10
-60.296353759541326
 20
-60.740963688985012
 30
0.0
 11
-54.379127201121236
 21
-54.469069953160613
 31
0.0
  0
LINE
  8
default
 10
-54.915615661648161
 20
-53.474089924891835
 30
0.0
 11
-54.188242020075108
 21
-52.787848287023095
 31
0.0
  0
LINE
  8
default
 10
-55.849305663737887
 20
-51.027223683817795
 30
0.0
 11
-56.57667930531094
 21
-51.713465321686527
 31
0.0
  0
LINE
  8
default
 10
-48.336332984587834
 20
-59.487831111886422
 30
0.0
 11
-49.263447067789407
 21
-58.709890026612712
 31
0.0
  0
LINE
  8
default
 10
-47.687961936128438
 20
-60.413800932373007
 30
0.0
 11
-48.336332984587834
 21
-59.487831111886422
 31
0.0
  0
LINE
  8
default
 10
-56.606386944581125
 20
-72.393324699632103
 30
0.0
 11
-52.837055904524995
 21
-67.330234441181418
 31
0.0
  0
LINE
  8
default
 10
-60.743429115377985
 20
-72.391199874743421
 30
0.0
 11
-60.184749972239537
 21
-72.843492249936048
 31
0.0
  0
LINE
  8
default
 10
-61.285863768202496
 20
-71.919548069859303
 30
0.0
 11
-60.743429115377985
 21
-72.391199874743421
 31
0.0
  0
LINE
  8
default
 10
-51.215051860278471
 20
-57.454221077889613
 30
0.0
 11
-57.132278418698583
 21
-63.72611481371402
 31
0.0
  0
LINE
  8
default
 10
-50.190561150990987
 20
-57.931948941339009
 30
0.0
 11
-51.215051860278471
 21
-57.454221077889613
 31
0.0
  0
LINE
  8
default
 10
-49.263447067789407
 20
-58.709890026612712
 30
0.0
 11
-50.190561150990987
 21
-57.931948941339009
 31
0.0
  0
LINE
  8
default
 10
-57.132278418698583
 20
-63.72611481371402
 30
0.0
 11
-61.463911493292265
 21
-68.317377642374012
 31
0.0
  0
LINE
  8
default
 10
-52.837055904524995
 20
-67.330234441181418
 30
0.0
 11
-47.687961936128438
 21
-60.413800932373007
 31
0.0
  0
LINE
  8
default
 10
-48.336332984587834
 20
-59.487831111886422
 30
0.0
 11
-47.693545374901291
 21
-58.721786668767443
 31
0.0
  0
LINE
  8
default
 10
-49.547773541304444
 20
-57.165904498220023
 30
0.0
 11
-50.190561150990987
 21
-57.931948941339009
 31
0.0
  0
LINE
  8
default
 10
-41.103384324111303
 20
-64.697101433508422
 30
0.0
 11
-42.114543041157027
 21
-64.032051883196587
 31
0.0
  0
LINE
  8
default
 10
-40.351898793879762
 20
-65.541538892877043
 30
0.0
 11
-41.103384324111303
 21
-64.697101433508422
 31
0.0
  0
LINE
  8
default
 10
-47.819282778946423
 20
-78.47542735463864
 30
0.0
 11
-44.663227509517945
 21
-73.008979276493037
 31
0.0
  0
LINE
  8
default
 10
-51.928598427691185
 20
-78.953598178522498
 30
0.0
 11
-51.321188933182945
 21
-79.337973624690093
 31
0.0
  0
LINE
  8
default
 10
-52.522120763926353
 20
-78.548108333982285
 30
0.0
 11
-51.928598427691185
 21
-78.953598178522498
 31
0.0
  0
LINE
  8
default
 10
-44.198726047643994
 20
-63.011440806280113
 30
0.0
 11
-49.347820016040565
 21
-69.927874315088545
 31
0.0
  0
LINE
  8
default
 10
-43.125701758202759
 20
-63.367002332884752
 30
0.0
 11
-44.198726047643994
 21
-63.011440806280113
 31
0.0
  0
LINE
  8
default
 10
-42.114543041157027
 20
-64.032051883196587
 30
0.0
 11
-43.125701758202759
 21
-63.367002332884752
 31
0.0
  0
LINE
  8
default
 10
-49.347820016040565
 20
-69.927874315088545
 30
0.0
 11
-53.117151056096688
 21
-74.99096457353923
 31
0.0
  0
LINE
  8
default
 10
-44.663227509517945
 20
-73.008979276493037
 30
0.0
 11
-40.351898793879762
 21
-65.541538892877043
 31
0.0
  0
LINE
  8
default
 10
-41.103384324111303
 20
-64.697101433508422
 30
0.0
 11
-40.553875346040492
 21
-63.861613622095469
 31
0.0
  0
LINE
  8
default
 10
-42.576192780131947
 20
-62.531514521471813
 30
0.0
 11
-43.125701758202759
 21
-63.367002332884752
 31
0.0
  0
LINE
  8
layer10
 10
-52.937876339303457
 20
-28.361449362284354
 30
0.0
 11
-53.248700105789993
 21
-28.109678548484972
 31
0.0
  0
LINE
  8
layer10
 10
-72.418981053568515
 20
-11.294628840114571
 30
0.0
 11
-73.175890832262837
 21
-4.4936241324266781
 31
0.0
  0
LINE
  8
layer10
 10
-72.391250941517953
 20
-4.0645564778490062
 30
0.0
 11
-68.033526366508141
 21
-7.5943633044995442
 31
0.0
  0
LINE
  8
layer10
 10
-66.821856003715283
 20
-8.5758301789237219
 30
0.0
 11
-47.879085571412489
 21
-23.919691232250063
 31
0.0
  0
LINE
  8
layer10
 10
-48.11591341026169
 20
-26.717955080824002
 30
0.0
 11
-51.28902636512214
 21
-28.500997873922824
 31
0.0
  0
LINE
  8
layer10
 10
-54.314707239585331
 20
-27.246200557617652
 30
0.0
 11
-54.677948344807326
 21
-26.951971101154424
 31
0.0
  0
LINE
  8
layer10
 10
-50.226168630166143
 20
-22.198693418954672
 30
0.0
 11
-54.314707239585331
 21
-27.246200557617652
 31
0.0
  0
LINE
  8
layer10
 10
-53.248700105789993
 20
-28.109678548484972
 30
0.0
 11
-54.314707239585331
 21
-27.246200557617652
 31
0.0
  0
LINE
  8
layer10
 10
-69.691277370111891
 20
-14.791002600304081
 30
0.0
 11
-70.998514395434341
 21
-13.732125633698832
 31
0.0
  0
LINE
  8
layer10
 10
-70.998514395434341
 20
-13.732125633698832
 30
0.0
 11
-71.155698838769155
 21
-13.604804428953392
 31
0.0
  0
LINE
  8
layer10
 10
-70.998514395434341
 20
-13.732125633698832
 30
0.0
 11
-68.019401595764464
 21
-10.054260616459331
 31
0.0
  0
LINE
  8
layer10
 10
-66.909975786015139
 20
-8.6846184950358882
 30
0.0
 11
-50.226168630166143
 21
-22.198693418954672
 31
0.0
  0
LINE
  8
layer10
 10
-68.019401595764464
 20
-10.054260616459331
 30
0.0
 11
-66.909975786015139
 21
-8.6846184950358882
 31
0.0
  0
LINE
  8
layer10
 10
-68.033526366508141
 20
-7.5943633044995442
 30
0.0
 11
-68.019401595764464
 21
-10.054260616459331
 31
0.0
  0
LINE
  8
layer10
 10
-66.909975786015139
 20
-8.6846184950358882
 30
0.0
 11
-66.821856003715283
 21
-8.5758301789237219
 31
0.0
  0
LINE
  8
layer10
 10
-51.03067380553594
 20
-31.664821051093792
 30
0.0
 11
-50.968045768097468
 21
-32.059887735870724
 31
0.0
  0
LINE
  8
layer10
 10
-45.990926028639869
 20
-57.069362888517041
 30
0.0
 11
-40.479538069871715
 21
-61.125368339083082
 31
0.0
  0
LINE
  8
layer10
 10
-39.715634635692815
 20
-60.660384088164236
 30
0.0
 11
-40.593674730519005
 21
-55.121580490184662
 31
0.0
  0
LINE
  8
layer10
 10
-40.837814795346844
 20
-53.581509737781282
 30
0.0
 11
-44.654603043514697
 21
-29.504658798687142
 31
0.0
  0
LINE
  8
layer10
 10
-47.196384542295952
 20
-28.310625799166925
 30
0.0
 11
-50.32710137458448
 21
-30.167100830604223
 31
0.0
  0
LINE
  8
layer10
 10
-50.968045768097468
 20
-32.059887735870724
 30
0.0
 11
-50.753255459295275
 21
-33.414815989786646
 31
0.0
  0
LINE
  8
layer10
 10
-47.655022684360979
 20
-52.958915324552414
 30
0.0
 11
-47.391626844459829
 21
-54.620454280551854
 31
0.0
  0
LINE
  8
layer10
 10
-47.391626844459829
 20
-54.620454280551854
 30
0.0
 11
-47.35995566837726
 21
-54.820240603932241
 31
0.0
  0
LINE
  8
layer10
 10
-47.391626844459829
 20
-54.620454280551854
 30
0.0
 11
-42.716945908005385
 21
-53.87939942391813
 31
0.0
  0
LINE
  8
layer10
 10
-40.976088131884829
 20
-53.603429549772805
 30
0.0
 11
-44.337716755521754
 21
-32.39779126040289
 31
0.0
  0
LINE
  8
layer10
 10
-42.716945908005385
 20
-53.87939942391813
 30
0.0
 11
-40.976088131884829
 21
-53.603429549772805
 31
0.0
  0
LINE
  8
layer10
 10
-40.593674730519005
 20
-55.121580490184662
 30
0.0
 11
-42.716945908005385
 21
-53.87939942391813
 31
0.0
  0
LINE
  8
layer10
 10
-40.976088131884829
 20
-53.603429549772805
 30
0.0
 11
-40.837814795346844
 21
-53.581509737781282
 31
0.0
  0
LINE
  8
layer10
 10
-50.753255459295275
 20
-33.414815989786646
 30
0.0
 11
-50.680078688272239
 21
-33.87642561881205
 31
0.0
  0
LINE
  8
layer10
 10
-44.337716755521754
 20
-32.39779126040289
 30
0.0
 11
-50.753255459295275
 21
-33.414815989786646
 31
0.0
  0
LINE
  8
layer10
 10
-58.864829819476149
 20
-23.560549142412103
 30
0.0
 11
-69.691277370111891
 21
-14.791002600304081
 31
0.0
  0
LINE
  8
layer10
 10
-49.83645446008498
 20
-39.198128962182174
 30
0.0
 11
-47.655022684360979
 21
-52.958915324552414
 31
0.0
  0
LINE
  8
layer10
 10
-50.680078688272239
 20
-33.87642561881205
 30
0.0
 11
-50.119605592331318
 21
-37.411970768987331
 31
0.0
  0
LINE
  8
layer10
 10
-50.119605592331318
 20
-37.411970768987331
 30
0.0
 11
-50.020697456062116
 21
-38.035897562319512
 31
0.0
  0
LINE
  8
layer10
 10
-49.861568953338576
 20
-39.039703115402155
 30
0.0
 11
-49.83645446008498
 21
-39.198128962182174
 31
0.0
  0
LINE
  8
layer10
 10
-49.96564545067767
 20
-38.383173554787426
 30
0.0
 11
-49.861568953338576
 21
-39.039703115402155
 31
0.0
  0
LINE
  8
layer10
 10
-49.97340890402554
 20
-38.334200571014442
 30
0.0
 11
-49.969266999879785
 21
-38.360328299929733
 31
0.0
  0
LINE
  8
layer10
 10
-54.677948344807326
 20
-26.951971101154424
 30
0.0
 11
-56.133977287443408
 21
-25.772570977578933
 31
0.0
  0
LINE
  8
layer10
 10
-56.133977287443408
 20
-25.772570977578933
 30
0.0
 11
-58.864829819476149
 21
-23.560549142412103
 31
0.0
  0
LINE
  8
layer10
 10
-49.995576964759465
 20
-38.194361245658413
 30
0.0
 11
-49.992444875773899
 21
-38.214118914854403
 31
0.0
  0
LINE
  8
layer10
 10
-49.978989740192524
 20
-38.298995851310714
 30
0.0
 11
-49.97340890402554
 21
-38.334200571014442
 31
0.0
  0
LINE
  8
layer10
 10
-50.00577080386666
 20
-38.130057037877393
 30
0.0
 11
-50.00227866256062
 21
-38.152085969056571
 31
0.0
  0
LINE
  8
layer10
 10
-49.969266999879785
 20
-38.360328299929733
 30
0.0
 11
-49.96564545067767
 21
-38.383173554787426
 31
0.0
  0
LINE
  8
layer10
 10
-49.988678666548516
 20
-38.237876706009331
 30
0.0
 11
-49.978989740192524
 21
-38.298995851310714
 31
0.0
  0
LINE
  8
layer10
 10
-49.992444875773899
 20
-38.214118914854403
 30
0.0
 11
-49.988678666548516
 21
-38.237876706009331
 31
0.0
  0
LINE
  8
layer10
 10
-50.020697456062116
 20
-38.035897562319512
 30
0.0
 11
-50.013961166341105
 21
-38.078391049742656
 31
0.0
  0
LINE
  8
layer10
 10
-50.00227866256062
 20
-38.152085969056571
 30
0.0
 11
-49.995576964759465
 21
-38.194361245658413
 31
0.0
  0
LINE
  8
layer10
 10
-50.013961166341105
 20
-38.078391049742656
 30
0.0
 11
-50.00577080386666
 21
-38.130057037877393
 31
0.0
  0
LINE
  8
default
 10
-33.314582902844656
 20
-69.031454445077173
 30
0.0
 11
-34.39611206671298
 21
-68.488290084013414
 31
0.0
  0
LINE
  8
default
 10
-32.470145443476049
 20
-69.782939975308722
 30
0.0
 11
-33.314582902844656
 21
-69.031454445077173
 31
0.0
  0
LINE
  8
default
 10
-38.385504846935547
 20
-83.496284478004739
 30
0.0
 11
-35.885405581491781
 21
-77.700402912817566
 31
0.0
  0
LINE
  8
default
 10
-42.411522528943721
 20
-84.448284510562445
 30
0.0
 11
-41.763596854477711
 21
-84.759545009185487
 31
0.0
  0
LINE
  8
default
 10
-43.048106177169963
 20
-84.114440180902236
 30
0.0
 11
-42.411522528943721
 21
-84.448284510562445
 31
0.0
  0
LINE
  8
default
 10
-36.584688287417485
 20
-67.716538892877026
 30
0.0
 11
-40.896017003055675
 21
-75.183979276493034
 31
0.0
  0
LINE
  8
default
 10
-35.477641230581305
 20
-67.945125722949641
 30
0.0
 11
-36.584688287417485
 21
-67.716538892877026
 31
0.0
  0
LINE
  8
default
 10
-34.39611206671298
 20
-68.488290084013414
 30
0.0
 11
-35.477641230581305
 21
-67.945125722949641
 31
0.0
  0
LINE
  8
default
 10
-40.896017003055675
 20
-75.183979276493034
 30
0.0
 11
-44.052072272484153
 21
-80.650427354638623
 31
0.0
  0
LINE
  8
default
 10
-35.885405581491781
 20
-77.700402912817566
 30
0.0
 11
-32.470145443476049
 21
-69.782939975308722
 31
0.0
  0
LINE
  8
default
 10
-33.314582902844656
 20
-69.031454445077173
 30
0.0
 11
-32.865783722644196
 21
-68.137821804753756
 31
0.0
  0
LINE
  8
default
 10
-35.028842050380838
 20
-67.051493082626223
 30
0.0
 11
-35.477641230581305
 21
-67.945125722949641
 31
0.0
  0
LINE
  8
default
 10
-25.075258898447153
 20
-72.432275457624002
 30
0.0
 11
-26.212532682542609
 21
-72.018341652001993
 31
0.0
  0
LINE
  8
default
 10
-24.149289077960574
 20
-73.080646506083411
 30
0.0
 11
-25.075258898447153
 21
-72.432275457624002
 31
0.0
  0
LINE
  8
default
 10
-28.432628811584859
 20
-87.387997590336411
 30
0.0
 11
-26.622295103810934
 21
-81.341061893535382
 31
0.0
  0
LINE
  8
default
 10
-32.320903544275744
 20
-88.800952664268337
 30
0.0
 11
-31.641223773093063
 21
-89.034888951065312
 31
0.0
  0
LINE
  8
default
 10
-32.99193980269979
 20
-88.543268521342227
 30
0.0
 11
-32.320903544275744
 21
-88.800952664268337
 31
0.0
  0
LINE
  8
default
 10
-28.475905378546859
 20
-71.505886957579065
 30
0.0
 11
-31.891165516562602
 21
-79.42334989508791
 31
0.0
  0
LINE
  8
default
 10
-27.349806466638057
 20
-71.604407846379942
 30
0.0
 11
-28.475905378546859
 21
-71.505886957579065
 31
0.0
  0
LINE
  8
default
 10
-26.212532682542609
 20
-72.018341652001993
 30
0.0
 11
-27.349806466638057
 21
-71.604407846379942
 31
0.0
  0
LINE
  8
default
 10
-31.891165516562602
 20
-79.42334989508791
 30
0.0
 11
-34.391264782006367
 21
-85.219231460275083
 31
0.0
  0
LINE
  8
default
 10
-26.622295103810934
 20
-81.341061893535382
 30
0.0
 11
-24.149289077960574
 21
-73.080646506083411
 31
0.0
  0
LINE
  8
default
 10
-25.075258898447153
 20
-72.432275457624002
 30
0.0
 11
-24.733238755121484
 21
-71.49258283683811
 31
0.0
  0
LINE
  8
default
 10
-27.007786323312388
 20
-70.664715225594037
 30
0.0
 11
-27.349806466638057
 21
-71.604407846379942
 31
0.0
  0
LINE
  8
default
 10
-16.496835033650726
 20
-74.853574201007859
 30
0.0
 11
-17.674473761018266
 21
-74.574468695451827
 31
0.0
  0
LINE
  8
default
 10
-15.501855005381952
 20
-75.390062661534799
 30
0.0
 11
-16.496835033650726
 21
-74.853574201007859
 31
0.0
  0
LINE
  8
default
 10
-18.095250247274041
 20
-90.097937947960475
 30
0.0
 11
-16.999163754969299
 21
-83.881722551424076
 31
0.0
  0
LINE
  8
default
 10
-21.793199785160642
 20
-91.952740269793324
 30
0.0
 11
-21.090957420186847
 21
-92.106188757799259
 31
0.0
  0
LINE
  8
default
 10
-22.489614039539198
 20
-91.77470104958141
 30
0.0
 11
-21.793199785160642
 21
-91.952740269793324
 31
0.0
  0
LINE
  8
default
 10
-19.982034699388194
 20
-74.328240568376657
 30
0.0
 11
-22.455040725238572
 21
-82.588655955828642
 31
0.0
  0
LINE
  8
default
 10
-18.85211248838581
 20
-74.295363189895795
 30
0.0
 11
-19.982034699388194
 21
-74.328240568376657
 31
0.0
  0
LINE
  8
default
 10
-17.674473761018266
 20
-74.574468695451827
 30
0.0
 11
-18.85211248838581
 21
-74.295363189895795
 31
0.0
  0
LINE
  8
default
 10
-22.455040725238572
 20
-82.588655955828642
 30
0.0
 11
-24.265374433012489
 21
-88.635591652629657
 31
0.0
  0
LINE
  8
default
 10
-16.999163754969299
 20
-83.881722551424076
 30
0.0
 11
-15.501855005381952
 21
-75.390062661534799
 31
0.0
  0
LINE
  8
default
 10
-16.496835033650726
 20
-74.853574201007859
 30
0.0
 11
-16.266219162908286
 21
-73.880529330428033
 31
0.0
  0
LINE
  8
default
 10
-18.621496617643366
 20
-73.322318319315968
 30
0.0
 11
-18.85211248838581
 21
-74.295363189895795
 31
0.0
  0
LINE
  8
default
 10
-7.6953197750788469
 20
-76.26260676342342
 30
0.0
 11
-8.8973979021510878
 21
-76.122103981095051
 31
0.0
  0
LINE
  8
default
 10
-6.6447849370380005
 20
-76.67995754992657
 30
0.0
 11
-7.6953197750788469
 21
-76.26260676342342
 31
0.0
  0
LINE
  8
default
 10
-7.5131644654790648
 20
-91.589458256399098
 30
0.0
 11
-7.1461478781332097
 21
-85.288026809548143
 31
0.0
  0
LINE
  8
default
 10
-10.970780384834306
 20
-93.861024806613614
 30
0.0
 11
-10.255472049370191
 21
-93.9319103682666
 31
0.0
  0
LINE
  8
default
 10
-11.683154827064318
 20
-93.765038184145808
 30
0.0
 11
-10.970780384834306
 21
-93.861024806613614
 31
0.0
  0
LINE
  8
default
 10
-11.217941279778845
 20
-76.14543223438595
 30
0.0
 11
-12.71525002936621
 21
-84.637092124275256
 31
0.0
  0
LINE
  8
default
 10
-10.099476029223329
 20
-75.981601198766654
 30
0.0
 11
-11.217941279778845
 21
-76.14543223438595
 31
0.0
  0
LINE
  8
default
 10
-8.8973979021510878
 20
-76.122103981095051
 30
0.0
 11
-10.099476029223329
 21
-75.981601198766654
 31
0.0
  0
LINE
  8
default
 10
-12.71525002936621
 20
-84.637092124275256
 30
0.0
 11
-13.811336521670938
 21
-90.853307520811626
 31
0.0
  0
LINE
  8
default
 10
-7.1461478781332097
 20
-85.288026809548143
 30
0.0
 11
-6.6447849370380005
 21
-76.67995754992657
 31
0.0
  0
LINE
  8
default
 10
-7.6953197750788469
 20
-76.26260676342342
 30
0.0
 11
-7.5792268609536109
 21
-75.269368405681476
 31
0.0
  0
LINE
  8
default
 10
-9.9833831150981034
 20
-74.988362841024724
 30
0.0
 11
-10.099476029223329
 21
-75.981601198766654
 31
0.0
  0
LINE
  8
default
 10
1.2102614822539124
 20
-76.640318396636687
 30
0.0
 11
-4.9737991503207013e-014
 21
-76.640318396636687
 31
0.0
  0
LINE
  8
default
 10
2.3021444485578897
 20
-76.932887555687159
 30
0.0
 11
1.2102614822539124
 21
-76.640318396636687
 31
0.0
  0
LINE
  8
default
 10
3.1705239769989433
 20
-91.842388262159659
 30
0.0
 11
2.8035073896530989
 21
-85.540956815308718
 31
0.0
  0
LINE
  8
default
 10
-4.9737991503207013e-014
 20
-94.5
 30
0.0
 11
0.71870098781715797
 21
-94.487364029681729
 31
0.0
  0
LINE
  8
default
 10
-0.71870098781725034
 20
-94.487364029681714
 30
0.0
 11
-4.9737991503207013e-014
 21
-94.5
 31
0.0
  0
LINE
  8
default
 10
-2.3021444485579821
 20
-76.932887555687145
 30
0.0
 11
-2.8035073896531983
 21
-85.540956815308732
 31
0.0
  0
LINE
  8
default
 10
-1.2102614822539906
 20
-76.640318396636687
 30
0.0
 11
-2.3021444485579821
 21
-76.932887555687145
 31
0.0
  0
LINE
  8
default
 10
-4.9737991503207013e-014
 20
-76.640318396636687
 30
0.0
 11
-1.2102614822539906
 21
-76.640318396636687
 31
0.0
  0
LINE
  8
default
 10
-2.8035073896531983
 20
-85.540956815308732
 30
0.0
 11
-3.1705239769990428
 21
-91.842388262159673
 31
0.0
  0
LINE
  8
default
 10
2.8035073896530989
 20
-85.540956815308718
 30
0.0
 11
2.3021444485578897
 21
-76.932887555687159
 31
0.0
  0
LINE
  8
default
 10
1.2102614822539124
 20
-76.640318396636687
 30
0.0
 11
1.2102614822539124
 21
-75.640318396636687
 31
0.0
  0
LINE
  8
default
 10
-1.2102614822539906
 20
-75.640318396636687
 30
0.0
 11
-1.2102614822539906
 21
-76.640318396636687
 31
0.0
  0
LINE
  8
default
 10
10.099476029223236
 20
-75.981601198766668
 30
0.0
 11
8.8973979021510061
 21
-76.122103981095051
 31
0.0
  0
LINE
  8
default
 10
11.217941279778756
 20
-76.145432234385964
 30
0.0
 11
10.099476029223236
 21
-75.981601198766668
 31
0.0
  0
LINE
  8
default
 10
13.811336521670839
 20
-90.85330752081164
 30
0.0
 11
12.715250029366111
 21
-84.637092124275256
 31
0.0
  0
LINE
  8
default
 10
10.970780384834207
 20
-93.861024806613628
 30
0.0
 11
11.683154827064229
 21
-93.765038184145851
 31
0.0
  0
LINE
  8
default
 10
10.255472049370084
 20
-93.931910368266585
 30
0.0
 11
10.970780384834207
 21
-93.861024806613628
 31
0.0
  0
LINE
  8
default
 10
6.6447849370379117
 20
-76.679957549926584
 30
0.0
 11
7.1461478781331138
 21
-85.288026809548171
 31
0.0
  0
LINE
  8
default
 10
7.6953197750787616
 20
-76.262606763423435
 30
0.0
 11
6.6447849370379117
 21
-76.679957549926584
 31
0.0
  0
LINE
  8
default
 10
8.8973979021510061
 20
-76.122103981095051
 30
0.0
 11
7.6953197750787616
 21
-76.262606763423435
 31
0.0
  0
LINE
  8
default
 10
7.1461478781331138
 20
-85.288026809548171
 30
0.0
 11
7.5131644654789582
 21
-91.589458256399098
 31
0.0
  0
LINE
  8
default
 10
12.715250029366111
 20
-84.637092124275256
 30
0.0
 11
11.217941279778756
 21
-76.145432234385964
 31
0.0
  0
LINE
  8
default
 10
10.099476029223236
 20
-75.981601198766668
 30
0.0
 11
9.9833831150980181
 21
-74.988362841024724
 31
0.0
  0
LINE
  8
default
 10
7.5792268609535256
 20
-75.26936840568149
 30
0.0
 11
7.6953197750787616
 21
-76.262606763423435
 31
0.0
  0
LINE
  8
default
 10
18.852112488385721
 20
-74.295363189895824
 30
0.0
 11
17.674473761018181
 21
-74.574468695451841
 31
0.0
  0
LINE
  8
default
 10
19.982034699388109
 20
-74.328240568376685
 30
0.0
 11
18.852112488385721
 21
-74.295363189895824
 31
0.0
  0
LINE
  8
default
 10
24.265374433012376
 20
-88.635591652629671
 30
0.0
 11
22.455040725238476
 21
-82.588655955828642
 31
0.0
  0
LINE
  8
default
 10
21.793199785160546
 20
-91.952740269793367
 30
0.0
 11
22.489614039539106
 21
-91.774701049581452
 31
0.0
  0
LINE
  8
default
 10
21.090957420186747
 20
-92.106188757799259
 30
0.0
 11
21.793199785160546
 21
-91.952740269793367
 31
0.0
  0
LINE
  8
default
 10
15.501855005381866
 20
-75.390062661534813
 30
0.0
 11
16.999163754969217
 21
-83.881722551424104
 31
0.0
  0
LINE
  8
default
 10
16.496835033650644
 20
-74.853574201007874
 30
0.0
 11
15.501855005381866
 21
-75.390062661534813
 31
0.0
  0
LINE
  8
default
 10
17.674473761018181
 20
-74.574468695451841
 30
0.0
 11
16.496835033650644
 21
-74.853574201007874
 31
0.0
  0
LINE
  8
default
 10
16.999163754969217
 20
-83.881722551424104
 30
0.0
 11
18.095250247273945
 21
-90.097937947960503
 31
0.0
  0
LINE
  8
default
 10
22.455040725238476
 20
-82.588655955828642
 30
0.0
 11
19.982034699388109
 21
-74.328240568376685
 31
0.0
  0
LINE
  8
default
 10
18.852112488385721
 20
-74.295363189895824
 30
0.0
 11
18.621496617643281
 21
-73.322318319315997
 31
0.0
  0
LINE
  8
default
 10
16.266219162908204
 20
-73.880529330428047
 30
0.0
 11
16.496835033650644
 21
-74.853574201007874
 31
0.0
  0
LINE
  8
default
 10
27.349806466637986
 20
-71.604407846379985
 30
0.0
 11
26.21253268254253
 21
-72.018341652002007
 31
0.0
  0
LINE
  8
default
 10
28.475905378546784
 20
-71.505886957579094
 30
0.0
 11
27.349806466637986
 21
-71.604407846379985
 31
0.0
  0
LINE
  8
default
 10
34.39126478200626
 20
-85.219231460275111
 30
0.0
 11
31.89116551656252
 21
-79.423349895087938
 31
0.0
  0
LINE
  8
default
 10
32.320903544275652
 20
-88.80095266426838
 30
0.0
 11
32.99193980269969
 21
-88.54326852134227
 31
0.0
  0
LINE
  8
default
 10
31.641223773092968
 20
-89.034888951065327
 30
0.0
 11
32.320903544275652
 21
-88.80095266426838
 31
0.0
  0
LINE
  8
default
 10
24.149289077960496
 20
-73.08064650608344
 30
0.0
 11
26.62229510381086
 21
-81.341061893535425
 31
0.0
  0
LINE
  8
default
 10
25.075258898447078
 20
-72.432275457624044
 30
0.0
 11
24.149289077960496
 21
-73.08064650608344
 31
0.0
  0
LINE
  8
default
 10
26.21253268254253
 20
-72.018341652002007
 30
0.0
 11
25.075258898447078
 21
-72.432275457624044
 31
0.0
  0
LINE
  8
default
 10
26.62229510381086
 20
-81.341061893535425
 30
0.0
 11
28.43262881158477
 21
-87.387997590336454
 31
0.0
  0
LINE
  8
default
 10
31.89116551656252
 20
-79.423349895087938
 30
0.0
 11
28.475905378546784
 21
-71.505886957579094
 31
0.0
  0
LINE
  8
default
 10
27.349806466637986
 20
-71.604407846379985
 30
0.0
 11
27.00778632331232
 21
-70.664715225594065
 31
0.0
  0
LINE
  8
default
 10
24.733238755121405
 20
-71.492582836838125
 30
0.0
 11
25.075258898447078
 21
-72.432275457624044
 31
0.0
  0
LINE
  8
default
 10
35.477641230581234
 20
-67.945125722949683
 30
0.0
 11
34.396112066712902
 21
-68.488290084013443
 31
0.0
  0
LINE
  8
default
 10
36.584688287417421
 20
-67.716538892877054
 30
0.0
 11
35.477641230581234
 21
-67.945125722949683
 31
0.0
  0
LINE
  8
default
 10
44.052072272484061
 20
-80.650427354638666
 30
0.0
 11
40.896017003055583
 21
-75.183979276493062
 31
0.0
  0
LINE
  8
default
 10
42.411522528943635
 20
-84.448284510562488
 30
0.0
 11
43.048106177169871
 21
-84.114440180902278
 31
0.0
  0
LINE
  8
default
 10
41.763596854477619
 20
-84.75954500918553
 30
0.0
 11
42.411522528943635
 21
-84.448284510562488
 31
0.0
  0
LINE
  8
default
 10
32.470145443475964
 20
-69.78293997530875
 30
0.0
 11
35.88540558149171
 21
-77.700402912817623
 31
0.0
  0
LINE
  8
default
 10
33.314582902844577
 20
-69.031454445077216
 30
0.0
 11
32.470145443475964
 21
-69.78293997530875
 31
0.0
  0
LINE
  8
default
 10
34.396112066712902
 20
-68.488290084013443
 30
0.0
 11
33.314582902844577
 21
-69.031454445077216
 31
0.0
  0
LINE
  8
default
 10
35.88540558149171
 20
-77.700402912817623
 30
0.0
 11
38.385504846935461
 21
-83.496284478004782
 31
0.0
  0
LINE
  8
default
 10
40.896017003055583
 20
-75.183979276493062
 30
0.0
 11
36.584688287417421
 21
-67.716538892877054
 31
0.0
  0
LINE
  8
default
 10
35.477641230581234
 20
-67.945125722949683
 30
0.0
 11
35.02884205038076
 21
-67.051493082626251
 31
0.0
  0
LINE
  8
default
 10
32.865783722644117
 20
-68.137821804753798
 30
0.0
 11
33.314582902844577
 21
-69.031454445077216
 31
0.0
  0
LINE
  8
layer10
 10
-1.9072025337675385
 20
-60.026270413378136
 30
0.0
 11
-2.2806543376925532
 21
-60.169566284355746
 31
0.0
  0
LINE
  8
layer10
 10
-26.428055024928703
 20
-68.363991728631561
 30
0.0
 11
-32.696352762391136
 21
-65.618992471509756
 31
0.0
  0
LINE
  8
layer10
 10
-32.675616305825166
 20
-64.724940566013203
 30
0.0
 11
-27.439851635989154
 21
-62.715943794684222
 31
0.0
  0
LINE
  8
layer10
 10
-25.984041208368474
 20
-62.157339916704991
 30
0.0
 11
-3.2244825278978091
 21
-53.424350030937219
 31
0.0
  0
LINE
  8
layer10
 10
-0.91952886796576649
 20
-55.028580879990969
 30
0.0
 11
-0.96192499053765346
 21
-58.668098704527033
 31
0.0
  0
LINE
  8
layer10
 10
-3.5614517802900671
 20
-60.661016547404287
 30
0.0
 11
-3.9978825167399066
 21
-60.82847784399366
 31
0.0
  0
LINE
  8
layer10
 10
-5.8884518834459101
 20
-54.59648467796228
 30
0.0
 11
-3.5614517802900671
 21
-60.661016547404287
 31
0.0
  0
LINE
  8
layer10
 10
-2.2806543376925532
 20
-60.169566284355746
 30
0.0
 11
-3.5614517802900671
 21
-60.661016547404287
 31
0.0
  0
LINE
  8
layer10
 10
-22.036254685750947
 20
-67.74991792485649
 30
0.0
 11
-23.606887550974523
 21
-68.352579914250711
 31
0.0
  0
LINE
  8
layer10
 10
-23.606887550974523
 20
-68.352579914250711
 30
0.0
 11
-23.795743170391923
 21
-68.425045032885649
 31
0.0
  0
LINE
  8
layer10
 10
-23.606887550974523
 20
-68.352579914250711
 30
0.0
 11
-25.302455687759085
 21
-63.933660040377461
 31
0.0
  0
LINE
  8
layer10
 10
-25.933887654130334
 20
-62.288048044808711
 30
0.0
 11
-5.8884518834459101
 21
-54.59648467796228
 31
0.0
  0
LINE
  8
layer10
 10
-25.302455687759085
 20
-63.933660040377461
 30
0.0
 11
-25.933887654130334
 21
-62.288048044808711
 31
0.0
  0
LINE
  8
layer10
 10
-27.439851635989154
 20
-62.715943794684222
 30
0.0
 11
-25.302455687759085
 21
-63.933660040377461
 31
0.0
  0
LINE
  8
layer10
 10
-25.933887654130334
 20
-62.288048044808711
 30
0.0
 11
-25.984041208368474
 21
-62.157339916704991
 31
0.0
  0
LINE
  8
layer10
 10
1.9072025337675029
 20
-60.026270413378128
 30
0.0
 11
2.2806543376924608
 21
-60.169566284355717
 31
0.0
  0
LINE
  8
layer10
 10
26.428055024928668
 20
-68.363991728631618
 30
0.0
 11
32.696352762391086
 21
-65.61899247150977
 31
0.0
  0
LINE
  8
layer10
 10
32.67561630582513
 20
-64.724940566013245
 30
0.0
 11
27.439851635989083
 21
-62.715943794684222
 31
0.0
  0
LINE
  8
layer10
 10
25.984041208368424
 20
-62.157339916705027
 30
0.0
 11
3.2244825278977558
 21
-53.424350030937205
 31
0.0
  0
LINE
  8
layer10
 10
0.91952886796568123
 20
-55.028580879990955
 30
0.0
 11
0.96192499053763569
 21
-58.668098704527011
 31
0.0
  0
LINE
  8
layer10
 10
2.2806543376924608
 20
-60.169566284355717
 30
0.0
 11
3.5614517802900387
 21
-60.661016547404273
 31
0.0
  0
LINE
  8
layer10
 10
22.036254685750883
 20
-67.749917924856518
 30
0.0
 11
23.606887550974449
 21
-68.352579914250697
 31
0.0
  0
LINE
  8
layer10
 10
23.606887550974449
 20
-68.352579914250697
 30
0.0
 11
23.795743170391845
 21
-68.425045032885663
 31
0.0
  0
LINE
  8
layer10
 10
23.606887550974449
 20
-68.352579914250697
 30
0.0
 11
25.302455687759036
 21
-63.933660040377461
 31
0.0
  0
LINE
  8
layer10
 10
25.93388765413027
 20
-62.288048044808718
 30
0.0
 11
5.8884518802534735
 21
-54.596484686282245
 31
0.0
  0
LINE
  8
layer10
 10
25.302455687759036
 20
-63.933660040377461
 30
0.0
 11
25.93388765413027
 21
-62.288048044808718
 31
0.0
  0
LINE
  8
layer10
 10
27.439851635989083
 20
-62.715943794684222
 30
0.0
 11
25.302455687759036
 21
-63.933660040377461
 31
0.0
  0
LINE
  8
layer10
 10
25.93388765413027
 20
-62.288048044808718
 30
0.0
 11
25.984041208368424
 21
-62.157339916705027
 31
0.0
  0
LINE
  8
layer10
 10
3.5614517802900387
 20
-60.661016547404273
 30
0.0
 11
3.9978058311690674
 21
-60.828448419244111
 31
0.0
  0
LINE
  8
layer10
 10
5.8884518802534735
 20
-54.596484686282245
 30
0.0
 11
3.5614517802900387
 21
-60.661016547404273
 31
0.0
  0
LINE
  8
layer10
 10
-9.0283808252975497
 20
-62.758712584320143
 30
0.0
 11
-22.036254685750947
 21
-67.74991792485649
 31
0.0
  0
LINE
  8
layer10
 10
9.0283482320258024
 20
-62.758700078070973
 30
0.0
 11
22.036254685750883
 21
-67.749917924856518
 31
0.0
  0
LINE
  8
layer10
 10
3.9978058311690674
 20
-60.828448419244111
 30
0.0
 11
7.3399142954181897
 21
-62.110837055109208
 31
0.0
  0
LINE
  8
layer10
 10
7.3399142954181897
 20
-62.110837055109208
 30
0.0
 11
7.9297048166802213
 21
-62.337143493125197
 31
0.0
  0
LINE
  8
layer10
 10
8.8785901774714482
 20
-62.701236943841749
 30
0.0
 11
9.0283482320258024
 21
-62.758700078070973
 31
0.0
  0
LINE
  8
layer10
 10
8.2579806509741083
 20
-62.463105054166945
 30
0.0
 11
8.8785901774714482
 21
-62.701236943841749
 31
0.0
  0
LINE
  8
layer10
 10
8.2116870762536465
 20
-62.445341910100808
 30
0.0
 11
8.2363853053103639
 21
-62.454818780348184
 31
0.0
  0
LINE
  8
layer10
 10
-3.9978825167399066
 20
-60.82847784399366
 30
0.0
 11
-5.7472874563008283
 21
-61.49973583517415
 31
0.0
  0
LINE
  8
layer10
 10
-5.7472874563008283
 20
-61.49973583517415
 30
0.0
 11
-9.0283808252975497
 21
-62.758712584320143
 31
0.0
  0
LINE
  8
layer10
 10
8.0794986376802846
 20
-62.394620351171007
 30
0.0
 11
8.0981753256163707
 21
-62.401786717140581
 31
0.0
  0
LINE
  8
layer10
 10
8.1784084765736154
 20
-62.432572696143907
 30
0.0
 11
8.2116870762536465
 21
-62.445341910100808
 31
0.0
  0
LINE
  8
layer10
 10
8.0187126406180909
 20
-62.371296370909413
 30
0.0
 11
8.0395363252904986
 21
-62.379286553414367
 31
0.0
  0
LINE
  8
layer10
 10
8.2363853053103639
 20
-62.454818780348184
 30
0.0
 11
8.2579806509741083
 21
-62.463105054166945
 31
0.0
  0
LINE
  8
layer10
 10
8.120633280907029
 20
-62.410403979852902
 30
0.0
 11
8.1784084765736154
 21
-62.432572696143907
 31
0.0
  0
LINE
  8
layer10
 10
8.0981753256163707
 20
-62.401786717140581
 30
0.0
 11
8.120633280907029
 21
-62.410403979852902
 31
0.0
  0
LINE
  8
layer10
 10
7.9297048166802213
 20
-62.337143493125197
 30
0.0
 11
7.9698734011445644
 21
-62.352556438811121
 31
0.0
  0
LINE
  8
layer10
 10
8.0395363252904986
 20
-62.379286553414367
 30
0.0
 11
8.0794986376802846
 21
-62.394620351171007
 31
0.0
  0
LINE
  8
layer10
 10
7.9698734011445644
 20
-62.352556438811121
 30
0.0
 11
8.0187126406180909
 21
-62.371296370909413
 31
0.0
  0
LINE
  8
default
 10
43.125701758202759
 20
-63.367002332884766
 30
0.0
 11
42.114543041157027
 21
-64.032051883196587
 31
0.0
  0
LINE
  8
default
 10
44.198726047644001
 20
-63.011440806280127
 30
0.0
 11
43.125701758202759
 21
-63.367002332884766
 31
0.0
  0
LINE
  8
default
 10
53.117151056096681
 20
-74.99096457353923
 30
0.0
 11
49.347820016040558
 21
-69.927874315088516
 31
0.0
  0
LINE
  8
default
 10
51.928598427691178
 20
-78.953598178522483
 30
0.0
 11
52.52212076392636
 21
-78.548108333982285
 31
0.0
  0
LINE
  8
default
 10
51.321188933182938
 20
-79.337973624690093
 30
0.0
 11
51.928598427691178
 21
-78.953598178522483
 31
0.0
  0
LINE
  8
default
 10
40.351898793879762
 20
-65.541538892877028
 30
0.0
 11
44.663227509517952
 21
-73.008979276493051
 31
0.0
  0
LINE
  8
default
 10
41.103384324111296
 20
-64.697101433508408
 30
0.0
 11
40.351898793879762
 21
-65.541538892877028
 31
0.0
  0
LINE
  8
default
 10
42.114543041157027
 20
-64.032051883196587
 30
0.0
 11
41.103384324111296
 21
-64.697101433508408
 31
0.0
  0
LINE
  8
default
 10
44.663227509517952
 20
-73.008979276493051
 30
0.0
 11
47.819282778946423
 21
-78.47542735463864
 31
0.0
  0
LINE
  8
default
 10
49.347820016040558
 20
-69.927874315088516
 30
0.0
 11
44.198726047644001
 21
-63.011440806280127
 31
0.0
  0
LINE
  8
default
 10
43.125701758202759
 20
-63.367002332884766
 30
0.0
 11
42.576192780131947
 21
-62.53151452147182
 31
0.0
  0
LINE
  8
default
 10
40.553875346040492
 20
-63.861613622095476
 30
0.0
 11
41.103384324111296
 21
-64.697101433508408
 31
0.0
  0
LINE
  8
default
 10
50.190561150990987
 20
-57.931948941339016
 30
0.0
 11
49.263447067789414
 21
-58.709890026612719
 31
0.0
  0
LINE
  8
default
 10
51.215051860278471
 20
-57.454221077889613
 30
0.0
 11
50.190561150990987
 21
-57.931948941339016
 31
0.0
  0
LINE
  8
default
 10
61.463911493292258
 20
-68.317377642373998
 30
0.0
 11
57.132278418698576
 21
-63.726114813714013
 31
0.0
  0
LINE
  8
default
 10
60.743429115377978
 20
-72.391199874743421
 30
0.0
 11
61.28586376820251
 21
-71.919548069859317
 31
0.0
  0
LINE
  8
default
 10
60.18474997223953
 20
-72.843492249936048
 30
0.0
 11
60.743429115377978
 21
-72.391199874743421
 31
0.0
  0
LINE
  8
default
 10
47.687961936128445
 20
-60.413800932373015
 30
0.0
 11
52.837055904525009
 21
-67.330234441181432
 31
0.0
  0
LINE
  8
default
 10
48.336332984587834
 20
-59.487831111886408
 30
0.0
 11
47.687961936128445
 21
-60.413800932373015
 31
0.0
  0
LINE
  8
default
 10
49.263447067789414
 20
-58.709890026612719
 30
0.0
 11
48.336332984587834
 21
-59.487831111886408
 31
0.0
  0
LINE
  8
default
 10
52.837055904525009
 20
-67.330234441181432
 30
0.0
 11
56.606386944581139
 21
-72.393324699632117
 31
0.0
  0
LINE
  8
default
 10
57.132278418698576
 20
-63.726114813714013
 30
0.0
 11
51.215051860278471
 21
-57.454221077889613
 31
0.0
  0
LINE
  8
default
 10
50.190561150990987
 20
-57.931948941339016
 30
0.0
 11
49.547773541304444
 21
-57.16590449822003
 31
0.0
  0
LINE
  8
default
 10
47.693545374901291
 20
-58.721786668767436
 30
0.0
 11
48.336332984587834
 21
-59.487831111886408
 31
0.0
  0
LINE
  8
default
 10
56.57667930531094
 20
-51.713465321686527
 30
0.0
 11
55.746147483479547
 21
-52.593777623289185
 31
0.0
  0
LINE
  8
default
 10
57.538781955098862
 20
-51.120031571211086
 30
0.0
 11
56.57667930531094
 21
-51.713465321686527
 31
0.0
  0
LINE
  8
default
 10
68.979477967890773
 20
-60.719915375956163
 30
0.0
 11
64.144120765246683
 21
-56.662568930607087
 31
0.0
  0
LINE
  8
default
 10
68.736809128653107
 20
-64.849834778595309
 30
0.0
 11
69.220820599925446
 21
-64.318399294917299
 31
0.0
  0
LINE
  8
default
 10
68.234415513890326
 20
-65.36392760433877
 30
0.0
 11
68.736809128653107
 21
-64.849834778595309
 31
0.0
  0
LINE
  8
default
 10
54.379127201121221
 20
-54.469069953160613
 30
0.0
 11
60.296353759541347
 21
-60.74096368898504
 31
0.0
  0
LINE
  8
default
 10
54.915615661648161
 20
-53.474089924891835
 30
0.0
 11
54.379127201121221
 21
-54.469069953160613
 31
0.0
  0
LINE
  8
default
 10
55.746147483479547
 20
-52.593777623289185
 30
0.0
 11
54.915615661648161
 21
-53.474089924891835
 31
0.0
  0
LINE
  8
default
 10
60.296353759541347
 20
-60.74096368898504
 30
0.0
 11
64.627986834135015
 21
-65.332226517645026
 31
0.0
  0
LINE
  8
default
 10
64.144120765246683
 20
-56.662568930607087
 30
0.0
 11
57.538781955098862
 21
-51.120031571211086
 31
0.0
  0
LINE
  8
default
 10
56.57667930531094
 20
-51.713465321686527
 30
0.0
 11
55.84930566373788
 21
-51.027223683817795
 31
0.0
  0
LINE
  8
default
 10
54.188242020075108
 20
-52.787848287023103
 30
0.0
 11
54.915615661648161
 21
-53.474089924891835
 31
0.0
  0
LINE
  8
default
 10
62.197694928408239
 20
-44.795645797174707
 30
0.0
 11
61.47497688607335
 21
-45.766424601388692
 31
0.0
  0
LINE
  8
default
 10
63.084398730829804
 20
-44.09453133312234
 30
0.0
 11
62.197694928408239
 21
-44.795645797174707
 31
0.0
  0
LINE
  8
default
 10
75.562215336156498
 20
-52.301320418114905
 30
0.0
 11
70.288523916650377
 21
-48.832759006437641
 31
0.0
  0
LINE
  8
default
 10
75.800641715351645
 20
-56.431486915913297
 30
0.0
 11
76.219684580236716
 21
-55.84745450668909
 31
0.0
  0
LINE
  8
default
 10
75.361327640756059
 20
-57.000427968657362
 30
0.0
 11
75.800641715351645
 21
-56.431486915913297
 31
0.0
  0
LINE
  8
default
 10
60.33490805723531
 20
-47.787738243643531
 30
0.0
 11
66.940246867383138
 21
-53.330275603039553
 31
0.0
  0
LINE
  8
default
 10
60.752258843738446
 20
-46.737203405602685
 30
0.0
 11
60.33490805723531
 21
-47.787738243643531
 31
0.0
  0
LINE
  8
default
 10
61.47497688607335
 20
-45.766424601388692
 30
0.0
 11
60.752258843738446
 21
-46.737203405602685
 31
0.0
  0
LINE
  8
default
 10
66.940246867383138
 20
-53.330275603039553
 30
0.0
 11
71.775604070027242
 21
-57.387622048388621
 31
0.0
  0
LINE
  8
default
 10
70.288523916650377
 20
-48.832759006437641
 30
0.0
 11
63.084398730829804
 21
-44.09453133312234
 31
0.0
  0
LINE
  8
default
 10
62.197694928408239
 20
-44.795645797174707
 30
0.0
 11
61.395571735653192
 21
-44.198487205471913
 31
0.0
  0
LINE
  8
default
 10
59.950135650983398
 20
-46.140044813899905
 30
0.0
 11
60.752258843738446
 21
-46.737203405602685
 31
0.0
  0
LINE
  8
default
 10
66.977593426742203
 20
-37.272042009464599
 30
0.0
 11
66.372462685615233
 21
-38.32015919831835
 31
0.0
  0
LINE
  8
default
 10
67.776907233995757
 20
-36.472728202211087
 30
0.0
 11
66.977593426742203
 21
-37.272042009464599
 31
0.0
  0
LINE
  8
default
 10
81.12310336776352
 20
-43.175439823691022
 30
0.0
 11
75.482395360911539
 21
-40.342569788517331
 31
0.0
  0
LINE
  8
default
 10
81.839400657629454
 20
-47.25
 30
0.0
 11
82.187808080240956
 21
-46.621268701666182
 31
0.0
  0
LINE
  8
default
 10
81.469107092423769
 20
-47.866095328015518
 30
0.0
 11
81.839400657629454
 21
-47.25
 31
0.0
  0
LINE
  8
default
 10
65.474762785437804
 20
-40.460159353476058
 30
0.0
 11
72.678887971258405
 21
-45.19838702679138
 31
0.0
  0
LINE
  8
default
 10
65.767331944488262
 20
-39.368276387172074
 30
0.0
 11
65.474762785437804
 21
-40.460159353476058
 31
0.0
  0
LINE
  8
default
 10
66.372462685615233
 20
-38.32015919831835
 30
0.0
 11
65.767331944488262
 21
-39.368276387172074
 31
0.0
  0
LINE
  8
default
 10
72.678887971258405
 20
-45.19838702679138
 30
0.0
 11
77.952579390764527
 21
-48.666948438468623
 31
0.0
  0
LINE
  8
default
 10
75.482395360911539
 20
-40.342569788517331
 30
0.0
 11
67.776907233995757
 21
-36.472728202211087
 31
0.0
  0
LINE
  8
default
 10
66.977593426742203
 20
-37.272042009464599
 30
0.0
 11
66.111568022957769
 21
-36.772042009464613
 31
0.0
  0
LINE
  8
default
 10
64.901306540703814
 20
-38.868276387172074
 30
0.0
 11
65.767331944488262
 21
-39.368276387172074
 31
0.0
  0
LINE
  8
default
 10
70.851734872961742
 20
-29.24439779316398
 30
0.0
 11
70.372374788224391
 21
-30.355679379706338
 31
0.0
  0
LINE
  8
default
 10
71.552849337014109
 20
-28.357693990742415
 30
0.0
 11
70.851734872961742
 21
-29.24439779316398
 31
0.0
  0
LINE
  8
default
 10
85.586940591698124
 20
-33.465685472423012
 30
0.0
 11
79.655496896749298
 21
-31.306816521235699
 31
0.0
  0
LINE
  8
default
 10
86.771422100185902
 20
-37.42953789070031
 30
0.0
 11
87.044482467820359
 21
-36.76461021548846
 31
0.0
  0
LINE
  8
default
 10
86.475156629606843
 20
-38.084455861577482
 30
0.0
 11
86.771422100185902
 21
-37.42953789070031
 31
0.0
  0
LINE
  8
default
 10
69.729183667867773
 20
-32.58542621680423
 30
0.0
 11
77.434671794783569
 21
-36.455267803110502
 31
0.0
  0
LINE
  8
default
 10
69.89301470348704
 20
-31.466960966248713
 30
0.0
 11
69.729183667867773
 21
-32.58542621680423
 31
0.0
  0
LINE
  8
default
 10
70.372374788224391
 20
-30.355679379706338
 30
0.0
 11
69.89301470348704
 21
-31.466960966248713
 31
0.0
  0
LINE
  8
default
 10
77.434671794783569
 20
-36.455267803110502
 30
0.0
 11
83.075379801635535
 21
-39.288137838284186
 31
0.0
  0
LINE
  8
default
 10
79.655496896749298
 20
-31.306816521235699
 30
0.0
 11
71.552849337014109
 21
-28.357693990742415
 31
0.0
  0
LINE
  8
default
 10
70.851734872961742
 20
-29.24439779316398
 30
0.0
 11
69.933518766081448
 21
-28.848318027124812
 31
0.0
  0
LINE
  8
default
 10
68.97479859660676
 20
-31.070881200209563
 30
0.0
 11
69.89301470348704
 21
-31.466960966248713
 31
0.0
  0
LINE
  8
default
 10
73.767728150033918
 20
-20.821273265003953
 30
0.0
 11
73.420621244497767
 21
-21.980691072162642
 31
0.0
  0
LINE
  8
default
 10
74.361161900509373
 20
-19.859170615216041
 30
0.0
 11
73.767728150033918
 21
-20.821273265003953
 31
0.0
  0
LINE
  8
default
 10
88.893361267147441
 20
-23.303365134984645
 30
0.0
 11
82.751394484779837
 21
-21.847692266843609
 31
0.0
  0
LINE
  8
default
 10
90.530008913813703
 20
-27.102905491198023
 30
0.0
 11
90.724029553429489
 21
-26.41077344524264
 31
0.0
  0
LINE
  8
default
 10
90.311778020112229
 20
-27.787789462881953
 30
0.0
 11
90.530008913813703
 21
-27.102905491198023
 31
0.0
  0
LINE
  8
default
 10
73.040636960480768
 20
-24.270031090323705
 30
0.0
 11
81.143284520215957
 21
-27.219153620816993
 31
0.0
  0
LINE
  8
default
 10
73.073514338961616
 20
-23.140108879321314
 30
0.0
 11
73.040636960480768
 21
-24.270031090323705
 31
0.0
  0
LINE
  8
default
 10
73.420621244497767
 20
-21.980691072162642
 30
0.0
 11
73.073514338961616
 21
-23.140108879321314
 31
0.0
  0
LINE
  8
default
 10
81.143284520215957
 20
-27.219153620816993
 30
0.0
 11
87.074728215164782
 21
-29.378022572004316
 31
0.0
  0
LINE
  8
default
 10
82.751394484779837
 20
-21.847692266843609
 30
0.0
 11
74.361161900509373
 21
-19.859170615216041
 31
0.0
  0
LINE
  8
default
 10
73.767728150033918
 20
-20.821273265003953
 30
0.0
 11
72.809738637718425
 21
-20.534470032292862
 31
0.0
  0
LINE
  8
default
 10
72.115524826646123
 20
-22.85330564661022
 30
0.0
 11
73.073514338961616
 21
-23.140108879321314
 31
0.0
  0
LINE
  8
default
 10
75.686139451225856
 20
-12.116576734493531
 30
0.0
 11
75.475979750331973
 21
-13.308451625389264
 31
0.0
  0
LINE
  8
default
 10
76.163867314675258
 20
-11.092086025206047
 30
0.0
 11
75.686139451225856
 21
-12.116576734493531
 31
0.0
  0
LINE
  8
default
 10
90.997651726587435
 20
-12.82590676064298
 30
0.0
 11
84.728221421087554
 21
-12.093115453906492
 31
0.0
  0
LINE
  8
default
 10
93.064332659653672
 20
-16.409752789524916
 30
0.0
 11
93.176689774939277
 21
-15.699776271406179
 31
0.0
  0
LINE
  8
default
 10
92.927087541295506
 20
-17.115340881205988
 30
0.0
 11
93.064332659653672
 21
-16.409752789524916
 31
0.0
  0
LINE
  8
default
 10
75.364340938238996
 20
-15.626425428193802
 30
0.0
 11
83.754573522509475
 21
-17.614947079821381
 31
0.0
  0
LINE
  8
default
 10
75.265820049438105
 20
-14.500326516285007
 30
0.0
 11
75.364340938238996
 21
-15.626425428193802
 31
0.0
  0
LINE
  8
default
 10
75.475979750331973
 20
-13.308451625389264
 30
0.0
 11
75.265820049438105
 21
-14.500326516285007
 31
0.0
  0
LINE
  8
default
 10
83.754573522509475
 20
-17.614947079821381
 30
0.0
 11
89.896540304877078
 21
-19.070619947962406
 31
0.0
  0
LINE
  8
default
 10
84.728221421087554
 20
-12.093115453906492
 30
0.0
 11
76.163867314675258
 21
-11.092086025206047
 31
0.0
  0
LINE
  8
default
 10
75.686139451225856
 20
-12.116576734493531
 30
0.0
 11
74.701331698213636
 21
-11.942928556826594
 31
0.0
  0
LINE
  8
default
 10
74.281012296425885
 20
-14.326678338618073
 30
0.0
 11
75.265820049438105
 21
-14.500326516285007
 31
0.0
  0
LINE
  8
default
 10
76.581025554692559
 20
-3.2480242894412328
 30
0.0
 11
76.510655107869965
 21
-4.4562382008168271
 31
0.0
  0
LINE
  8
default
 10
76.936587081297205
 20
-2.1749999999999901
 30
0.0
 11
76.581025554692559
 21
-3.2480242894412328
 31
0.0
  0
LINE
  8
default
 10
91.871355051430513
 20
-2.1749999999999972
 30
0.0
 11
85.559244512573571
 21
-2.1749999999999901
 31
0.0
  0
LINE
  8
default
 10
94.340120956634848
 20
-5.4946863320399615
 30
0.0
 11
94.369295110352851
 21
-4.7764665562121635
 31
0.0
  0
LINE
  8
default
 10
94.285717618404007
 20
-6.2114366752032097
 30
0.0
 11
94.340120956634848
 21
-5.4946863320399615
 31
0.0
  0
LINE
  8
default
 10
76.668871491119987
 20
-6.7714991690286013
 30
0.0
 11
85.233225597532311
 21
-7.7725285977290426
 31
0.0
  0
LINE
  8
default
 10
76.440284661047372
 20
-5.6644521121924249
 30
0.0
 11
76.668871491119987
 21
-6.7714991690286013
 31
0.0
  0
LINE
  8
default
 10
76.510655107869965
 20
-4.4562382008168271
 30
0.0
 11
76.440284661047372
 21
-5.6644521121924249
 31
0.0
  0
LINE
  8
default
 10
85.233225597532311
 20
-7.7725285977290426
 30
0.0
 11
91.502655903032192
 21
-8.505319904465523
 31
0.0
  0
LINE
  8
default
 10
85.559244512573571
 20
-2.1749999999999901
 30
0.0
 11
76.936587081297205
 21
-2.1749999999999901
 31
0.0
  0
LINE
  8
default
 10
76.581025554692559
 20
-3.2480242894412328
 30
0.0
 11
75.582717396421288
 21
-3.1898794605307543
 31
0.0
  0
LINE
  8
default
 10
75.4419765027761
 20
-5.6063072832819429
 30
0.0
 11
76.440284661047372
 21
-5.6644521121924249
 31
0.0
  0
LINE
  8
layer10
 10
51.030673805535955
 20
-31.664821051093771
 30
0.0
 11
50.968045768097483
 21
-32.05988773587076
 31
0.0
  0
LINE
  8
layer10
 10
45.990926028639862
 20
-57.069362888516991
 30
0.0
 11
40.479538069871744
 21
-61.125368339083074
 31
0.0
  0
LINE
  8
layer10
 10
39.71563463569283
 20
-60.6603840881642
 30
0.0
 11
40.593674730519027
 21
-55.121580490184684
 31
0.0
  0
LINE
  8
layer10
 10
40.837814795346844
 20
-53.581509737781268
 30
0.0
 11
44.654603043514712
 21
-29.504658798687153
 31
0.0
  0
LINE
  8
layer10
 10
47.196384542295959
 20
-28.310625799166957
 30
0.0
 11
50.327101374584522
 21
-30.167100830604198
 31
0.0
  0
LINE
  8
layer10
 10
50.753255459295303
 20
-33.414815989786625
 30
0.0
 11
50.680065828067455
 21
-33.876506742839219
 31
0.0
  0
LINE
  8
layer10
 10
44.337716746720261
 20
-32.39779125900759
 30
0.0
 11
50.753255459295303
 21
-33.414815989786625
 31
0.0
  0
LINE
  8
layer10
 10
50.968045768097483
 20
-32.05988773587076
 30
0.0
 11
50.753255459295303
 21
-33.414815989786625
 31
0.0
  0
LINE
  8
layer10
 10
47.655022684360986
 20
-52.958915324552407
 30
0.0
 11
47.391626844459857
 21
-54.620454280551883
 31
0.0
  0
LINE
  8
layer10
 10
47.391626844459857
 20
-54.620454280551883
 30
0.0
 11
47.359955668377268
 21
-54.820240603932263
 31
0.0
  0
LINE
  8
layer10
 10
47.391626844459857
 20
-54.620454280551883
 30
0.0
 11
42.716945908005414
 21
-53.879399423918137
 31
0.0
  0
LINE
  8
layer10
 10
40.976088131884843
 20
-53.603429549772827
 30
0.0
 11
44.337716746720261
 21
-32.39779125900759
 31
0.0
  0
LINE
  8
layer10
 10
42.716945908005414
 20
-53.879399423918137
 30
0.0
 11
40.976088131884843
 21
-53.603429549772827
 31
0.0
  0
LINE
  8
layer10
 10
40.593674730519027
 20
-55.121580490184684
 30
0.0
 11
42.716945908005414
 21
-53.879399423918137
 31
0.0
  0
LINE
  8
layer10
 10
40.976088131884843
 20
-53.603429549772827
 30
0.0
 11
40.837814795346844
 21
-53.581509737781268
 31
0.0
  0
LINE
  8
layer10
 10
52.937876339303472
 20
-28.361449362284326
 30
0.0
 11
53.248700105789958
 21
-28.109678548484982
 31
0.0
  0
LINE
  8
layer10
 10
72.418981053568572
 20
-11.294628840114555
 30
0.0
 11
73.175890832262823
 21
-4.4936241324266497
 31
0.0
  0
LINE
  8
layer10
 10
72.391250941517981
 20
-4.0645564778489707
 30
0.0
 11
68.033526366508113
 21
-7.594363304499538
 31
0.0
  0
LINE
  8
layer10
 10
66.821856003715283
 20
-8.5758301789237166
 30
0.0
 11
47.879085571412475
 21
-23.919691232250052
 31
0.0
  0
LINE
  8
layer10
 10
48.115913410261669
 20
-26.717955080824019
 30
0.0
 11
51.28902636512214
 21
-28.500997873922771
 31
0.0
  0
LINE
  8
layer10
 10
53.248700105789958
 20
-28.109678548484982
 30
0.0
 11
54.314707239585346
 21
-27.24620055761762
 31
0.0
  0
LINE
  8
layer10
 10
69.691277370111891
 20
-14.791002600304076
 30
0.0
 11
70.998514395434313
 21
-13.732125633698818
 31
0.0
  0
LINE
  8
layer10
 10
70.998514395434313
 20
-13.732125633698818
 30
0.0
 11
71.155698838769126
 21
-13.604804428953393
 31
0.0
  0
LINE
  8
layer10
 10
70.998514395434313
 20
-13.732125633698818
 30
0.0
 11
68.019401595764435
 21
-10.054260616459306
 31
0.0
  0
LINE
  8
layer10
 10
66.909975786015124
 20
-8.6846184950358847
 30
0.0
 11
50.226168635775252
 21
-22.198693425879338
 31
0.0
  0
LINE
  8
layer10
 10
68.019401595764435
 20
-10.054260616459306
 30
0.0
 11
66.909975786015124
 21
-8.6846184950358847
 31
0.0
  0
LINE
  8
layer10
 10
68.033526366508113
 20
-7.594363304499538
 30
0.0
 11
68.019401595764435
 21
-10.054260616459306
 31
0.0
  0
LINE
  8
layer10
 10
66.909975786015124
 20
-8.6846184950358847
 30
0.0
 11
66.821856003715283
 21
-8.5758301789237166
 31
0.0
  0
LINE
  8
layer10
 10
54.314707239585346
 20
-27.24620055761762
 30
0.0
 11
54.677884519441335
 21
-26.952022800432047
 31
0.0
  0
LINE
  8
layer10
 10
50.226168635775252
 20
-22.198693425879338
 30
0.0
 11
54.314707239585346
 21
-27.24620055761762
 31
0.0
  0
LINE
  8
layer10
 10
49.836448994178639
 20
-39.198163441908036
 30
0.0
 11
47.655022684360986
 21
-52.958915324552407
 31
0.0
  0
LINE
  8
layer10
 10
58.864802692110814
 20
-23.560571115888781
 30
0.0
 11
69.691277370111891
 21
-14.791002600304076
 31
0.0
  0
LINE
  8
layer10
 10
54.677884519441335
 20
-26.952022800432047
 30
0.0
 11
57.459519887749536
 21
-24.698866286121856
 31
0.0
  0
LINE
  8
layer10
 10
57.459519887749536
 20
-24.698866286121856
 30
0.0
 11
57.950402272742366
 21
-24.301245930805667
 31
0.0
  0
LINE
  8
layer10
 10
58.740159130810056
 20
-23.661533828439577
 30
0.0
 11
58.864802692110814
 21
-23.560571115888781
 31
0.0
  0
LINE
  8
layer10
 10
58.223626101651817
 20
-24.079931499379502
 30
0.0
 11
58.740159130810056
 21
-23.661533828439577
 31
0.0
  0
LINE
  8
layer10
 10
58.185095980279222
 20
-24.111141339086341
 30
0.0
 11
58.205652305190178
 21
-24.094490480418436
 31
0.0
  0
LINE
  8
layer10
 10
50.680065828067455
 20
-33.876506742839219
 30
0.0
 11
50.386689831142618
 21
-35.727164857595206
 31
0.0
  0
LINE
  8
layer10
 10
50.386689831142618
 20
-35.727164857595206
 30
0.0
 11
49.836448994178639
 21
-39.198163441908036
 31
0.0
  0
LINE
  8
layer10
 10
58.075075602439782
 20
-24.200259105512572
 30
0.0
 11
58.090620201390294
 21
-24.187667802286168
 31
0.0
  0
LINE
  8
layer10
 10
58.157398216766168
 20
-24.133576844833176
 30
0.0
 11
58.185095980279222
 21
-24.111141339086341
 31
0.0
  0
LINE
  8
layer10
 10
58.024483444484787
 20
-24.241239333032006
 30
0.0
 11
58.041814987851154
 21
-24.227200584357782
 31
0.0
  0
LINE
  8
layer10
 10
58.205652305190178
 20
-24.094490480418436
 30
0.0
 11
58.223626101651817
 21
-24.079931499379502
 31
0.0
  0
LINE
  8
layer10
 10
58.109311947455581
 20
-24.172527273843549
 30
0.0
 11
58.157398216766168
 21
-24.133576844833176
 31
0.0
  0
LINE
  8
layer10
 10
58.090620201390294
 20
-24.187667802286168
 30
0.0
 11
58.109311947455581
 21
-24.172527273843549
 31
0.0
  0
LINE
  8
layer10
 10
57.950402272742366
 20
-24.301245930805667
 30
0.0
 11
57.983834567485701
 21
-24.274165389068447
 31
0.0
  0
LINE
  8
layer10
 10
58.041814987851154
 20
-24.227200584357782
 30
0.0
 11
58.075075602439782
 21
-24.200259105512572
 31
0.0
  0
LINE
  8
layer10
 10
57.983834567485701
 20
-24.274165389068447
 30
0.0
 11
58.024483444484787
 21
-24.241239333032006
 31
0.0
  0
ARC
  8
layer10
 10
7.9998258826208257e-006
 20
-0.00013581172904642003
 30
0
 40
74.949992000297186
 50
0.00010382174400642451
 51
4.3683025039993089
  0
ARC
  8
default
 10
-3.5527136788005009e-013
 20
3.7524499630295107e-013
 30
0
 40
75.650000000000361
 50
359.99999999999966
 51
2.4166666666663712
  0
ARC
  8
default
 10
91.792888188345231
 20
6.0222240101109623
 30
0
 40
2.4999999999997122
 50
4.340585579820659
 51
96.666666666666899
  0
ARC
  8
default
 10
91.871355051430513
 20
4.6749999999997129
 30
0
 40
2.4999999999997122
 50
270.00000000000034
 51
2.3260810868459956
  0
ARC
  8
default
 10
-4.2632564145606011e-014
 20
-1.1368683772161603e-013
 30
0
 40
75.650000000000063
 50
4.2500000000000844
 51
6.6666666666667487
  0
ARC
  8
default
 10
1.4210854715202004e-014
 20
7.3718808835110394e-014
 30
0
 40
75.649999999999977
 50
2.4166666666666115
 51
4.2499999999999458
  0
ARC
  8
default
 10
90.473079981733093
 20
16.638007771513124
 30
0
 40
2.4999999999997202
 50
11.00725224648753
 51
103.33333333333317
  0
ARC
  8
default
 10
90.707419441274382
 20
15.309002654997556
 30
0
 40
2.4999999999997113
 50
276.66666666666725
 51
8.9927477535127416
  0
ARC
  8
default
 10
-9.9475983006414026e-014
 20
4.2632564145606011e-013
 30
0
 40
75.650000000000048
 50
10.916666666666336
 51
13.333333333333005
  0
ARC
  8
default
 10
-2.8421709430404007e-014
 20
5.1514348342607263e-014
 30
0
 40
75.650000000000034
 50
9.0833333333332931
 51
10.916666666666625
  0
ARC
  8
default
 10
87.929778573478856
 20
27.028791020039812
 30
0
 40
2.4999999999997167
 50
17.673918913154086
 51
110.00000000000031
  0
ARC
  8
default
 10
88.316821590291397
 20
25.735977311433921
 30
0
 40
2.4999999999997145
 50
283.33333333333388
 51
15.659414420179372
  0
ARC
  8
default
 10
-9.9475983006414026e-014
 20
4.2632564145606011e-014
 30
0
 40
75.650000000000091
 50
17.583333333333282
 51
19.999999999999947
  0
ARC
  8
default
 10
9.9475983006414026e-014
 20
-1.5276668818842154e-013
 30
0
 40
75.649999999999963
 50
15.750000000000135
 51
17.583333333333464
  0
ARC
  8
default
 10
84.197377752136561
 20
37.054056237475912
 30
0
 40
2.49999999999971
 50
24.340585579820679
 51
116.66666666666701
  0
ARC
  8
default
 10
84.731890233384036
 20
35.814917024387512
 30
0
 40
2.49999999999971
 50
290.00000000000034
 51
22.326081086846081
  0
ARC
  8
default
 10
9.9475983006414026e-014
 20
-3.943512183468556e-013
 30
0
 40
75.650000000000077
 50
24.250000000000306
 51
26.66666666666697
  0
ARC
  8
default
 10
-4.2632564145606011e-014
 20
-1.9184653865522705e-013
 30
0
 40
75.650000000000134
 50
22.416666666666785
 51
24.250000000000121
  0
ARC
  8
default
 10
79.326351835941367
 20
46.578228909936527
 30
0
 40
2.4999999999997113
 50
31.00725224648756
 51
123.33333333333326
  0
ARC
  8
default
 10
80.00110541726248
 20
45.409521424499303
 30
0
 40
2.4999999999997105
 50
296.66666666666703
 51
28.99274775351266
  0
ARC
  8
default
 10
4.8316906031686813e-013
 20
-6.6080474425689317e-013
 30
0
 40
75.649999999999935
 50
30.916666666667282
 51
33.33333333333394
  0
ARC
  8
default
 10
-7.1054273576010019e-014
 20
-1.9184653865522705e-013
 30
0
 40
75.650000000000148
 50
29.083333333333432
 51
30.916666666666764
  0
ARC
  8
default
 10
73.382573094243398
 20
55.472510940591391
 30
0
 40
2.4999999999997131
 50
37.673918913154147
 51
130.00000000000023
  0
ARC
  8
default
 10
74.188442890979644
 20
54.390039946646993
 30
0
 40
2.4999999999997109
 50
303.33333333333371
 51
35.659414420179466
  0
ARC
  8
default
 10
2.8421709430404007e-014
 20
-5.3290705182007514e-013
 30
0
 40
75.650000000000304
 50
37.583333333333663
 51
40.000000000000327
  0
ARC
  8
default
 10
1.7053025658242404e-013
 20
1.2789769243681803e-013
 30
0
 40
75.649999999999807
 50
35.749999999999993
 51
37.583333333333336
  0
ARC
  8
default
 10
66.446420938067433
 20
63.616622422973379
 30
0
 40
2.4999999999997145
 50
44.340585579820967
 51
136.66666666666683
  0
ARC
  8
default
 10
67.372508943674603
 20
62.635026483753386
 30
0
 40
2.4999999999997176
 50
310.00000000000045
 51
42.326081086846017
  0
ARC
  8
default
 10
-1.3500311979441904e-013
 20
-3.5527136788005009e-014
 30
0
 40
75.650000000000134
 50
44.24999999999995
 51
46.666666666666607
  0
ARC
  8
default
 10
1.1368683772161603e-013
 20
2.2026824808563106e-013
 30
0
 40
75.649999999999778
 50
42.4166666666666
 51
44.249999999999943
  0
ARC
  8
default
 10
58.611694926468495
 20
70.900428220375332
 30
0
 40
2.4999999999996985
 50
51.0072522464869
 51
143.33333333333374
  0
ARC
  8
default
 10
59.645477389359833
 20
70.032981737045645
 30
0
 40
2.4999999999997096
 50
316.66666666666714
 51
48.992747753512809
  0
ARC
  8
default
 10
-1.0658141036401503e-013
 20
-4.9737991503207013e-013
 30
0
 40
75.650000000000475
 50
50.916666666666842
 51
53.333333333333492
  0
ARC
  8
default
 10
-9.9475983006414026e-014
 20
2.4868995751603507e-013
 30
0
 40
75.649999999999892
 50
49.083333333333151
 51
50.916666666666501
  0
ARC
  8
default
 10
49.984346288407259
 20
77.225427354638782
 30
0
 40
2.4999999999997087
 50
57.673918913153791
 51
149.99999999999991
  0
ARC
  8
default
 10
51.111843074209297
 20
76.483861052796016
 30
0
 40
2.4999999999997118
 50
323.33333333333354
 51
55.659414420179388
  0
ARC
  8
default
 10
-1.1368683772161603e-013
 20
-5.0448534238967113e-013
 30
0
 40
75.650000000000489
 50
57.583333333333464
 51
60.000000000000121
  0
ARC
  8
default
 10
-1.6342482922482304e-013
 20
-8.5265128291212022e-014
 30
0
 40
75.650000000000162
 50
55.749999999999936
 51
57.583333333333265
  0
ARC
  8
default
 10
-1.4210854715202004e-014
 20
1.7053025658242404e-013
 30
0
 40
75.650000000000006
 50
6.6666666666665373
 51
9.0833333333332043
  0
ARC
  8
default
 10
1.7053025658242404e-013
 20
-5.6843418860808015e-013
 30
0
 40
75.649999999999991
 50
13.333333333333783
 51
15.750000000000451
  0
ARC
  8
default
 10
-3.4106051316484809e-013
 20
1.4566126083082054e-013
 30
0
 40
75.650000000000261
 50
19.999999999999808
 51
22.416666666666462
  0
ARC
  8
default
 10
-5.6843418860808015e-013
 20
2.9842794901924208e-013
 30
0
 40
75.650000000000375
 50
26.666666666666273
 51
29.083333333332931
  0
ARC
  8
default
 10
-2.2026824808563106e-013
 20
7.673861546209082e-013
 30
0
 40
75.649999999999736
 50
33.333333333332746
 51
35.749999999999424
  0
ARC
  8
default
 10
-2.6290081223123707e-013
 20
1.1368683772161603e-013
 30
0
 40
75.650000000000105
 50
39.999999999999801
 51
42.416666666666465
  0
ARC
  8
default
 10
-4.9737991503207013e-014
 20
-9.2370555648813024e-014
 30
0
 40
75.650000000000105
 50
46.666666666666679
 51
49.08333333333335
  0
ARC
  8
default
 10
-7.1054273576010019e-015
 20
-1.8474111129762605e-013
 30
0
 40
75.650000000000148
 50
53.333333333333407
 51
55.750000000000071
  0
ARC
  8
layer10
 10
68.973854514984751
 20
10.911207560165991
 30
0
 40
3.4663970841165277
 50
6.3505321105031181
 51
50.992131080502467
  0
ARC
  8
layer10
 10
72.695493158694347
 20
4.440158841280085
 30
0
 40
0.48336369549999475
 50
230.9921311185557
 51
6.3505321973022149
  0
ARC
  8
layer10
 10
48.947286401286497
 20
25.238439034974082
 30
0
 40
1.6971001090486486
 50
119.3326012841264
 51
230.99213105412591
  0
ARC
  8
layer10
 10
52.010666835247974
 20
27.216762452206265
 30
0
 40
1.4731006708690888
 50
50.992131309741907
 51
119.3326015397424
  0
ARC
  8
layer10
 10
-3.2630647979203786e-006
 20
-9.7933734188870858e-007
 30
0
 40
74.949993012994341
 50
9.5626228514128719
 51
23.84932986230902
  0
ARC
  8
layer10
 10
-2.3526502843651542e-006
 20
-2.8742751290167234e-007
 30
0
 40
74.949992000286528
 50
4.3681986001517981
 51
9.5626224454480209
  0
ARC
  8
layer10
 10
81.815558239278772
 20
9.9955543920759631
 30
0
 40
8.2795410486578636
 50
162.74767406808058
 51
211.18314697751924
  0
ARC
  8
layer10
 10
1.0175188691619041e-006
 20
5.8746472575421649e-007
 30
0
 40
74.949988458803077
 50
27.459861372614423
 51
32.540138627383932
  0
ARC
  8
layer10
 10
-3.048689336537791e-006
 20
-1.4642609791337691e-006
 30
0
 40
74.949993012994568
 50
23.849330267619159
 51
27.459861330972622
  0
ARC
  8
layer10
 10
69.543508553329772
 20
33.401181879052892
 30
0
 40
3.2518714435979246
 50
159.0957813042221
 51
252.21341029436979
  0
ARC
  8
layer10
 10
43.936310190560981
 20
54.277506426825916
 30
0
 40
3.4663970841164624
 50
9.0078689194954276
 51
53.649467889496584
  0
ARC
  8
layer10
 10
40.193036932733769
 20
60.736064395427157
 30
0
 40
0.48336369549997654
 50
53.649467802695575
 51
189.00786888144333
  0
ARC
  8
layer10
 10
46.330772556795601
 20
29.770373952339614
 30
0
 40
1.6971001090486435
 50
189.00786894587273
 51
300.66739871587436
  0
ARC
  8
layer10
 10
49.57574111000099
 20
31.434177520990467
 30
0
 40
1.4731006708691361
 50
300.66739846025791
 51
9.0078686902562914
  0
ARC
  8
layer10
 10
-0.00011174134996849716
 20
7.7813417270533591e-005
 30
0
 40
74.949988482401693
 50
55.631697393437996
 51
59.99989628081989
  0
ARC
  8
layer10
 10
6.988485665715416e-007
 20
9.2856832623056107e-007
 30
0
 40
74.949988471606588
 50
50.437377432190296
 51
55.631801522211376
  0
ARC
  8
layer10
 10
49.564183148086883
 20
65.856574663984389
 30
0
 40
8.2795410486598104
 50
208.81685302248081
 51
257.25232593192072
  0
ARC
  8
layer10
 10
8.5980435216015394e-007
 20
8.100698849489163e-007
 30
0
 40
74.949988460444317
 50
36.150669701533097
 51
50.437377584744347
  0
ARC
  8
layer10
 10
9.6961048967614261e-007
 20
6.6254938246856909e-007
 30
0
 40
74.949988458803247
 50
32.540138559296402
 51
36.15066984211149
  0
ARC
  8
layer10
 10
63.69802630035074
 20
43.525854135957488
 30
0
 40
3.2518714435998284
 50
167.7865897056314
 51
260.90421869577654
  0
ARC
  8
layer10
 10
67.54815999730485
 20
0.95521295457061406
 30
0
 40
22.192424436146474
 50
160.91256651917578
 51
182.46690415247846
  0
ARC
  8
layer10
 10
26.548581603782701
 20
0.95521295457058875
 30
0
 40
22.192424436146421
 50
357.53309584752162
 51
19.0874334808241
  0
ARC
  8
layer10
 10
47.048370800543744
 20
8.0488665129480363
 30
0
 40
0.50000000000001033
 50
19.087433480819413
 51
160.91256651917089
  0
ARC
  8
layer10
 10
34.601318683334569
 20
58.020816059276456
 30
0
 40
22.192424436146432
 50
237.53309584752151
 51
259.08743348082396
  0
ARC
  8
layer10
 10
30.494708272154728
 20
36.720651063466882
 30
0
 40
0.50000000000001521
 50
259.0874334808201
 51
40.912566519171463
  0
ARC
  8
layer10
 10
14.101529486573469
 20
22.514139626034698
 30
0
 40
22.19242443614645
 50
40.912566519175812
 51
62.466904152478449
  0
ARC
  8
layer10
 10
0.00012161632078289131
 20
-6.0977812069040738e-005
 30
0
 40
74.949992000296987
 50
60.00010382174424
 51
64.368302503999544
  0
ARC
  8
default
 10
-1.9895196601282805e-013
 20
8.5265128291212022e-014
 30
0
 40
75.65000000000002
 50
59.999999999999829
 51
62.416666666666494
  0
ARC
  8
default
 10
40.681045114135934
 20
82.50608506290699
 30
0
 40
2.49999999999971
 50
64.340585579820626
 51
156.666666666667
  0
ARC
  8
default
 10
41.88700876302326
 20
81.900427354638495
 30
0
 40
2.4999999999997136
 50
330.00000000000034
 51
62.32608108684601
  0
ARC
  8
default
 10
3.836930773104541e-013
 20
-1.7053025658242404e-013
 30
0
 40
75.649999999999991
 50
64.250000000000313
 51
66.66666666666697
  0
ARC
  8
default
 10
1.9184653865522705e-013
 20
2.1316282072803006e-013
 30
0
 40
75.649999999999721
 50
62.416666666666714
 51
64.250000000000057
  0
ARC
  8
default
 10
30.827602592373271
 20
86.670989508558776
 30
0
 40
2.499999999999718
 50
71.007252246487411
 51
163.33333333333323
  0
ARC
  8
default
 10
32.095724514805895
 20
86.20943087537286
 30
0
 40
2.4999999999997113
 50
336.66666666666737
 51
68.992747753512731
  0
ARC
  8
default
 10
5.4001247917767614e-013
 20
1.8474111129762605e-013
 30
0
 40
75.64999999999965
 50
70.916666666666998
 51
73.333333333333684
  0
ARC
  8
default
 10
3.0198066269804258e-013
 20
4.8316906031686813e-013
 30
0
 40
75.649999999999466
 50
69.083333333333414
 51
70.916666666666757
  0
ARC
  8
default
 10
20.557269629804257
 20
89.663817503793211
 30
0
 40
2.4999999999997224
 50
77.67391891315431
 51
170.00000000000034
  0
ARC
  8
default
 10
21.870400652223996
 20
89.352599734407292
 30
0
 40
2.4999999999997105
 50
343.33333333333417
 51
75.659414420179417
  0
ARC
  8
default
 10
3.801403636316536e-013
 20
-3.1263880373444408e-013
 30
0
 40
75.650000000000219
 50
77.583333333333655
 51
80.000000000000313
  0
ARC
  8
default
 10
-1.0658141036401503e-013
 20
-1.8474111129762605e-013
 30
0
 40
75.650000000000205
 50
75.749999999999943
 51
77.583333333333286
  0
ARC
  8
default
 10
10.008934861156906
 20
91.444096184122927
 30
0
 40
2.4999999999997056
 50
84.340585579820484
 51
176.66666666666671
  0
ARC
  8
default
 10
11.349317139140664
 20
91.287427964978903
 30
0
 40
2.49999999999971
 50
350.00000000000028
 51
82.326081086846031
  0
ARC
  8
default
 10
1.3145040611561853e-013
 20
-3.836930773104541e-013
 30
0
 40
75.650000000000389
 50
84.250000000000128
 51
86.666666666666799
  0
ARC
  8
default
 10
3.4638958368304884e-013
 20
-3.979039320256561e-013
 30
0
 40
75.650000000000361
 50
82.41666666666697
 51
84.250000000000284
  0
ARC
  8
default
 10
-0.67475358132109653
 20
91.98775033443583
 30
0
 40
2.499999999999718
 50
91.00725224648761
 51
183.33333333333326
  0
ARC
  8
default
 10
0.67475358132112984
 20
91.98775033443583
 30
0
 40
2.4999999999997056
 50
356.66666666666703
 51
88.99274775351283
  0
ARC
  8
default
 10
-2.7977620220553945e-014
 20
2.4158453015843406e-013
 30
0
 40
75.649999999999778
 50
90.916666666666643
 51
93.3333333333333
  0
ARC
  8
default
 10
1.0658141036401503e-014
 20
-2.9842794901924208e-013
 30
0
 40
75.650000000000304
 50
89.083333333333343
 51
90.916666666666657
  0
ARC
  8
default
 10
-11.349317139140631
 20
91.287427964978917
 30
0
 40
2.499999999999722
 50
97.673918913154438
 51
190.00000000000031
  0
ARC
  8
default
 10
-10.008934861156877
 20
91.444096184122913
 30
0
 40
2.4999999999997069
 50
3.3333333333339565
 51
95.65941442017953
  0
ARC
  8
default
 10
5.3468340865947539e-013
 20
-4.2632564145606011e-013
 30
0
 40
75.650000000000503
 50
97.58333333333367
 51
100.00000000000036
  0
ARC
  8
default
 10
1.2789769243681803e-013
 20
-2.7000623958883807e-013
 30
0
 40
75.650000000000318
 50
95.750000000000071
 51
97.5833333333334
  0
ARC
  8
default
 10
-21.87040065222396
 20
89.35259973440732
 30
0
 40
2.499999999999718
 50
104.34058557982107
 51
196.66666666666677
  0
ARC
  8
default
 10
-20.557269629804217
 20
89.663817503793197
 30
0
 40
2.4999999999997153
 50
10.000000000000673
 51
102.32608108684617
  0
ARC
  8
default
 10
1.4210854715202004e-014
 20
-1.5631940186722204e-013
 30
0
 40
75.650000000000148
 50
104.24999999999999
 51
106.66666666666664
  0
ARC
  8
default
 10
-1.7763568394002505e-013
 20
-6.8212102632969618e-013
 30
0
 40
75.650000000000603
 50
102.41666666666643
 51
104.24999999999974
  0
ARC
  8
default
 10
-32.095724514805895
 20
86.209430875372888
 30
0
 40
2.4999999999996976
 50
111.00725224648708
 51
203.3333333333338
  0
ARC
  8
default
 10
-30.827602592373236
 20
86.670989508558776
 30
0
 40
2.4999999999997073
 50
16.666666666667542
 51
108.99274775351302
  0
ARC
  8
default
 10
-5.1869619710487314e-013
 20
-8.5265128291212022e-014
 30
0
 40
75.649999999999906
 50
110.91666666666629
 51
113.33333333333294
  0
ARC
  8
default
 10
1.5987211554602254e-013
 20
-8.5265128291212022e-014
 30
0
 40
75.650000000000134
 50
109.08333333333341
 51
110.91666666666676
  0
ARC
  8
default
 10
-41.887008763023239
 20
81.900427354638495
 30
0
 40
2.499999999999718
 50
117.67391891315368
 51
209.99999999999963
  0
ARC
  8
default
 10
-40.681045114135905
 20
82.506085062906976
 30
0
 40
2.4999999999997127
 50
23.333333333333659
 51
115.65941442017952
  0
ARC
  8
default
 10
-7.1054273576010019e-015
 20
8.5265128291212022e-014
 30
0
 40
75.649999999999935
 50
117.58333333333333
 51
120.00000000000001
  0
ARC
  8
default
 10
-5.0448534238967113e-013
 20
-1.4210854715202004e-014
 30
0
 40
75.649999999999793
 50
115.74999999999966
 51
117.58333333333299
  0
ARC
  8
default
 10
-4.8316906031686813e-013
 20
3.5527136788005009e-013
 30
0
 40
75.649999999999821
 50
66.666666666666202
 51
69.083333333332888
  0
ARC
  8
default
 10
-2.1671553440683056e-013
 20
4.1211478674085811e-013
 30
0
 40
75.649999999999636
 50
73.333333333333087
 51
75.749999999999758
  0
ARC
  8
default
 10
-9.1660012913052924e-013
 20
-5.5422333389287814e-013
 30
0
 40
75.650000000000659
 50
79.999999999999389
 51
82.416666666666018
  0
ARC
  8
default
 10
-3.2152058793144533e-013
 20
-5.9685589803848416e-013
 30
0
 40
75.650000000000631
 50
86.666666666666472
 51
89.083333333333087
  0
ARC
  8
default
 10
-1.0746958878371515e-013
 20
-1.8474111129762605e-013
 30
0
 40
75.650000000000176
 50
93.333333333333229
 51
95.749999999999901
  0
ARC
  8
default
 10
-1.1368683772161603e-013
 20
1.2789769243681803e-013
 30
0
 40
75.649999999999849
 50
99.999999999999929
 51
102.4166666666666
  0
ARC
  8
default
 10
-5.3290705182007514e-014
 20
-4.2632564145606011e-014
 30
0
 40
75.650000000000048
 50
106.6666666666666
 51
109.08333333333327
  0
ARC
  8
default
 10
6.0751403907488566e-013
 20
7.531752999057062e-013
 30
0
 40
75.649999999999579
 50
113.33333333333397
 51
115.75000000000067
  0
ARC
  8
layer10
 10
25.03754432442382
 20
65.188713986991786
 30
0
 40
3.466397084116529
 50
66.350532110503323
 51
110.99213108050259
  0
ARC
  8
layer10
 10
32.50245622596055
 20
65.176223236707202
 30
0
 40
0.48336369549998881
 50
290.99213111855642
 51
66.350532197301973
  0
ARC
  8
layer10
 10
2.6165138444908855
 20
55.008812987313739
 30
0
 40
1.6971001090486435
 50
179.33260128412635
 51
290.99213105412593
  0
ARC
  8
layer10
 10
2.4349257252469187
 20
58.650939973196671
 30
0
 40
1.473100670869091
 50
110.99213130974189
 51
179.33260153974229
  0
ARC
  8
layer10
 10
-7.8340141840271826e-007
 20
-3.3155657064298794e-006
 30
0
 40
74.949993012994398
 50
69.562622851412868
 51
83.849329862308991
  0
ARC
  8
layer10
 10
-9.2740603463425941e-007
 20
-2.181168682113821e-006
 30
0
 40
74.949992000286713
 50
64.368198600151516
 51
69.56262244544773
  0
ARC
  8
layer10
 10
32.251375091192521
 20
75.852129056058615
 30
0
 40
8.2795410486578707
 50
222.74767406808024
 51
271.18314697751896
  0
ARC
  8
layer10
 10
1.9984014443252818e-014
 20
1.1749294657192877e-006
 30
0
 40
74.94998845880319
 50
87.459861372614398
 51
92.540138627383911
  0
ARC
  8
layer10
 10
-2.562572589681622e-007
 20
-3.372372120225009e-006
 30
0
 40
74.949993012993801
 50
83.849330267619266
 51
87.459861330972743
  0
ARC
  8
layer10
 10
5.8454822529806343
 20
76.927036015010444
 30
0
 40
3.2518714435979175
 50
219.09578130422224
 51
312.21341029436974
  0
ARC
  8
layer10
 10
-25.037544324423877
 20
65.188713986991885
 30
0
 40
3.4663970841164646
 50
69.007868919495507
 51
113.64946788949669
  0
ARC
  8
layer10
 10
-32.502456225960579
 20
65.176223236707202
 30
0
 40
0.48336369549997676
 50
113.64946780269572
 51
249.00786888144373
  0
ARC
  8
layer10
 10
-2.616513844490842
 20
55.008812987313711
 30
0
 40
1.6971001090486428
 50
249.0078689458727
 51
0.66739871587438571
  0
ARC
  8
layer10
 10
-2.4349257252469867
 20
58.650939973196643
 30
0
 40
1.4731006708691343
 50
0.667398460257702
 51
69.007868690256316
  0
ARC
  8
layer10
 10
-0.00012325907126609081
 20
-5.7864138824470501e-005
 30
0
 40
74.949988482401395
 50
115.63169739343795
 51
119.99989628081988
  0
ARC
  8
layer10
 10
-4.5473933241169107e-007
 20
1.0695049610376373e-006
 30
0
 40
74.949988471606488
 50
110.43737743219043
 51
115.63180152221155
  0
ARC
  8
layer10
 10
-32.251375091193687
 20
75.852129056060008
 30
0
 40
8.2795410486598122
 50
268.81685302248098
 51
317.25232593192095
  0
ARC
  8
layer10
 10
-2.7163890869985607e-007
 20
1.1496472609451303e-006
 30
0
 40
74.94998846044443
 50
96.15066970153309
 51
110.43737758474433
  0
ARC
  8
layer10
 10
-8.8979342560691066e-008
 20
1.1709825855632516e-006
 30
0
 40
74.949988458802679
 50
92.540138559296437
 51
96.150669842111526
  0
ARC
  8
layer10
 10
-5.8454822529797763
 20
76.927036015011794
 30
0
 40
3.2518714435998115
 50
227.78658970563146
 51
320.90421869577648
  0
ARC
  8
layer10
 10
32.946841313970381
 20
58.976029013847253
 30
0
 40
22.192424436146641
 50
220.91256651917587
 51
242.46690415247858
  0
ARC
  8
layer10
 10
12.44705211720918
 20
23.469352580605179
 30
0
 40
22.192424436146563
 50
57.533095847521558
 51
79.087433480824089
  0
ARC
  8
layer10
 10
16.55366252838899
 20
44.769517576414906
 30
0
 40
0.50000000000000111
 50
79.087433480819413
 51
220.91256651917075
  0
ARC
  8
layer10
 10
-32.946841313970225
 20
58.976029013847103
 30
0
 40
22.192424436146432
 50
297.53309584752145
 51
319.0874334808239
  0
ARC
  8
layer10
 10
-16.553662528389005
 20
44.769517576414906
 30
0
 40
0.50000000000001399
 50
319.08743348082015
 51
100.91256651917213
  0
ARC
  8
layer10
 10
-12.447052117209196
 20
23.469352580605328
 30
0
 40
22.192424436146428
 50
100.91256651917578
 51
122.46690415247848
  0
ARC
  8
layer10
 10
0.00011361649455920997
 20
7.4833917281580398e-005
 30
0
 40
74.949992000296916
 50
120.00010382174413
 51
124.36830250399944
  0
ARC
  8
default
 10
3.4106051316484809e-013
 20
-6.2527760746888816e-013
 30
0
 40
75.650000000000716
 50
119.99999999999997
 51
122.41666666666661
  0
ARC
  8
default
 10
-51.111843074209276
 20
76.48386105279603
 30
0
 40
2.4999999999997158
 50
124.34058557982073
 51
216.66666666666677
  0
ARC
  8
default
 10
-49.984346288407231
 20
77.225427354638782
 30
0
 40
2.4999999999997096
 50
30.000000000000451
 51
122.32608108684624
  0
ARC
  8
default
 10
1.5631940186722204e-013
 20
3.2684965844964609e-013
 30
0
 40
75.649999999999821
 50
124.25000000000024
 51
126.6666666666669
  0
ARC
  8
default
 10
-1.4921397450962104e-013
 20
1.9184653865522705e-013
 30
0
 40
75.649999999999778
 50
122.41666666666664
 51
124.24999999999999
  0
ARC
  8
default
 10
-59.645477389359812
 20
70.03298173704566
 30
0
 40
2.4999999999997171
 50
131.00725224648744
 51
223.33333333333317
  0
ARC
  8
default
 10
-58.611694926468473
 20
70.900428220375318
 30
0
 40
2.4999999999997136
 50
36.666666666667261
 51
128.99274775351259
  0
ARC
  8
default
 10
-2.2737367544323206e-013
 20
5.9685589803848416e-013
 30
0
 40
75.649999999999409
 50
130.91666666666683
 51
133.33333333333351
  0
ARC
  8
default
 10
-1.0658141036401503e-013
 20
4.9027448767446913e-013
 30
0
 40
75.649999999999565
 50
129.08333333333348
 51
130.91666666666686
  0
ARC
  8
default
 10
-67.372508943674589
 20
62.635026483753421
 30
0
 40
2.4999999999997184
 50
137.67391891315432
 51
230.00000000000034
  0
ARC
  8
default
 10
-66.446420938067391
 20
63.616622422973379
 30
0
 40
2.4999999999997242
 50
43.333333333333883
 51
135.65941442017927
  0
ARC
  8
default
 10
2.8421709430404007e-013
 20
-2.1316282072803006e-014
 30
0
 40
75.650000000000219
 50
137.58333333333346
 51
140.00000000000011
  0
ARC
  8
default
 10
-9.2370555648813024e-014
 20
4.1922021409845911e-013
 30
0
 40
75.649999999999636
 50
135.75000000000017
 51
137.58333333333351
  0
ARC
  8
default
 10
-74.188442890979644
 20
54.390039946647036
 30
0
 40
2.4999999999997038
 50
144.34058557982078
 51
236.66666666666737
  0
ARC
  8
default
 10
-73.382573094243355
 20
55.472510940591398
 30
0
 40
2.4999999999997047
 50
50.000000000000476
 51
142.32608108684613
  0
ARC
  8
default
 10
2.8421709430404007e-013
 20
2.5579538487363607e-013
 30
0
 40
75.650000000000091
 50
144.25000000000026
 51
146.66666666666694
  0
ARC
  8
default
 10
-1.5631940186722204e-013
 20
1.4921397450962104e-013
 30
0
 40
75.649999999999807
 50
142.41666666666666
 51
144.25
  0
ARC
  8
default
 10
-80.001105417262465
 20
45.40952142449931
 30
0
 40
2.4999999999997025
 50
151.0072522464875
 51
243.3333333333332
  0
ARC
  8
default
 10
-79.326351835941352
 20
46.578228909936541
 30
0
 40
2.4999999999997149
 50
56.666666666666835
 51
148.99274775351245
  0
ARC
  8
default
 10
7.673861546209082e-013
 20
-4.2632564145606011e-014
 30
0
 40
75.650000000000702
 50
150.91666666666691
 51
153.33333333333354
  0
ARC
  8
default
 10
7.2475359047530219e-013
 20
-5.4711790653527714e-013
 30
0
 40
75.650000000000887
 50
149.08333333333326
 51
150.91666666666657
  0
ARC
  8
default
 10
-84.731890233384036
 20
35.81491702438754
 30
0
 40
2.4999999999997078
 50
157.67391891315407
 51
250.00000000000028
  0
ARC
  8
default
 10
-84.197377752136518
 20
37.054056237475926
 30
0
 40
2.4999999999997162
 50
63.333333333333712
 51
155.65941442017944
  0
ARC
  8
default
 10
1.5631940186722204e-013
 20
-1.2789769243681803e-013
 30
0
 40
75.650000000000176
 50
157.58333333333329
 51
159.99999999999994
  0
ARC
  8
default
 10
-9.9475983006414026e-014
 20
-4.9737991503207013e-014
 30
0
 40
75.64999999999992
 50
155.74999999999994
 51
157.58333333333329
  0
ARC
  8
default
 10
-88.316821590291397
 20
25.735977311433963
 30
0
 40
2.4999999999997216
 50
164.34058557982112
 51
256.66666666666686
  0
ARC
  8
default
 10
-87.929778573478828
 20
27.028791020039833
 30
0
 40
2.4999999999997171
 50
70.000000000000384
 51
162.32608108684607
  0
ARC
  8
default
 10
-2.8421709430404007e-014
 20
-2.6290081223123707e-013
 30
0
 40
75.650000000000048
 50
164.2499999999998
 51
166.66666666666646
  0
ARC
  8
default
 10
-5.4001247917767614e-013
 20
-3.5527136788005009e-014
 30
0
 40
75.64999999999948
 50
162.41666666666652
 51
164.24999999999986
  0
ARC
  8
default
 10
-90.707419441274396
 20
15.30900265499757
 30
0
 40
2.4999999999996985
 50
171.00725224648707
 51
263.33333333333405
  0
ARC
  8
default
 10
-90.473079981733079
 20
16.638007771513152
 30
0
 40
2.4999999999997087
 50
76.666666666667112
 51
168.9927477535129
  0
ARC
  8
default
 10
-8.5265128291212022e-014
 20
1.4743761767022079e-013
 30
0
 40
75.649999999999906
 50
170.91666666666674
 51
173.33333333333346
  0
ARC
  8
default
 10
-1.3500311979441904e-012
 20
-9.7699626167013776e-014
 30
0
 40
75.649999999998712
 50
169.08333333333306
 51
170.91666666666643
  0
ARC
  8
default
 10
-91.871355051430513
 20
4.6749999999997316
 30
0
 40
2.4999999999997131
 50
177.67391891315373
 51
270
  0
ARC
  8
default
 10
-91.792888188345216
 20
6.0222240101109792
 30
0
 40
2.4999999999997118
 50
83.333333333333428
 51
175.65941442017939
  0
ARC
  8
default
 10
6.8212102632969618e-013
 20
5.2846615972157451e-014
 30
0
 40
75.650000000000674
 50
177.58333333333337
 51
180.00000000000003
  0
ARC
  8
default
 10
7.1054273576010019e-013
 20
4.6185277824406512e-014
 30
0
 40
75.650000000000702
 50
175.75000000000006
 51
177.58333333333337
  0
ARC
  8
default
 10
2.8421709430404007e-014
 20
-8.0291329140891321e-013
 30
0
 40
75.650000000000674
 50
126.6666666666663
 51
129.08333333333294
  0
ARC
  8
default
 10
1.4210854715202004e-013
 20
-3.5527136788005009e-013
 30
0
 40
75.650000000000361
 50
133.33333333333323
 51
135.74999999999989
  0
ARC
  8
default
 10
4.9027448767446913e-013
 20
-1.0658141036401503e-012
 30
0
 40
75.650000000001057
 50
139.9999999999996
 51
142.41666666666623
  0
ARC
  8
default
 10
2.0605739337042905e-013
 20
-4.6895820560166612e-013
 30
0
 40
75.650000000000418
 50
146.66666666666643
 51
149.08333333333312
  0
ARC
  8
default
 10
-1.2363443602225743e-012
 20
2.9132252166164108e-013
 30
0
 40
75.649999999998741
 50
153.33333333333309
 51
155.7499999999998
  0
ARC
  8
default
 10
-2.8421709430404007e-013
 20
6.2172489379008766e-013
 30
0
 40
75.649999999999537
 50
160.00000000000037
 51
162.41666666666706
  0
ARC
  8
default
 10
-2.8421709430404007e-013
 20
2.2026824808563106e-013
 30
0
 40
75.649999999999693
 50
166.66666666666677
 51
169.08333333333343
  0
ARC
  8
default
 10
5.4001247917767614e-013
 20
2.2382096176443156e-013
 30
0
 40
75.650000000000517
 50
173.33333333333354
 51
175.75000000000017
  0
ARC
  8
layer10
 10
-43.936310190560931
 20
54.277506426825809
 30
0
 40
3.4663970841165321
 50
126.35053211050318
 51
170.9921310805025
  0
ARC
  8
layer10
 10
-40.19303693273379
 20
60.736064395427128
 30
0
 40
0.48336369549999697
 50
350.99213111855624
 51
126.35053219730176
  0
ARC
  8
layer10
 10
-46.330772556795608
 20
29.770373952339671
 30
0
 40
1.6971001090486513
 50
239.33260128412638
 51
350.99213105412593
  0
ARC
  8
layer10
 10
-49.575741110001054
 20
31.434177520990417
 30
0
 40
1.4731006708690879
 50
170.99213130974186
 51
239.33260153974226
  0
ARC
  8
layer10
 10
2.4796634860990707e-006
 20
-2.3362283911865234e-006
 30
0
 40
74.949993012994412
 50
129.5626228514129
 51
143.84932986230902
  0
ARC
  8
layer10
 10
1.4252448394813655e-006
 20
-1.8937414054676083e-006
 30
0
 40
74.949992000286827
 50
124.36819860015179
 51
129.56262244544803
  0
ARC
  8
layer10
 10
-49.564183148086308
 20
65.856574663982698
 30
0
 40
8.2795410486579097
 50
282.74767406808058
 51
331.18314697751919
  0
ARC
  8
layer10
 10
-1.017518727053357e-006
 20
5.8746464759451555e-007
 30
0
 40
74.949988458803247
 50
147.45986137261434
 51
152.54013862738387
  0
ARC
  8
layer10
 10
2.7924312249183458e-006
 20
-1.9081120328223733e-006
 30
0
 40
74.949993012994085
 50
143.8493302676188
 51
147.45986133097227
  0
ARC
  8
layer10
 10
-63.698026300349127
 20
43.525854135957552
 30
0
 40
3.2518714435979144
 50
279.09578130422176
 51
12.213410294369345
  0
ARC
  8
layer10
 10
-68.973854514984865
 20
10.911207560165975
 30
0
 40
3.4663970841164571
 50
129.00786891949542
 51
173.64946788949655
  0
ARC
  8
layer10
 10
-72.695493158694347
 20
4.4401588412800592
 30
0
 40
0.48336369549998009
 50
173.6494678026956
 51
309.0078688814437
  0
ARC
  8
layer10
 10
-48.947286401286441
 20
25.2384390349741
 30
0
 40
1.6971001090486455
 50
309.00786894587287
 51
60.667398715874356
  0
ARC
  8
layer10
 10
-52.010666835247982
 20
27.216762452206183
 30
0
 40
1.4731006708691365
 50
60.667398460257679
 51
129.00786869025623
  0
ARC
  8
layer10
 10
-1.1517721446807627e-005
 20
-0.00013567755633836498
 30
0
 40
74.949988482401366
 50
175.631697393438
 51
179.99989628081988
  0
ARC
  8
layer10
 10
-1.1535877888491086e-006
 20
1.4093648559310168e-007
 30
0
 40
74.949988471606829
 50
170.43737743219032
 51
175.63180152221142
  0
ARC
  8
layer10
 10
-81.815558239280605
 20
9.9955543920756185
 30
0
 40
8.2795410486598797
 50
328.81685302248093
 51
17.252325931920815
  0
ARC
  8
layer10
 10
-1.1314432697417942e-006
 20
3.3957751455204743e-007
 30
0
 40
74.949988460444317
 50
156.15066970153308
 51
170.43737758474435
  0
ARC
  8
layer10
 10
-1.0585905698690112e-006
 20
5.0843338783579384e-007
 30
0
 40
74.949988458802281
 50
152.54013855929668
 51
156.15066984211177
  0
ARC
  8
layer10
 10
-69.543508553330497
 20
33.401181879054299
 30
0
 40
3.2518714435997631
 50
287.78658970563163
 51
20.904218695776859
  0
ARC
  8
layer10
 10
-34.601318683334647
 20
58.020816059276662
 30
0
 40
22.192424436146645
 50
280.91256651917593
 51
302.46690415247861
  0
ARC
  8
layer10
 10
-14.101529486573352
 20
22.514139626034599
 30
0
 40
22.192424436146588
 50
117.53309584752154
 51
139.08743348082405
  0
ARC
  8
layer10
 10
-30.494708272154742
 20
36.720651063466867
 30
0
 40
0.50000000000000167
 50
139.08743348081973
 51
280.91256651917149
  0
ARC
  8
layer10
 10
-67.548159997304822
 20
0.95521295457064792
 30
0
 40
22.192424436146428
 50
357.53309584752151
 51
19.087433480823996
  0
ARC
  8
layer10
 10
-47.048370800543744
 20
8.0488665129480435
 30
0
 40
0.5000000000000101
 50
19.087433480821602
 51
160.91256651917325
  0
ARC
  8
layer10
 10
-26.548581603782655
 20
0.95521295457062649
 30
0
 40
22.192424436146457
 50
160.91256651917584
 51
182.46690415247846
  0
ARC
  8
layer10
 10
-7.9998254989277484e-006
 20
0.00013581172904102731
 30
0
 40
74.949992000297556
 50
180.00010382174398
 51
184.36830250399927
  0
ARC
  8
default
 10
2.1316282072803006e-013
 20
-3.6901073591473378e-013
 30
0
 40
75.65000000000019
 50
179.99999999999972
 51
182.41666666666637
  0
ARC
  8
default
 10
-91.792888188345231
 20
-6.0222240101109517
 30
0
 40
2.4999999999997127
 50
184.34058557982061
 51
276.66666666666691
  0
ARC
  8
default
 10
-91.871355051430513
 20
-4.6749999999997005
 30
0
 40
2.4999999999997113
 50
90.000000000000327
 51
182.32608108684602
  0
ARC
  8
default
 10
-1.1368683772161603e-013
 20
1.5187850976872141e-013
 30
0
 40
75.649999999999906
 50
184.25000000000011
 51
186.66666666666677
  0
ARC
  8
default
 10
8.2422957348171622e-013
 20
-1.7319479184152442e-014
 30
0
 40
75.650000000000816
 50
182.41666666666663
 51
184.24999999999994
  0
ARC
  8
default
 10
-90.473079981733093
 20
-16.638007771513113
 30
0
 40
2.4999999999997207
 50
191.00725224648752
 51
283.33333333333314
  0
ARC
  8
default
 10
-90.707419441274382
 20
-15.309002654997546
 30
0
 40
2.4999999999997122
 50
96.666666666667226
 51
188.99274775351276
  0
ARC
  8
default
 10
-3.2684965844964609e-013
 20
1.5099033134902129e-013
 30
0
 40
75.649999999999721
 50
190.91666666666683
 51
193.33333333333348
  0
ARC
  8
default
 10
7.673861546209082e-013
 20
8.5265128291212022e-014
 30
0
 40
75.650000000000773
 50
189.08333333333329
 51
190.9166666666666
  0
ARC
  8
default
 10
-87.929778573478856
 20
-27.028791020039801
 30
0
 40
2.4999999999997167
 50
197.6739189131541
 51
290.00000000000034
  0
ARC
  8
default
 10
-88.316821590291397
 20
-25.73597731143391
 30
0
 40
2.4999999999997145
 50
103.33333333333388
 51
195.65941442017936
  0
ARC
  8
default
 10
-3.694822225952521e-013
 20
1.4210854715202004e-014
 30
0
 40
75.649999999999636
 50
197.58333333333343
 51
200.00000000000006
  0
ARC
  8
default
 10
1.8900436771218665e-012
 20
7.2475359047530219e-013
 30
0
 40
75.650000000002038
 50
195.75000000000014
 51
197.5833333333334
  0
ARC
  8
default
 10
-84.197377752136561
 20
-37.054056237475905
 30
0
 40
2.4999999999997087
 50
204.34058557982067
 51
296.66666666666703
  0
ARC
  8
default
 10
-84.731890233384036
 20
-35.814917024387505
 30
0
 40
2.4999999999997096
 50
110.00000000000037
 51
202.32608108684593
  0
ARC
  8
default
 10
-1.4352963262354024e-012
 20
-1.3855583347321954e-013
 30
0
 40
75.649999999998641
 50
204.25000000000037
 51
206.666666666667
  0
ARC
  8
default
 10
-2.2737367544323206e-013
 20
7.815970093361102e-014
 30
0
 40
75.649999999999835
 50
202.41666666666677
 51
204.25000000000011
  0
ARC
  8
default
 10
-79.326351835941367
 20
-46.57822890993652
 30
0
 40
2.4999999999997113
 50
211.00725224648755
 51
303.33333333333326
  0
ARC
  8
default
 10
-80.00110541726248
 20
-45.409521424499289
 30
0
 40
2.4999999999997096
 50
116.66666666666711
 51
208.99274775351279
  0
ARC
  8
default
 10
-1.4210854715202004e-013
 20
4.9737991503207013e-013
 30
0
 40
75.650000000000134
 50
210.91666666666706
 51
213.33333333333371
  0
ARC
  8
default
 10
6.9633188104489818e-013
 20
5.6843418860808015e-013
 30
0
 40
75.650000000000887
 50
209.08333333333346
 51
210.91666666666674
  0
ARC
  8
default
 10
-73.382573094243398
 20
-55.472510940591384
 30
0
 40
2.4999999999997122
 50
217.67391891315413
 51
310.00000000000023
  0
ARC
  8
default
 10
-74.188442890979644
 20
-54.390039946646986
 30
0
 40
2.4999999999997109
 50
123.33333333333373
 51
215.65941442017947
  0
ARC
  8
default
 10
-1.2363443602225743e-012
 20
-2.7711166694643907e-013
 30
0
 40
75.649999999998855
 50
217.58333333333374
 51
220.0000000000004
  0
ARC
  8
default
 10
-1.7763568394002505e-013
 20
-1.2079226507921703e-013
 30
0
 40
75.649999999999807
 50
215.75
 51
217.58333333333334
  0
ARC
  8
default
 10
-66.446420938067448
 20
-63.616622422973364
 30
0
 40
2.4999999999997149
 50
224.34058557982095
 51
316.6666666666668
  0
ARC
  8
default
 10
-67.372508943674617
 20
-62.635026483753371
 30
0
 40
2.4999999999997145
 50
130.0000000000006
 51
222.32608108684602
  0
ARC
  8
default
 10
-2.1316282072803006e-013
 20
-2.8421709430404007e-013
 30
0
 40
75.64999999999965
 50
224.24999999999994
 51
226.6666666666666
  0
ARC
  8
default
 10
-3.3395508580724709e-013
 20
-4.1211478674085811e-013
 30
0
 40
75.649999999999494
 50
222.4166666666666
 51
224.24999999999994
  0
ARC
  8
default
 10
-58.611694926468495
 20
-70.900428220375318
 30
0
 40
2.4999999999997016
 50
231.00725224648676
 51
323.33333333333337
  0
ARC
  8
default
 10
-59.64547738935984
 20
-70.032981737045631
 30
0
 40
2.4999999999997096
 50
136.66666666666714
 51
228.99274775351279
  0
ARC
  8
default
 10
-1.4210854715202004e-013
 20
1.4210854715202004e-014
 30
0
 40
75.649999999999935
 50
230.91666666666674
 51
233.33333333333337
  0
ARC
  8
default
 10
9.2370555648813024e-014
 20
-2.4158453015843406e-013
 30
0
 40
75.649999999999892
 50
229.08333333333314
 51
230.91666666666649
  0
ARC
  8
default
 10
-49.984346288407266
 20
-77.225427354638782
 30
0
 40
2.4999999999997087
 50
237.67391891315376
 51
329.99999999999989
  0
ARC
  8
default
 10
-51.111843074209304
 20
-76.483861052796016
 30
0
 40
2.4999999999997118
 50
143.33333333333357
 51
235.65941442017939
  0
ARC
  8
default
 10
-5.4711790653527714e-013
 20
-5.3290705182007514e-013
 30
0
 40
75.649999999999267
 50
237.58333333333346
 51
240.00000000000011
  0
ARC
  8
default
 10
4.9737991503207013e-013
 20
6.1106675275368616e-013
 30
0
 40
75.650000000000773
 50
235.74999999999994
 51
237.58333333333326
  0
ARC
  8
default
 10
7.2475359047530219e-013
 20
-1.1013412404281553e-013
 30
0
 40
75.650000000000702
 50
186.66666666666649
 51
189.08333333333314
  0
ARC
  8
default
 10
-9.0949470177292824e-013
 20
-2.7000623958883807e-013
 30
0
 40
75.649999999999068
 50
193.33333333333329
 51
195.75
  0
ARC
  8
default
 10
1.7337242752546445e-012
 20
1.8829382497642655e-013
 30
0
 40
75.650000000001683
 50
199.99999999999963
 51
202.41666666666629
  0
ARC
  8
default
 10
1.9895196601282805e-012
 20
3.5527136788005009e-013
 30
0
 40
75.650000000001924
 50
206.66666666666617
 51
209.0833333333328
  0
ARC
  8
default
 10
4.4053649617126212e-013
 20
-3.765876499528531e-013
 30
0
 40
75.650000000000148
 50
213.33333333333289
 51
215.74999999999955
  0
ARC
  8
default
 10
1.6058265828178264e-012
 20
9.0949470177292824e-013
 30
0
 40
75.650000000001782
 50
219.99999999999969
 51
222.41666666666634
  0
ARC
  8
default
 10
6.7501559897209518e-013
 20
7.673861546209082e-013
 30
0
 40
75.650000000001015
 50
226.66666666666666
 51
229.08333333333331
  0
ARC
  8
default
 10
6.1817218011128716e-013
 20
1.2221335055073723e-012
 30
0
 40
75.650000000001356
 50
233.33333333333348
 51
235.75000000000011
  0
ARC
  8
layer10
 10
-68.973854514984751
 20
-10.91120756016598
 30
0
 40
3.4663970841165286
 50
186.35053211050314
 51
230.99213108050247
  0
ARC
  8
layer10
 10
-72.695493158694347
 20
-4.4401588412800761
 30
0
 40
0.48336369549999475
 50
50.992131118555712
 51
186.35053219730221
  0
ARC
  8
layer10
 10
-48.947286401286497
 20
-25.238439034974075
 30
0
 40
1.6971001090486482
 50
299.33260128412638
 51
50.99213105412592
  0
ARC
  8
layer10
 10
-52.010666835247974
 20
-27.216762452206257
 30
0
 40
1.4731006708690879
 50
230.99213130974189
 51
299.33260153974243
  0
ARC
  8
layer10
 10
3.2630645989684126e-006
 20
9.7933729570343075e-007
 30
0
 40
74.949993012994128
 50
189.56262285141287
 51
203.84932986230902
  0
ARC
  8
layer10
 10
2.3526504975279749e-006
 20
2.8742738145126623e-007
 30
0
 40
74.949992000286727
 50
184.36819860015169
 51
189.56262244544789
  0
ARC
  8
layer10
 10
-81.815558239278758
 20
-9.9955543920759631
 30
0
 40
8.2795410486578529
 50
342.74767406808047
 51
31.183146977519115
  0
ARC
  8
layer10
 10
-1.0175190965355796e-006
 20
-5.874647399650712e-007
 30
0
 40
74.949988458802906
 50
207.45986137261445
 51
212.54013862738395
  0
ARC
  8
layer10
 10
3.0486893791703551e-006
 20
1.464260460437572e-006
 30
0
 40
74.949993012994398
 50
203.84933026761874
 51
207.45986133097222
  0
ARC
  8
layer10
 10
-69.543508553329815
 20
-33.401181879052842
 30
0
 40
3.2518714435979268
 50
339.09578130422165
 51
72.213410294369297
  0
ARC
  8
layer10
 10
-43.936310190560988
 20
-54.277506426825909
 30
0
 40
3.4663970841164624
 50
189.00786891949545
 51
233.64946788949661
  0
ARC
  8
layer10
 10
-40.193036932733776
 20
-60.73606439542715
 30
0
 40
0.48336369549997643
 50
233.64946780269554
 51
9.0078688814433381
  0
ARC
  8
layer10
 10
-46.330772556795608
 20
-29.770373952339607
 30
0
 40
1.6971001090486419
 50
9.0078689458727421
 51
120.66739871587413
  0
ARC
  8
layer10
 10
-49.575741110001005
 20
-31.434177520990456
 30
0
 40
1.4731006708691312
 50
120.66739846025776
 51
189.00786869025646
  0
ARC
  8
layer10
 10
0.00011174135010350028
 20
-7.781341673762654e-005
 30
0
 40
74.949988482402219
 50
235.63169739343809
 51
239.99989628081997
  0
ARC
  8
layer10
 10
-6.9884877973436232e-007
 20
-9.2856863176393745e-007
 30
0
 40
74.949988471606233
 50
230.43737743219023
 51
235.63180152221133
  0
ARC
  8
layer10
 10
-49.564183148086912
 20
-65.856574663984361
 30
0
 40
8.2795410486598016
 50
28.816853022480796
 51
77.252325931920765
  0
ARC
  8
layer10
 10
-8.598044090035728e-007
 20
-8.1006992047605308e-007
 30
0
 40
74.949988460444274
 50
216.15066970153308
 51
230.43737758474433
  0
ARC
  8
layer10
 10
-9.6961100837233971e-007
 20
-6.6254943931198795e-007
 30
0
 40
74.949988458802792
 50
212.54013855929657
 51
216.15066984211168
  0
ARC
  8
layer10
 10
-63.698026300350769
 20
-43.525854135957481
 30
0
 40
3.2518714435998395
 50
347.78658970563157
 51
80.904218695776706
  0
ARC
  8
layer10
 10
-67.548159997305035
 20
-0.95521295457057498
 30
0
 40
22.192424436146645
 50
340.91256651917587
 51
2.4669041524785418
  0
ARC
  8
layer10
 10
-26.548581603782484
 20
-0.95521295457056898
 30
0
 40
22.19242443614662
 50
177.53309584752154
 51
199.08743348082399
  0
ARC
  8
layer10
 10
-47.048370800543744
 20
-8.0488665129480363
 30
0
 40
0.50000000000000266
 50
199.08743348081967
 51
340.91256651917138
  0
ARC
  8
layer10
 10
-34.601318683334597
 20
-58.02081605927647
 30
0
 40
22.19242443614645
 50
57.533095847521473
 51
79.087433480823947
  0
ARC
  8
layer10
 10
-30.494708272154742
 20
-36.720651063466867
 30
0
 40
0.50000000000000955
 50
79.087433480821176
 51
220.91256651917288
  0
ARC
  8
layer10
 10
-14.101529486573458
 20
-22.514139626034702
 30
0
 40
22.19242443614645
 50
220.91256651917575
 51
242.46690415247841
  0
ARC
  8
layer10
 10
-0.00012161632076868045
 20
6.0977811727980225e-005
 30
0
 40
74.949992000296689
 50
240.00010382174406
 51
244.36830250399936
  0
ARC
  8
default
 10
1.0373923942097463e-012
 20
1.2363443602225743e-012
 30
0
 40
75.650000000001583
 50
239.99999999999972
 51
242.41666666666637
  0
ARC
  8
default
 10
-40.681045114135969
 20
-82.506085062906962
 30
0
 40
2.4999999999997127
 50
244.34058557982064
 51
336.66666666666669
  0
ARC
  8
default
 10
-41.887008763023296
 20
-81.900427354638467
 30
0
 40
2.499999999999714
 50
150.00000000000037
 51
242.32608108684599
  0
ARC
  8
default
 10
-9.2370555648813024e-014
 20
-8.2422957348171622e-013
 30
0
 40
75.64999999999921
 50
244.24999999999974
 51
246.6666666666664
  0
ARC
  8
default
 10
-3.6237679523765109e-013
 20
-4.8316906031686813e-013
 30
0
 40
75.649999999999423
 50
242.41666666666671
 51
244.25000000000006
  0
ARC
  8
default
 10
-30.82760259237331
 20
-86.670989508558762
 30
0
 40
2.499999999999718
 50
251.00725224648738
 51
343.3333333333332
  0
ARC
  8
default
 10
-32.09572451480593
 20
-86.209430875372846
 30
0
 40
2.4999999999997193
 50
156.66666666666714
 51
248.99274775351259
  0
ARC
  8
default
 10
-5.6843418860808015e-013
 20
0
 30
0
 40
75.649999999999807
 50
250.91666666666703
 51
253.33333333333371
  0
ARC
  8
default
 10
1.0658141036401503e-013
 20
-3.694822225952521e-013
 30
0
 40
75.649999999999693
 50
249.08333333333312
 51
250.91666666666646
  0
ARC
  8
default
 10
-20.557269629804278
 20
-89.663817503793197
 30
0
 40
2.4999999999997136
 50
257.67391891315373
 51
349.99999999999994
  0
ARC
  8
default
 10
-21.870400652224035
 20
-89.352599734407278
 30
0
 40
2.4999999999997153
 50
163.33333333333388
 51
255.65941442017933
  0
ARC
  8
default
 10
-2.5579538487363607e-013
 20
4.5474735088646412e-013
 30
0
 40
75.650000000000404
 50
257.58333333333354
 51
260.00000000000023
  0
ARC
  8
default
 10
2.1316282072803006e-013
 20
7.815970093361102e-013
 30
0
 40
75.650000000000801
 50
255.74999999999997
 51
257.58333333333326
  0
ARC
  8
default
 10
-10.008934861156941
 20
-91.444096184122927
 30
0
 40
2.4999999999997056
 50
264.34058557982047
 51
356.66666666666669
  0
ARC
  8
default
 10
-11.349317139140698
 20
-91.287427964978889
 30
0
 40
2.4999999999997113
 50
170.00000000000034
 51
262.32608108684599
  0
ARC
  8
default
 10
-1.1013412404281553e-013
 20
-8.6686213762732223e-013
 30
0
 40
75.649999999999125
 50
264.25
 51
266.66666666666663
  0
ARC
  8
default
 10
-3.0375701953744283e-013
 20
9.9475983006414026e-013
 30
0
 40
75.650000000000958
 50
262.41666666666697
 51
264.25000000000023
  0
ARC
  8
default
 10
0.67475358132105678
 20
-91.98775033443583
 30
0
 40
2.4999999999997158
 50
271.00725224648772
 51
3.3333333333332935
  0
ARC
  8
default
 10
-0.67475358132116625
 20
-91.98775033443583
 30
0
 40
2.4999999999997047
 50
176.66666666666703
 51
268.99274775351267
  0
ARC
  8
default
 10
-3.907985046680551e-014
 20
4.2632564145606011e-013
 30
0
 40
75.650000000000432
 50
270.91666666666663
 51
273.33333333333326
  0
ARC
  8
default
 10
-3.907985046680551e-014
 20
8.8107299234252423e-013
 30
0
 40
75.650000000000901
 50
269.08333333333337
 51
270.91666666666663
  0
ARC
  8
default
 10
11.349317139140606
 20
-91.287427964978932
 30
0
 40
2.4999999999997113
 50
277.67391891315407
 51
10.000000000000366
  0
ARC
  8
default
 10
10.00893486115684
 20
-91.444096184122913
 30
0
 40
2.4999999999997113
 50
183.33333333333363
 51
275.65941442017936
  0
ARC
  8
default
 10
-3.907985046680551e-013
 20
-4.5474735088646412e-013
 30
0
 40
75.649999999999622
 50
277.5833333333336
 51
280.00000000000028
  0
ARC
  8
default
 10
-2.2559731860383181e-013
 20
9.9475983006414026e-013
 30
0
 40
75.650000000001029
 50
275.75000000000006
 51
277.58333333333337
  0
ARC
  8
default
 10
21.870400652223928
 20
-89.35259973440732
 30
0
 40
2.4999999999997167
 50
284.34058557982098
 51
16.666666666666799
  0
ARC
  8
default
 10
20.557269629804182
 20
-89.663817503793197
 30
0
 40
2.4999999999997158
 50
190.00000000000068
 51
282.32608108684616
  0
ARC
  8
default
 10
2.1316282072803006e-014
 20
-6.1106675275368616e-013
 30
0
 40
75.649999999999409
 50
284.25000000000006
 51
286.66666666666669
  0
ARC
  8
default
 10
6.8567374000849668e-013
 20
-1.6058265828178264e-012
 30
0
 40
75.649999999998258
 50
282.4166666666664
 51
284.24999999999977
  0
ARC
  8
default
 10
32.095724514805859
 20
-86.209430875372902
 30
0
 40
2.4999999999996971
 50
291.00725224648693
 51
23.333333333333787
  0
ARC
  8
default
 10
30.827602592373204
 20
-86.67098950855879
 30
0
 40
2.4999999999997051
 50
196.66666666666717
 51
288.99274775351296
  0
ARC
  8
default
 10
-2.0961010704922955e-013
 20
-2.7000623958883807e-013
 30
0
 40
75.649999999999821
 50
290.91666666666686
 51
293.33333333333348
  0
ARC
  8
default
 10
-1.4210854715202004e-013
 20
1.0516032489249483e-012
 30
0
 40
75.650000000001043
 50
289.08333333333314
 51
290.91666666666646
  0
ARC
  8
default
 10
41.887008763023218
 20
-81.900427354638509
 30
0
 40
2.4999999999997051
 50
297.67391891315373
 51
29.999999999999797
  0
ARC
  8
default
 10
40.681045114135877
 20
-82.506085062907005
 30
0
 40
2.4999999999997091
 50
203.33333333333334
 51
295.65941442017936
  0
ARC
  8
default
 10
7.1054273576010019e-014
 20
-5.1159076974727213e-013
 30
0
 40
75.649999999999494
 50
297.58333333333343
 51
300.00000000000011
  0
ARC
  8
default
 10
-6.8922645368729718e-013
 20
5.5422333389287814e-013
 30
0
 40
75.650000000000801
 50
295.75000000000023
 51
297.58333333333354
  0
ARC
  8
default
 10
4.2632564145606011e-013
 20
1.3784529073745944e-012
 30
0
 40
75.650000000001455
 50
246.66666666666671
 51
249.08333333333337
  0
ARC
  8
default
 10
3.0908609005564358e-013
 20
-2.5579538487363607e-013
 30
0
 40
75.649999999999821
 50
253.33333333333303
 51
255.74999999999969
  0
ARC
  8
default
 10
6.6613381477509392e-013
 20
1.4210854715202004e-014
 30
0
 40
75.650000000000105
 50
259.99999999999943
 51
262.41666666666612
  0
ARC
  8
default
 10
1.7319479184152442e-013
 20
1.4210854715202004e-012
 30
0
 40
75.650000000001441
 50
266.66666666666652
 51
269.0833333333332
  0
ARC
  8
default
 10
1.1013412404281553e-013
 20
-4.2632564145606011e-014
 30
0
 40
75.649999999999949
 50
273.3333333333332
 51
275.74999999999989
  0
ARC
  8
default
 10
1.3322676295501878e-013
 20
9.8054897534893826e-013
 30
0
 40
75.650000000000929
 50
279.99999999999966
 51
282.4166666666664
  0
ARC
  8
default
 10
-5.5777604757167865e-013
 20
1.3073986337985843e-012
 30
0
 40
75.650000000001398
 50
286.66666666666669
 51
289.08333333333337
  0
ARC
  8
default
 10
3.5527136788005009e-015
 20
4.9737991503207013e-013
 30
0
 40
75.650000000000446
 50
293.33333333333314
 51
295.74999999999977
  0
ARC
  8
layer10
 10
-25.037544324423848
 20
-65.188713986991758
 30
0
 40
3.4663970841165459
 50
246.35053211050331
 51
290.99213108050253
  0
ARC
  8
layer10
 10
-32.502456225960579
 20
-65.176223236707202
 30
0
 40
0.48336369549999547
 50
110.99213111855583
 51
246.35053219730196
  0
ARC
  8
layer10
 10
-2.6165138444909095
 20
-55.008812987313739
 30
0
 40
1.6971001090486497
 50
359.33260128412633
 51
110.99213105412591
  0
ARC
  8
layer10
 10
-2.434925725246941
 20
-58.650939973196664
 30
0
 40
1.4731006708690919
 50
290.99213130974181
 51
359.33260153974226
  0
ARC
  8
layer10
 10
7.8340139708643619e-007
 20
3.3155657632732982e-006
 30
0
 40
74.949993012994412
 50
249.56262285141281
 51
263.84932986230893
  0
ARC
  8
layer10
 10
9.274060701613962e-007
 20
2.1811691652828813e-006
 30
0
 40
74.949992000287168
 50
244.36819860015157
 51
249.5626224454478
  0
ARC
  8
layer10
 10
-32.251375091192578
 20
-75.852129056058615
 30
0
 40
8.2795410486579044
 50
42.747674068080322
 51
91.183146977519002
  0
ARC
  8
layer10
 10
-1.0702549957386509e-013
 20
-1.1749297357255273e-006
 30
0
 40
74.94998845880292
 50
267.45986137261434
 51
272.54013862738395
  0
ARC
  8
layer10
 10
2.5625768529380366e-007
 20
3.3723725749723599e-006
 30
0
 40
74.949993012994284
 50
263.84933026761888
 51
267.45986133097233
  0
ARC
  8
layer10
 10
-5.8454822529807364
 20
-76.927036015010415
 30
0
 40
3.2518714435978948
 50
39.095781304221873
 51
132.2134102943694
  0
ARC
  8
layer10
 10
25.037544324423848
 20
-65.188713986991885
 30
0
 40
3.4663970841164624
 50
249.00786891949554
 51
293.64946788949663
  0
ARC
  8
layer10
 10
32.50245622596055
 20
-65.176223236707216
 30
0
 40
0.48336369549997665
 50
293.64946780269571
 51
69.007868881443741
  0
ARC
  8
layer10
 10
2.6165138444908189
 20
-55.008812987313704
 30
0
 40
1.6971001090486442
 50
69.007868945872673
 51
180.66739871587438
  0
ARC
  8
layer10
 10
2.4349257252469609
 20
-58.650939973196635
 30
0
 40
1.4731006708691301
 50
180.66739846025797
 51
249.00786869025649
  0
ARC
  8
layer10
 10
0.00012325907106713885
 20
5.7864138724994518e-005
 30
0
 40
74.94998848240138
 50
295.63169739343812
 51
299.99989628082
  0
ARC
  8
layer10
 10
4.5473936793882785e-007
 20
-1.0695041083863543e-006
 30
0
 40
74.949988471607256
 50
290.43737743219015
 51
295.63180152221122
  0
ARC
  8
layer10
 10
32.251375091193637
 20
-75.852129056060079
 30
0
 40
8.2795410486598655
 50
88.816853022480686
 51
137.25232593192067
  0
ARC
  8
layer10
 10
2.7163892291071079e-007
 20
-1.149647474107951e-006
 30
0
 40
74.949988460444189
 50
276.15066970153305
 51
290.43737758474435
  0
ARC
  8
layer10
 10
8.8979075218986736e-008
 20
-1.170981619225131e-006
 30
0
 40
74.949988458803645
 50
272.54013855929657
 51
276.1506698421116
  0
ARC
  8
layer10
 10
5.8454822529797426
 20
-76.927036015011822
 30
0
 40
3.2518714435998537
 50
47.78658970563167
 51
140.90421869577651
  0
ARC
  8
layer10
 10
-32.946841313970339
 20
-58.976029013847196
 30
0
 40
22.192424436146567
 50
40.91256651917594
 51
62.466904152478634
  0
ARC
  8
layer10
 10
-12.447052117209189
 20
-23.469352580605225
 30
0
 40
22.192424436146521
 50
237.53309584752151
 51
259.08743348082396
  0
ARC
  8
layer10
 10
-16.553662528389019
 20
-44.769517576414898
 30
0
 40
0.50000000000001288
 50
259.08743348081958
 51
40.912566519171463
  0
ARC
  8
layer10
 10
32.946841313970261
 20
-58.976029013847111
 30
0
 40
22.192424436146464
 50
117.53309584752155
 51
139.08743348082405
  0
ARC
  8
layer10
 10
16.55366252838898
 20
-44.76951757641492
 30
0
 40
0.50000000000000522
 50
139.08743348082112
 51
280.91256651917308
  0
ARC
  8
layer10
 10
12.447052117209203
 20
-23.469352580605353
 30
0
 40
22.192424436146403
 50
280.91256651917575
 51
302.46690415247843
  0
ARC
  8
layer10
 10
-0.00011361649529106899
 20
-7.4833916329453132e-005
 30
0
 40
74.949992000298082
 50
300.00010382174418
 51
304.36830250399947
  0
ARC
  8
default
 10
1.1368683772161603e-013
 20
7.1054273576010019e-013
 30
0
 40
75.650000000000531
 50
299.9999999999996
 51
302.41666666666629
  0
ARC
  8
default
 10
51.111843074209311
 20
-76.48386105279603
 30
0
 40
2.4999999999997042
 50
304.34058557982081
 51
36.666666666666899
  0
ARC
  8
default
 10
49.984346288407266
 20
-77.225427354638768
 30
0
 40
2.4999999999997158
 50
210.00000000000034
 51
302.32608108684593
  0
ARC
  8
default
 10
-4.8316906031686813e-013
 20
2.2737367544323206e-013
 30
0
 40
75.650000000000475
 50
304.25000000000023
 51
306.66666666666686
  0
ARC
  8
default
 10
-5.0448534238967113e-013
 20
6.0396132539608516e-013
 30
0
 40
75.650000000000773
 50
302.41666666666674
 51
304.25000000000006
  0
ARC
  8
default
 10
59.645477389359833
 20
-70.032981737045645
 30
0
 40
2.499999999999726
 50
311.00725224648755
 51
43.333333333333314
  0
ARC
  8
default
 10
58.611694926468495
 20
-70.900428220375304
 30
0
 40
2.4999999999997082
 50
216.66666666666734
 51
308.9927477535129
  0
ARC
  8
default
 10
2.2026824808563106e-013
 20
-6.5369931689929217e-013
 30
0
 40
75.64999999999938
 50
310.91666666666686
 51
313.33333333333348
  0
ARC
  8
default
 10
-4.1211478674085811e-013
 20
6.7501559897209518e-013
 30
0
 40
75.650000000000801
 50
309.08333333333326
 51
310.91666666666657
  0
ARC
  8
default
 10
67.372508943674617
 20
-62.635026483753393
 30
0
 40
2.4999999999997109
 50
317.67391891315413
 51
50.00000000000022
  0
ARC
  8
default
 10
66.446420938067405
 20
-63.616622422973364
 30
0
 40
2.4999999999997149
 50
223.33333333333411
 51
315.65941442017947
  0
ARC
  8
default
 10
9.0949470177292824e-013
 20
-2.2737367544323206e-013
 30
0
 40
75.649999999999167
 50
317.58333333333303
 51
319.99999999999966
  0
ARC
  8
default
 10
-7.602807272633072e-013
 20
1.9184653865522705e-013
 30
0
 40
75.650000000000688
 50
315.75000000000028
 51
317.5833333333336
  0
ARC
  8
default
 10
74.188442890979658
 20
-54.390039946647008
 30
0
 40
2.4999999999997047
 50
324.34058557982081
 51
56.666666666667012
  0
ARC
  8
default
 10
73.382573094243384
 20
-55.472510940591391
 30
0
 40
2.4999999999997047
 50
230.00000000000045
 51
322.3260810868461
  0
ARC
  8
default
 10
1.3073986337985843e-012
 20
-1.2718714970105793e-012
 30
0
 40
75.649999999998215
 50
324.25000000000023
 51
326.66666666666691
  0
ARC
  8
default
 10
8.6686213762732223e-013
 20
-8.2422957348171622e-013
 30
0
 40
75.649999999998826
 50
322.41666666666674
 51
324.25000000000011
  0
ARC
  8
default
 10
80.00110541726248
 20
-45.409521424499282
 30
0
 40
2.4999999999997087
 50
331.00725224648721
 51
63.333333333332916
  0
ARC
  8
default
 10
79.326351835941381
 20
-46.578228909936513
 30
0
 40
2.4999999999997153
 50
236.66666666666686
 51
328.99274775351245
  0
ARC
  8
default
 10
-1.2505552149377763e-012
 20
3.979039320256561e-013
 30
0
 40
75.650000000001299
 50
330.91666666666686
 51
333.33333333333348
  0
ARC
  8
default
 10
1.3358203432289883e-012
 20
-6.1106675275368616e-013
 30
0
 40
75.649999999998542
 50
329.0833333333332
 51
330.91666666666657
  0
ARC
  8
default
 10
84.731890233384064
 20
-35.814917024387519
 30
0
 40
2.4999999999997118
 50
337.67391891315407
 51
70.000000000000355
  0
ARC
  8
default
 10
84.197377752136546
 20
-37.054056237475905
 30
0
 40
2.4999999999997078
 50
243.33333333333371
 51
335.65941442017947
  0
ARC
  8
default
 10
4.8316906031686813e-013
 20
9.2370555648813024e-014
 30
0
 40
75.649999999999622
 50
337.58333333333314
 51
339.99999999999977
  0
ARC
  8
default
 10
-9.8054897534893826e-013
 20
9.2370555648813024e-014
 30
0
 40
75.650000000000929
 50
335.75000000000023
 51
337.58333333333354
  0
ARC
  8
default
 10
88.316821590291411
 20
-25.735977311433928
 30
0
 40
2.4999999999997127
 50
344.34058557982087
 51
76.666666666666799
  0
ARC
  8
default
 10
87.929778573478842
 20
-27.028791020039804
 30
0
 40
2.4999999999997171
 50
250.00000000000037
 51
342.32608108684605
  0
ARC
  8
default
 10
6.8212102632969618e-013
 20
-5.2935433814127464e-013
 30
0
 40
75.64999999999921
 50
344.25000000000023
 51
346.66666666666686
  0
ARC
  8
default
 10
-5.8264504332328215e-013
 20
3.979039320256561e-013
 30
0
 40
75.650000000000659
 50
342.41666666666652
 51
344.24999999999983
  0
ARC
  8
default
 10
90.707419441274411
 20
-15.309002654997538
 30
0
 40
2.499999999999698
 50
351.00725224648698
 51
83.333333333333712
  0
ARC
  8
default
 10
90.473079981733093
 20
-16.638007771513127
 30
0
 40
2.4999999999997078
 50
256.66666666666708
 51
348.99274775351296
  0
ARC
  8
default
 10
1.0231815394945443e-012
 20
-3.730349362740526e-013
 30
0
 40
75.649999999998954
 50
350.91666666666686
 51
353.33333333333348
  0
ARC
  8
default
 10
1.3500311979441904e-012
 20
-3.1796787425264483e-013
 30
0
 40
75.649999999998627
 50
349.08333333333337
 51
350.91666666666674
  0
ARC
  8
default
 10
91.871355051430513
 20
-4.6749999999997085
 30
0
 40
2.4999999999997118
 50
357.67391891315384
 51
90
  0
ARC
  8
default
 10
91.792888188345216
 20
-6.0222240101109534
 30
0
 40
2.4999999999997091
 50
263.33333333333371
 51
355.65941442017942
  0
ARC
  8
default
 10
-5.6843418860808015e-014
 20
-3.7481129311345285e-013
 30
0
 40
75.650000000000034
 50
357.5833333333336
 51
2.5309113162297766e-013
  0
ARC
  8
default
 10
-6.9633188104489818e-013
 20
-1.7763568394002505e-014
 30
0
 40
75.650000000000702
 50
355.75000000000006
 51
357.58333333333337
  0
ARC
  8
default
 10
1.9184653865522705e-013
 20
2.9132252166164108e-013
 30
0
 40
75.650000000000105
 50
306.6666666666664
 51
309.08333333333309
  0
ARC
  8
default
 10
-7.0343730840249918e-013
 20
1.0587086762825493e-012
 30
0
 40
75.650000000001242
 50
313.33333333333314
 51
315.74999999999977
  0
ARC
  8
default
 10
-9.8054897534893826e-013
 20
7.460698725481052e-013
 30
0
 40
75.650000000001242
 50
320.00000000000006
 51
322.41666666666669
  0
ARC
  8
default
 10
-1.1368683772161603e-013
 20
4.9027448767446913e-013
 30
0
 40
75.650000000000361
 50
326.6666666666664
 51
329.08333333333309
  0
ARC
  8
default
 10
8.1001871876651421e-013
 20
-2.2737367544323206e-013
 30
0
 40
75.649999999999167
 50
333.3333333333332
 51
335.74999999999989
  0
ARC
  8
default
 10
-1.2363443602225743e-012
 20
4.9737991503207013e-014
 30
0
 40
75.650000000001185
 50
340.00000000000023
 51
342.41666666666691
  0
ARC
  8
default
 10
-1.3358203432289883e-012
 20
7.9225515037251171e-013
 30
0
 40
75.650000000001469
 50
346.66666666666623
 51
349.08333333333292
  0
ARC
  8
default
 10
-1.4637180356658064e-012
 20
3.5349501104064984e-013
 30
0
 40
75.650000000001484
 50
353.33333333333314
 51
355.74999999999983
  0
ARC
  8
layer10
 10
43.936310190560945
 20
-54.277506426825802
 30
0
 40
3.4663970841165264
 50
306.35053211050331
 51
350.99213108050259
  0
ARC
  8
layer10
 10
40.193036932733811
 20
-60.736064395427114
 30
0
 40
0.48336369549999508
 50
170.99213111855707
 51
306.35053219730173
  0
ARC
  8
layer10
 10
46.330772556795623
 20
-29.770373952339657
 30
0
 40
1.6971001090486508
 50
59.33260128412639
 51
170.99213105412596
  0
ARC
  8
layer10
 10
49.575741110001069
 20
-31.434177520990396
 30
0
 40
1.4731006708690872
 50
350.99213130974169
 51
59.332601539742257
  0
ARC
  8
layer10
 10
-2.4796634647827887e-006
 20
2.3362283627648139e-006
 30
0
 40
74.949993012994398
 50
309.56262285141287
 51
323.84932986230899
  0
ARC
  8
layer10
 10
-1.4252444628937155e-006
 20
1.8937413273079073e-006
 30
0
 40
74.949992000286528
 50
304.36819860015157
 51
309.5626224454478
  0
ARC
  8
layer10
 10
49.564183148086258
 20
-65.856574663982684
 30
0
 40
8.279541048657876
 50
102.7476740680804
 51
151.18314697751907
  0
ARC
  8
layer10
 10
1.0175189615324598e-006
 20
-5.8746503128759286e-007
 30
0
 40
74.949988458802878
 50
327.45986137261445
 51
332.54013862738401
  0
ARC
  8
layer10
 10
-2.792431068598944e-006
 20
1.9081121251929289e-006
 30
0
 40
74.949993012994042
 50
323.84933026761865
 51
327.45986133097216
  0
ARC
  8
layer10
 10
63.698026300349142
 20
-43.525854135957587
 30
0
 40
3.2518714435979388
 50
99.095781304221688
 51
192.21341029436911
  0
ARC
  8
layer10
 10
68.973854514984865
 20
-10.911207560165934
 30
0
 40
3.4663970841164766
 50
309.00786891949519
 51
353.64946788949624
  0
ARC
  8
layer10
 10
72.695493158694347
 20
-4.4401588412800317
 30
0
 40
0.48336369549997477
 50
353.64946780269571
 51
129.00786888144233
  0
ARC
  8
layer10
 10
48.947286401286455
 20
-25.238439034974085
 30
0
 40
1.6971001090486459
 50
129.0078689458729
 51
240.66739871587436
  0
ARC
  8
layer10
 10
52.010666835247996
 20
-27.216762452206162
 30
0
 40
1.4731006708691361
 50
240.66739846025769
 51
309.00786869025626
  0
ARC
  8
layer10
 10
1.1517720665210618e-005
 20
0.00013567755653376423
 30
0
 40
74.949988482402148
 50
355.63169739343789
 51
359.99989628081977
  0
ARC
  8
layer10
 10
1.1535878030599633e-006
 20
-1.4093673250670236e-007
 30
0
 40
74.949988471606801
 50
350.43737743219049
 51
355.63180152221162
  0
ARC
  8
layer10
 10
81.815558239280648
 20
-9.9955543920756398
 30
0
 40
8.2795410486599188
 50
148.81685302248107
 51
197.25232593192101
  0
ARC
  8
layer10
 10
1.1314434971154697e-006
 20
-3.3957753586832951e-007
 30
0
 40
74.949988460444104
 50
336.15066970153305
 51
350.4373775847443
  0
ARC
  8
layer10
 10
1.0585906551341395e-006
 20
-5.0843316756754575e-007
 30
0
 40
74.949988458802281
 50
332.54013855929651
 51
336.1506698421116
  0
ARC
  8
layer10
 10
69.543508553330526
 20
-33.401181879054299
 30
0
 40
3.2518714435997951
 50
107.78658970563144
 51
200.90421869577654
  0
ARC
  8
layer10
 10
34.601318683334654
 20
-58.020816059276711
 30
0
 40
22.192424436146698
 50
100.91256651917588
 51
122.46690415247858
  0
ARC
  8
layer10
 10
14.101529486573344
 20
-22.514139626034559
 30
0
 40
22.192424436146634
 50
297.53309584752145
 51
319.08743348082396
  0
ARC
  8
layer10
 10
30.494708272154742
 20
-36.720651063466867
 30
0
 40
0.50000000000001044
 50
319.08743348081873
 51
100.91256651917014
  0
ARC
  8
layer10
 10
67.548159997304992
 20
-0.95521295457055244
 30
0
 40
22.192424436146617
 50
177.53309584752159
 51
199.08743348082405
  0
ARC
  8
layer10
 10
47.048370800543751
 20
-8.0488665129480257
 30
0
 40
0.50000000000000644
 50
199.08743348082083
 51
340.91256651917257
  0
ARC
  8
layer10
 10
26.54858160378258
 20
-0.95521295457055633
 30
0
 40
22.192424436146545
 50
340.91256651917575
 51
2.4669041524784556
  0
ARC
  8
layer10
 10
0
 20
3.201246704682225e-015
 30
0
 40
34.75
 50
180
 51
360
  0
ARC
  8
layer10
 10
0
 20
3.201246704682225e-015
 30
0
 40
34.75
 50
360
 51
180
  0
ARC
  8
layer1000
 10
0
 20
1.4427643827599144e-014
 30
0
 40
112.5
 50
180
 51
360
  0
ARC
  8
layer1000
 10
0
 20
1.4427643827599144e-014
 30
0
 40
112.5
 50
360
 51
180
  0
ENDSEC
  0
EOF
